<mxfile host="65bd71144e">
    <diagram id="WI9T0HZ2pTsCkuznbFz-" name="Page-1">
        <mxGraphModel dx="1975" dy="823" grid="1" gridSize="10" guides="1" tooltips="1" connect="1" arrows="1" fold="1" page="1" pageScale="1" pageWidth="827" pageHeight="1169" math="0" shadow="0">
            <root>
                <mxCell id="0"/>
                <mxCell id="1" parent="0"/>
                <mxCell id="epFdQ0L5DlEfyH0QWlSM-53" value="" style="group" parent="1" vertex="1" connectable="0">
                    <mxGeometry x="414" y="160" width="368.5" height="890" as="geometry"/>
                </mxCell>
                <mxCell id="yIlqXNv4PA9Dnh1hxRCn-52" value="" style="rounded=0;whiteSpace=wrap;html=1;fillColor=#f5f5f5;strokeColor=none;fontColor=#333333;" parent="epFdQ0L5DlEfyH0QWlSM-53" vertex="1">
                    <mxGeometry width="368.5" height="890" as="geometry"/>
                </mxCell>
                <mxCell id="92u_7RIDC7wwMCtu2M5y-42" value="" style="shape=image;imageAspect=0;aspect=fixed;verticalLabelPosition=bottom;verticalAlign=top;image=data:image/svg+xml,PHN2ZyB4bWxucz0iaHR0cDovL3d3dy53My5vcmcvMjAwMC9zdmciIHZpZXdCb3g9IjAgMCAxODEgMjgiPjxkZWZzPjxzdHlsZT4uY2xzLTF7ZmlsbDojZWE0MzM1O30uY2xzLTJ7ZmlsbDojNDI4NWY0O30uY2xzLTN7ZmlsbDojMzRhODUzO30uY2xzLTR7ZmlsbDojZmJiYzA1O30uY2xzLTV7ZmlsbDojNWY2MzY4O308L3N0eWxlPjwvZGVmcz48cGF0aCBjbGFzcz0iY2xzLTEiIGQ9Ik0yMS44NSw3LjQxbDEsMCwyLjg1LTIuODUuMTQtMS4yMUExMi44MSwxMi44MSwwLDAsMCw1LDkuNmExLjU1LDEuNTUsMCwwLDEsMS0uMDZsNS43LS45NHMuMjktLjQ4LjQ0LS40NWE3LjExLDcuMTEsMCwwLDEsOS43My0uNzRaIi8+PHBhdGggY2xhc3M9ImNscy0yIiBkPSJNMjkuNzYsOS42YTEyLjg0LDEyLjg0LDAsMCwwLTMuODctNi4yNGwtNCw0QTcuMTEsNy4xMSwwLDAsMSwyNC41LDEzdi43MWEzLjU2LDMuNTYsMCwxLDEsMCw3LjEySDE3LjM4bC0uNzEuNzJ2NC4yN2wuNzEuNzFIMjQuNUE5LjI2LDkuMjYsMCwwLDAsMjkuNzYsOS42WiIvPjxwYXRoIGNsYXNzPSJjbHMtMyIgZD0iTTEwLjI1LDI2LjQ5aDcuMTJ2LTUuN0gxMC4yNWEzLjU0LDMuNTQsMCwwLDEtMS40Ny0uMzJsLTEsLjMxTDQuOTEsMjMuNjNsLS4yNSwxQTkuMjEsOS4yMSwwLDAsMCwxMC4yNSwyNi40OVoiLz48cGF0aCBjbGFzcz0iY2xzLTQiIGQ9Ik0xMC4yNSw4QTkuMjYsOS4yNiwwLDAsMCw0LjY2LDI0LjZsNC4xMy00LjEzYTMuNTYsMy41NiwwLDEsMSw0LjcxLTQuNzFsNC4xMy00LjEzQTkuMjUsOS4yNSwwLDAsMCwxMC4yNSw4WiIvPjxwYXRoIGNsYXNzPSJjbHMtNSIgZD0iTTUyLjc5LDIyLjUxYTkuMTEsOS4xMSwwLDAsMS02LjYtMi43MSw4LjgsOC44LDAsMCwxLTIuNzctNi41Miw4LjgxLDguODEsMCwwLDEsMi43Ny02LjUyQTkuMTEsOS4xMSwwLDAsMSw1Mi43OSw0YTguODQsOC44NCwwLDAsMSw2LjMzLDIuNTVMNTcuMzQsOC4zNmE2LjQxLDYuNDEsMCwwLDAtNC41NS0xLjgsNi4zNCw2LjM0LDAsMCwwLTQuNywyLDYuNTMsNi41MywwLDAsMC0xLjkzLDQuNzVBNi41Myw2LjUzLDAsMCwwLDQ4LjA5LDE4YTYuNzEsNi43MSwwLDAsMCw5LjM2LjExQTUuMzIsNS4zMiwwLDAsMCw1OC44MiwxNWgtNlYxMi40NGg4LjQ5QTguMTIsOC4xMiwwLDAsMSw2MS40MSwxNGE4LDgsMCwwLDEtMi4xOSw1LjlBOC41MSw4LjUxLDAsMCwxLDUyLjc5LDIyLjUxWm0xOS43NC0xLjdhNi4xMiw2LjEyLDAsMCwxLTguNDcsMCw1LjcsNS43LDAsMCwxLTEuNzMtNC4yNSw1LjcxLDUuNzEsMCwwLDEsMS43My00LjI1LDYuMTMsNi4xMywwLDAsMSw4LjQ3LDAsNS43MSw1LjcxLDAsMCwxLDEuNzMsNC4yNUE1LjcsNS43LDAsMCwxLDcyLjUyLDIwLjgxWm0tNi42LTEuNjdhMy4yNCwzLjI0LDAsMCwwLDQuNzMsMCwzLjU2LDMuNTYsMCwwLDAsMS0yLjU4LDMuNTcsMy41NywwLDAsMC0xLTIuNTksMy4yOSwzLjI5LDAsMCwwLTQuNzUsMCwzLjU3LDMuNTcsMCwwLDAtMSwyLjU5QTMuNTYsMy41NiwwLDAsMCw2NS45MiwxOS4xNFptMTkuNjIsMS42N2E2LjEyLDYuMTIsMCwwLDEtOC40NywwLDUuNyw1LjcsMCwwLDEtMS43My00LjI1LDUuNzEsNS43MSwwLDAsMSwxLjczLTQuMjUsNi4xMiw2LjEyLDAsMCwxLDguNDcsMCw1LjcxLDUuNzEsMCwwLDEsMS43Myw0LjI1QTUuNyw1LjcsMCwwLDEsODUuNTUsMjAuODFabS02LjYtMS42N2EzLjI0LDMuMjQsMCwwLDAsNC43MywwLDMuNTYsMy41NiwwLDAsMCwxLTIuNTgsMy41NywzLjU3LDAsMCwwLTEtMi41OSwzLjI5LDMuMjksMCwwLDAtNC43NSwwLDMuNTcsMy41NywwLDAsMC0xLDIuNTlBMy41NiwzLjU2LDAsMCwwLDc4Ljk0LDE5LjE0Wm0xNS4xNiw4LjcxYTUuMjQsNS4yNCwwLDAsMS0zLjMzLTEuMDYsNi4xMyw2LjEzLDAsMCwxLTEuOTQtMi40NmwyLjI4LS45NWEzLjg0LDMuODQsMCwwLDAsMS4xMywxLjQ5LDIuODUsMi44NSwwLDAsMCwxLjg3LjYzLDMsMywwLDAsMCwyLjMzLS45QTMuNjUsMy42NSwwLDAsMCw5Ny4yOCwyMnYtLjg2aC0uMDlhMy44MSwzLjgxLDAsMCwxLTMuMTMsMS4zNSw1LjQzLDUuNDMsMCwwLDEtNC0xLjc0LDUuNzUsNS43NSwwLDAsMS0xLjcxLTQuMTksNS44MSw1LjgxLDAsMCwxLDEuNzEtNC4yMiw1LjQyLDUuNDIsMCwwLDEsNC0xLjc1QTQuMyw0LjMsMCwwLDEsOTUuOSwxMWEzLjcsMy43LDAsMCwxLDEuMy45NWguMDlWMTFoMi40OFYyMS42NWE2LjIxLDYuMjEsMCwwLDEtMS41OSw0LjY1QTUuNiw1LjYsMCwwLDEsOTQuMTEsMjcuODVabS4xOC03LjY4YTIuOTEsMi45MSwwLDAsMCwyLjI2LTEsMy43LDMuNywwLDAsMCwuOTEtMi41NkEzLjc4LDMuNzgsMCwwLDAsOTYuNTUsMTRhMi45LDIuOSwwLDAsMC0yLjI2LTEsMy4wOSwzLjA5LDAsMCwwLTIuMzQsMSwzLjY1LDMuNjUsMCwwLDAtMSwyLjU5LDMuNTgsMy41OCwwLDAsMCwxLDIuNTZBMy4xLDMuMSwwLDAsMCw5NC4yOSwyMC4xN1ptOS44OS0xNS41VjIyLjE1aC0yLjYxVjQuNjdabTcuMTYsMTcuODRhNS42OCw1LjY4LDAsMCwxLTQuMjEtMS43MSw1Ljc5LDUuNzksMCwwLDEtMS42OS00LjI0LDUuODYsNS44NiwwLDAsMSwxLjYzLTQuMjgsNS4zNiw1LjM2LDAsMCwxLDQtMS42Nyw1LjA1LDUuMDUsMCwwLDEsMiwuMzksNC43MSw0LjcxLDAsMCwxLDEuNTMsMSw3LDcsMCwwLDEsMSwxLjIxLDcuMTUsNy4xNSwwLDAsMSwuNTksMS4xN2wuMjcuNjgtOCwzLjI5YTMsMywwLDAsMCwyLjg4LDEuOCwzLjQxLDMuNDEsMCwwLDAsMi45My0xLjY1bDIsMS4zNWE2LjU5LDYuNTksMCwwLDEtMS45MiwxLjgyQTUuNDQsNS40NCwwLDAsMSwxMTEuMzQsMjIuNTFaTTEwOCwxNi4zOGw1LjMyLTIuMjFhMS44NCwxLjg0LDAsMCwwLS44My0uOTEsMi43MSwyLjcxLDAsMCwwLTEuMzctLjM1LDMuMDksMy4wOSwwLDAsMC0yLjE1Ljk1QTMuMTcsMy4xNywwLDAsMCwxMDgsMTYuMzhaIi8+PHBhdGggY2xhc3M9ImNscy01IiBkPSJNMTMwLjEzLDIyLjUxYTguMjQsOC4yNCwwLDAsMS04LjM4LTguNDMsOC4yNCw4LjI0LDAsMCwxLDguMzgtOC40Myw3LjQ2LDcuNDYsMCwwLDEsNS45MywyLjY0bC0xLjQ0LDEuNGE1LjQ0LDUuNDQsMCwwLDAtNC40OC0yLjA1LDYuMTEsNi4xMSwwLDAsMC00LjQ1LDEuNzgsNi4yNCw2LjI0LDAsMCwwLTEuODEsNC42Niw2LjI0LDYuMjQsMCwwLDAsMS44MSw0LjY2LDYuMTEsNi4xMSwwLDAsMCw0LjQ1LDEuNzgsNi4zNiw2LjM2LDAsMCwwLDUtMi4zNGwxLjQ0LDEuNDRhNy44Niw3Ljg2LDAsMCwxLTIuNzcsMi4xMUE4LjQ4LDguNDgsMCwwLDEsMTMwLjEzLDIyLjUxWiIvPjxwYXRoIGNsYXNzPSJjbHMtNSIgZD0iTTE0MC40NSwyMi4xNWgtMi4wN1Y2aDIuMDdaIi8+PHBhdGggY2xhc3M9ImNscy01IiBkPSJNMTQzLjgzLDEyLjQzYTUuNzksNS43OSwwLDAsMSw4LjE2LDAsNS44NSw1Ljg1LDAsMCwxLDEuNiw0LjIsNS44NSw1Ljg1LDAsMCwxLTEuNiw0LjIsNS43OSw1Ljc5LDAsMCwxLTguMTYsMCw1Ljg1LDUuODUsMCwwLDEtMS42LTQuMkE1Ljg1LDUuODUsMCwwLDEsMTQzLjgzLDEyLjQzWm0xLjU0LDcuMWEzLjQ5LDMuNDksMCwwLDAsNS4wNywwLDQsNCwwLDAsMCwxLjA3LTIuOSw0LDQsMCwwLDAtMS4wNy0yLjksMy40OSwzLjQ5LDAsMCwwLTUuMDcsMCw0LDQsMCwwLDAtMS4wNywyLjlBNCw0LDAsMCwwLDE0NS4zOCwxOS41MloiLz48cGF0aCBjbGFzcz0iY2xzLTUiIGQ9Ik0xNjUuMDYsMjIuMTVoLTJWMjAuNjJIMTYzQTMuODUsMy44NSwwLDAsMSwxNjEuNTQsMjJhNC4wOCw0LjA4LDAsMCwxLTIuMDUuNTUsMy44OSwzLjg5LDAsMCwxLTMuMTQtMS4yNiw1LDUsMCwwLDEtMS4wNy0zLjM4VjExLjExaDIuMDd2Ni40MnEwLDMuMDksMi43MywzLjA5YTIuNTQsMi41NCwwLDAsMCwyLjEtMSwzLjc3LDMuNzcsMCwwLDAsLjgxLTIuMzlWMTEuMTFoMi4wN1oiLz48cGF0aCBjbGFzcz0iY2xzLTUiIGQ9Ik0xNzIuMDksMjIuNTFhNC44Niw0Ljg2LDAsMCwxLTMuNy0xLjY5LDYsNiwwLDAsMS0xLjU1LTQuMTksNiw2LDAsMCwxLDEuNTUtNC4xOSw0Ljg2LDQuODYsMCwwLDEsMy43LTEuNjksNC42OSw0LjY5LDAsMCwxLDIuMjYuNTQsMy44MywzLjgzLDAsMCwxLDEuNSwxLjM1aC4wOWwtLjA5LTEuNTNWNmgyLjA3VjIyLjE1aC0yVjIwLjYyaC0uMDlhMy44MywzLjgzLDAsMCwxLTEuNSwxLjM1QTQuNjksNC42OSwwLDAsMSwxNzIuMDksMjIuNTFabS4zNC0xLjg5YTMuMywzLjMsMCwwLDAsMi40OS0xLjA4LDQuMDUsNC4wNSwwLDAsMCwxLTIuOTEsNC4wNSw0LjA1LDAsMCwwLTEtMi45MSwzLjM4LDMuMzgsMCwwLDAtNSwwLDQsNCwwLDAsMC0xLDIuOSw0LDQsMCwwLDAsMSwyLjlBMy4zLDMuMywwLDAsMCwxNzIuNDMsMjAuNjJaIi8+PC9zdmc+;" parent="epFdQ0L5DlEfyH0QWlSM-53" vertex="1">
                    <mxGeometry x="28.5" y="10" width="300" height="46" as="geometry"/>
                </mxCell>
                <mxCell id="epFdQ0L5DlEfyH0QWlSM-40" value="" style="group" parent="1" vertex="1" connectable="0">
                    <mxGeometry x="-510" y="160" width="695" height="890" as="geometry"/>
                </mxCell>
                <mxCell id="WTVKG0cxRckwz1AXUShO-2" value="" style="rounded=0;whiteSpace=wrap;html=1;fillColor=#DBDBDB;strokeColor=none;fontColor=#333333;" parent="epFdQ0L5DlEfyH0QWlSM-40" vertex="1">
                    <mxGeometry width="695" height="890" as="geometry"/>
                </mxCell>
                <mxCell id="epFdQ0L5DlEfyH0QWlSM-3" value="Data Centre" style="text;html=1;strokeColor=none;fillColor=none;align=center;verticalAlign=middle;whiteSpace=wrap;rounded=0;fontSize=33;" parent="epFdQ0L5DlEfyH0QWlSM-40" vertex="1">
                    <mxGeometry x="147.5" y="23.264367816091955" width="400" height="20.229885057471265" as="geometry"/>
                </mxCell>
                <object placeholders="1" c4Name="Docker Compose" c4Type="DeploymentNode" c4OperationSystem="Docker containers" c4ScalingFactor="" label="&lt;div style=&quot;text-align: left&quot;&gt;%c4Name%&lt;/div&gt;&lt;div style=&quot;text-align: left&quot;&gt;[%c4OperationSystem%]&lt;/div&gt;&lt;div style=&quot;text-align: right&quot;&gt;%c4ScalingFactor%&lt;/div&gt;" id="epFdQ0L5DlEfyH0QWlSM-30">
                    <mxCell style="rounded=1;whiteSpace=wrap;html=1;labelBackgroundColor=none;fillColor=#ffffff;fontColor=#000000;align=left;arcSize=5;strokeColor=#000000;verticalAlign=bottom;metaEdit=1;metaData={&quot;c4Type&quot;:{&quot;editable&quot;:false}};points=[[0.25,0,0],[0.5,0,0],[0.75,0,0],[1,0.25,0],[1,0.5,0],[1,0.75,0],[0.75,1,0],[0.5,1,0],[0.25,1,0],[0,0.75,0],[0,0.5,0],[0,0.25,0]];" parent="epFdQ0L5DlEfyH0QWlSM-40" vertex="1">
                        <mxGeometry x="37.5" y="161.83908045977012" width="620" height="546.2068965517242" as="geometry"/>
                    </mxCell>
                </object>
                <mxCell id="epFdQ0L5DlEfyH0QWlSM-32" value="PostgreSQL&lt;br&gt;Inventory DB" style="shape=cylinder3;whiteSpace=wrap;html=1;boundedLbl=1;backgroundOutline=1;size=15;fontSize=33;" parent="epFdQ0L5DlEfyH0QWlSM-40" vertex="1">
                    <mxGeometry x="95" y="222.52873563218392" width="212.5" height="171.95402298850576" as="geometry"/>
                </mxCell>
                <mxCell id="epFdQ0L5DlEfyH0QWlSM-36" value="" style="group" parent="epFdQ0L5DlEfyH0QWlSM-40" vertex="1" connectable="0">
                    <mxGeometry x="95" y="495.63218390804604" width="212.5" height="111.26436781609196" as="geometry"/>
                </mxCell>
                <mxCell id="epFdQ0L5DlEfyH0QWlSM-31" value="Adminer&lt;br&gt;&lt;font style=&quot;font-size: 20px&quot;&gt;(manage DB)&lt;/font&gt;" style="rounded=0;whiteSpace=wrap;html=1;fontSize=33;" parent="epFdQ0L5DlEfyH0QWlSM-36" vertex="1">
                    <mxGeometry width="212.5" height="111.26436781609196" as="geometry"/>
                </mxCell>
                <mxCell id="epFdQ0L5DlEfyH0QWlSM-34" value="" style="shape=image;imageAspect=0;aspect=fixed;verticalLabelPosition=bottom;verticalAlign=top;fontSize=33;image=data:image/jpeg,/9j/4AAQSkZJRgABAQAAAQABAAD/2wCEAAYGBgYHBgcICAcKCwoLCg8ODAwODxYQERAREBYiFRkVFRkVIh4kHhweJB42KiYmKjY+NDI0PkxERExfWl98fKcBBgYGBgcGBwgIBwoLCgsKDw4MDA4PFhAREBEQFiIVGRUVGRUiHiQeHB4kHjYqJiYqNj40MjQ+TERETF9aX3x8p//CABEIAbMDIAMBIQACEQEDEQH/xAAcAAACAwEBAQEAAAAAAAAAAAAEBQADBgECBwj/2gAIAQEAAAAA/VPMme+ozL85So1szQ+t5kz31GZfnKVGtmaH1vMme+ozL85So1szQ+t5kz31GZfnKVGtmaH1vMme+ozL85So1szQ+t5kz31GZfnKVGtmaH1vMme+ozL85S15nC3I6NscrX6L0gq0nM4W5HRtjla/RekFWk5nC3I6NscrX6L0gq0nM4W5HRtjla/RekFWk5nC3I6NscrX6L0gq0nM4W5HRtjla/RekFWk5nC3I6NscrTkaWZJu2BQaa9CBrO5IjSzJN2wKDTXoQNZ3JEaWZJu2BQaa9CBrO5IjSzJN2wKDTXoQNZ3JEaWZJu2BQaa9CBrO5IjSzJN2wKDTXoQNZ3JEaWZJu2BQaZRY6oUFswAGZakd37Q2OqFBbMABmWpHd+0NjqhQWzAAZlqR3ftDY6oUFswAGZakd37Q2OqFBbMABmWpHd+0NjqhQWzAAZlqR3ftDY6oUFswAGZfMme+ozL85So1szQ+t5kz31GZfnKVGtmaH1vMme+ozL85So1szQ+t5kz31GZfnKVGtmaH1vMme+ozL85So1szQ+t5kz31GZfnKVGtmaH1vMme+ozL85SfUL7MoHIvGpLsC8n1C+zKByLxqS7AvJ9Qvsygci8akuwLyfUL7MoHIvGpLsC8n1C+zKByLxqS7AvJ9Qvsygci8akuwLyfUL7MoHIvGREaWZJu2BQaa9CBrO5IjSzJN2wKDTXoQNZ3JEaWZJu2BQaa9CBrO5IjSzJN2wKDTXoQNZ3JEaWZJu2BQaa9CBrO5IjSzJN2wKDTXoQNZ3JEaWZJu2BQaajnZJJJJOdnOySSSSc7Odkkkkk52c7JJJJJzs52SSSSTnZzskkkknOznZJJOH8yZ76jMvzlKjWzND63mTPfUZl+cpUa2ZofW8yZ76jMvzlKjWzND63mTPfUZl+cpUa2ZofW8yZ76jMvzlKjWzND63mTPfUZl+cpUa2ZofW8yZ76jMvzlM9G1iWlUDkXh+CrQPRtYlpVA5F4fgq0D0bWJaVQOReH4KtA9G1iWlUDkXh+CrQPRtYlpVA5F4fgq0D0bWJaVQOReH4KtA9G1iWlUDkICNLMk3bAoNNehA1nckRpZkm7YFBpr0IGs7kiNLMk3bAoNNehA1nckRpZkm7YFBpr0IGs7kiNLMk3bAoNNehA1nckRpZkm7YFBpr0IGs7kiNLMk3bAoNNf4SENhFh56wRvelrfeEhDYRYeesEb3pa33hIQ2EWHnrBG96Wt94SENhFh56wRvelrfeEhDYRYeesEb3pa33hIQ2EWHnrBG96Wt94SENhFh56xnzJnvqMy/OUqNbM0PreZM99RmX5ylRrZmh9bzJnvqMy/OUqNbM0PreZM99RmX5ylRrZmh9bzJnvqMy/OUqNbM0PreZM99RmX5ylRrZmh9bzJnvqMy/OUgWv/OdYNAlDwhMJovWbtf+c6waBKHhCYTRes3a/wDOdYNAlDwhMJovWbtf+c6waBKHhCYTRes3a/8AOdYNAlDwhMJovWbtf+c6waBKHhCYTRes3a/851g0CUPM2RpZkm7YFBpr0IGs7kiNLMk3bAoNNehA1nckRpZkm7YFBpr0IGs7kiNLMk3bAoNNehA1nckRpZkm7YFBpr0IGs7kiNLMk3bAoNNehA1nckRpZkm7YFBpr+ZM99RmX5ylRrZmh9bzJnvqMy/OUqNbM0PreZM99RmX5ylRrZmh9bzJsHtOZfHKVGtmaH1vMme+ozL85So1szQ+t5kz31GZfnKVGtmaH1vMme+ozL85S15nC3I6NscrX6L0gq0nM4W5HRtjla/RekFWk5nC3I6NscrX6L0gq0nM7+UfHmv379fq7RekFWk5nC3I6NscrX6L0gq0nM4W5HRtjla/RekFWk5nC3I6NscrTkaWZJu2BQaa9CBrO5IjSzJN2wKDTXoQNZ3JEaWZJu2BQaa9CBrO5IjS/hT6F5EKs+dfu1CBrO5IjSzJN2wKDTXoQNZ3JEaWZJu2BQaa9CBrO5IjSzJN2wKDTKLHVCgtmAAzLUju/aGx1QoLZgAMy1I7v2hsdUKC2YADMtSO79obHP4V21KlqRhv3apHd+0NjqhQWzAAZlqR3ftDY6oUFswAGZakd37Q2OqFBbMABmXzJnvqMy/OUqNbM0PreZM99RmX5ylRrZmh9bzJnvqMy/OUqNbM0PreZT8fbilS1Iwv7C1kzQ+t5kz31GZfnKVGtmaH1vMme+ozL85So1szQ+t5kz31GZfnKT6hfZlA5F41JdgXk+oX2ZQOReNSXYF5PqF9mUDkXjUl2BeT6hvxRt6VLUjC/tguwLyfUL7MoHIvGpLsC8n1C+zKByLxqS7AvJ9Qvsygci8ZERpZkm7YFBpr0IGs7kiNLMk3bAoNNehA1nckRpZkm5yBLoWeYC112Lv1v4h+ieADrfnH7tQgazuSI0syTdsCg016EDWdyRGlmSbtgUGmvQgazuSI0syTdsCg01HOySSSSc7Odkkkkk52c7Jz4b8QsklV/uSCnySB/uCTnZzskkmX+Cfoxvzs52SSSSTnZzskknD+ZM99RmX5ylRrZmh9bzJnvqMy/OUqNbM0PreZM99R+ePnVhnkWlsz8gH5Jz5EKsyX7C1kzQ+t5kz31GZfnfjDz4/YK0fW8yZ76jMvzlKjWzND63mTPfUZl+cpno2sS0qgci8PwVaB6NrEtKoHIvD8FWgejaxLfifyalj4BvMYeFbXPsfAB1ua/c4fgq0D0bWJaVR8z/P30LOLf10aB6NrEtKoHIvD8FWgejaxLSqByEBGlmSbtgUGmvQgazuSI0syTdsCg016EDWdyRGlmSb/ACL45Sx8A3lsfCtrn2PgA63N/u1CBrO5IjSzJN2wP5rSaSYr6L+ickRpZkm7YFBpr0IGs7kiNLMk3bAoNNf4SENhFh56wRvelrfeEhDYRYeesEb3pa33hIQ2E+B/MKWPgG8xh4VtEDHwAddmf2i2vS1vvCQhsIsP/K5LWV/Mv1xsvCQhsIsPPWCN70tb7wkIbCLDz1jPmTPfUZl+cpUa2ZofW8yZ76jMvzlKjWzNDv8A53niXoPyjNF38pCcMuDE5B3ym33kvvzsrPVbjdZM99RmX/5PasJMX9K/QfMsc8ozL85So1szQ+t5kz31GZfnKQLX/nOsGgSh4QmE0XrN2v8AznWDQJQ8ITCaL18l/NzSSD+mckU+r5Iq0UkmcbSSnQ/p1/5zrBoF+Uym8meUm54Zlr/pv1wRQ8ITCaL1m7X/AJzrBoEoeZsjSzJN2wKDTXoQNZ3JEaWZJu2BQaa9CBrO/H/gBwzGmg8dxUrIAM8hHKNfSpakY5yAZYG3/TWlmSbtgfzrlNVIoRNDPdK5A6/WaXTXoQNZ3JEaWZJu2BQaa/mTPfUZl+cpUa2ZofW8yZ76jMvzlKjWzNDh/lk0ZlRSeM4qVkgGeQTlOupUtSMe4AN9h6b9YZM99RmX+f8AyP8ATZA6pJO5Ta/pA9So1szQ+t5kz31GZfnKWvM4W5HRtjla/RekFWk5nC3I6NscrX6L0gqT/l00ZlRQeO4qVkgGeQTlOupUtSMe4Xm2B6T9Y5wtyOjbHflBXqxaJJO54X9S6A5Wv0XpBVpOZwtyOjbHK05GlmSbtgUGmvQgazuSI0syTdsCg016EDWd+P8AwA0ZlRQeM5qVkgGeQGCjXUqWpGPcLzbA3H6a0syTdtmvjXyhvqRpJF+bZ/qDVgoNNehA1nckRpZkm7YFBplFjqhQWzAAZlqR3ftDY6oUFswAGYXxSh16xHz1v598FtZ2StTCZ49pNbyuzuSd+PcGn1JzQhX5nNv9PeInTykDSfX/AKYazAAZlqR3ftDY6oUFswAGZfMme+ozL85So1szQ+t5kz31GZfnKfmP57ddvkkkkkkkkkkkkkkkkk9lMT5SJMD9pa7vQIjn1GZfnKVGtmaH1vMme+ozL85SfUL7MoHIvGpLsC8n1C+zKByLxvlvwjX+j5JJJJJJJJJJJJJJJJJJKBYsF/WXD6hfZlA5F41JdgXk+oX2ZQOReMiI0syTdsCg016EDWdyRGlmSbr1xWm+d/nLXdYSuySSSSTiN7JJJJWpdSSSSSB18mH+7fa+5IjJ/Uck3bAoNNehA1nckRpZkm7YFBpqOdkkkkk52c7IH+bfn31X64l/POz51LmGWsZySSAJs0C61TbskqQ5MN3oW5Ekk8Z/IkPpP1lYP86+R4H9DfXvXZJJOdnOySScP5kz31GZfnKVGtmaH1vMknznylXZZVSkMpnZOWm398Dh+OySez7/ACMDJJOXl398DASclGvarlpHKPWs+iv9mcpUa2ZofW8yZ76jMvzlM9G1iWlUDkXh+CrQPRtQtxQ45Xn8O6mXESSSSSSSSSSSTkk7JJWNySKPoP6LrN9r/R1ItxQ45F4fgq0D0bWJaVQOQgI0syTdsCg016EDWdyRGlmSbtgUGmv/ACAuJ6ZJJJJJJJJJJJJJJJKKZJBRv2grA1nckRpZkm7YFBpr0IGs7kiNLMk3bAoNNf4SENhFh56wRvelrfeEhDYRYeesE+Q/HHEIuknJJOtT81JJJJJJJJ4H8ySV579PbBvelrfeEhDYRYeesEb3pa33hIQ2EWHnrGfMme+ozL85So1szQ+t5kz31GZfnKVB/wCL9N3pkkkkh574bGSSSSSSTlFUkk85z9FfTFGtmaH1vMme+ozL85So1szQ+t5kz31GZfnKQLX/AJzrBoEoeEJhNF6zdr/znWDQJQ8ITfnDGNZ7K7ySSM6cP9hxUkkkkk5RTJJJ5z31v7U8ITCaL1m7X/nOsGgSh4QmE0XrN2v/ADnWDQJQ8zZGlmSbtgUGmvQgazuSI0syTdsCg016HN/ll5bLCZ2VhgMdixxnJOSSScppkkklee+2/b0WmvQgazuSI0syTdsCg016EDWdyRGlmSbtgUGmv5kz31GZfnKVGtmaH1vMme+ozL85So1s+HfALPXeyol1qCs17kkkkkrqrkkkkGRfdfpj45So1szQ+t5kz31GZfnKVGtmaH1vMme+ozL85S15nC3I6NscrX6L0gq0nM4W5HRtjla/RekPwNd9d8duZMbu0fnwCSTs8+K6+SSSSRVV+nt0jbHK1+i9IKtJzOFuR0bY5Wv0XpBVpOZwtyOjbHK05GlmSbtgUGmvQgazuSI0syTdsCg016EDWT8q9+1+5J263K/G5OefPjkkkkkkFSfQ/wBIK27YFBpr0IGs7kiNLMk3bAoNNehA1nckRpZkm7YFBplFjqhQWzAAZlqR3ftDY6oUFswAGZakd37Q/Ffnf3V3JJJ87+cSSSSSSSQVS2+9fV6FBbMABmWpHd+0NjqhQWzAAZlqR3ftDY6oUFswAGZfMme+ozL85So1szQ+t5kz31GZfnKVGtmaH1s+O/Cdt9WYSSd+ffNeSSSSSeAFjr6591mTPfUZl+cpUa2ZofW8yZ76jMvzlKjWzND63mTPfUZl+cpPqF9mUDkXjUl2BeT6hfZlA5F41JdgXk+oWv458f0+/wBkVyTOfKVskk8jCB2fQ/rO18n1C+zKByLxqS7AvJ9Qvsygci8akuwLyfUL7MoHIvGREaWZJu2BQaa9CBrO5IjSzJN2wKDTXoQNZ3JEaWZJjlvkfz07ROGBPMGk8VVDkarVfT/oaIDWdyRGlmSbtgUGmvQgazuSI0syTdsCg016EDWdyRGlmSbtgUGmo52SSSSTnZzskkkknOznZJJM3jg1qKtzbW81Tpv7kknOznZJJJJOdnOySSSSc7Odkkk4fzJnvqMy/OUqNbM0PreZM99RmX5ylRrZmh9bzJnvqMy/OUqNbM0PreZM99RmX5ylRrZmh9bzJnvqMy/OUqNbM0PreZM99RmX5ylRrZmh9bzJnvqMy/OUtuZM99RmX5ylRrZmh9bzJnvqMy/OUqNbM0PreZM99RmX5ylRrZmh9bzJnvqMy/OUqNbM0PreZM99RmX5ylRrZmh9bzJnvqMy/OUqNbM0PreZM99RmX5yn//EABoBAQACAwEAAAAAAAAAAAAAAAACBAEDBQb/2gAIAQIQAAAAAAAAAAAAAAAAAAAAAAAAAAAAAAAAAAAAAAAAAAAAAAAAAAAAAAAAAAAAAAAAAAAAAAAAAAAAAAAAAAAAAAAAAAAAAAAAAAAAAAAAAAAAAAAAAAAAAAAAAAAAAAAAAAAAAAAAAAAAALDENYAAAAAAA7vRn5PUAAAAAAAO1YseZ1gAAAAAADtWLHmdYAAAAAAA7Vix5nWAAAAAAMg7t/d5HUAAAAAALNhCbG5zdYMz1gAAAAOn2MabmrRu2+U1g2dHl4AAAAA6d/Cxow3+b1gv+t8PrAAAAA6d/Cxow3+c1A7XrvF8sAAAADp38LGjDf5vWD0HqOB5YAAAASy6HYxXuwqWp+Xgjg9F6bm+LiAAAAWesr2cV7CvZVrEONA7/qanimNUQAAAXunv0TxHfpxLfUnPzsDsewr87o1fM88AAAF7pWNEsY3aWbFSU/PQLfvIwPIcwAAAF7pWNEsY3aWbFSU/PQJ+2tYU/G6wAAAXulY0SxjdpZsVJT89A3+vuNPlOcAAAGxY7Ga1rFazivZlTsx4cc7vT9Lg1OfWiAAAM9u5kAANvU26vE1oAAAAl67qzAAA1VvE6wAAAyz67q5kGK1oVbQQhyvJ4lEAAAns1et6Pnb3cNXnKPrrCj5Ps96bHmZV+JLdpiAABPZlZyb7WqmZu4pErkqerFfGcNUQAAB6Hr7AABjWp+XgAAAAdru7QABqw4fFAAAAHR9LtyNcdwCEEfJ1wAAABv8AXzmOJX9GMZxjWczz0QAAABP1NvaOFX9KCOsx5amAAAADvdjZKPNsStBGGDmefgAAAACzblCvt9VIIQGvy1YAAAACe3DOfYTIwwHn+VgAAAABvD0PSxiIORxNYAAAABLfEuejAcrh6gAAAAA2zwejuBji8rSAAAAABunFu9NM5/IqawAAAAADZtLV6vS06sAAAAAABmeSMAAAAAAAAAAAAAAAAAAAAA//xAAbAQEAAgMBAQAAAAAAAAAAAAAAAwQCBQYBB//aAAgBAxAAAAAAAAAAAAAAAAAAAAAAAAAAAAAAAAAAAAAAAAAAAAAAAAAAAAAAAAAAAAAAAAAAAAAAAAAAAAAAAAAAAAAAAAAAAAAAAAAAAAAAAAAAAAAAAAAAAAAAAAAAAAAAAAAAAAAAAAAAAAAApk0wAAAAAAA47Rw/TJwAAAAAABylCn384AAAAAAA5ShT7+cAAAAAAAcnRp9/OAAAAAAPAcbpa30+cAAAAAAUKKaJ7Wb2cHkUwAAAADneUyu6yxap1Pp84IdJ0HoAAAAHPaKTKna9xo/Qpwaj5z9XmAAAAA57RSZU7XuNH6FODlvnP0/oAAAAAOe0UmVO17jR+hTg43guv7/0AAAAwxaPkstlq5L+th+kys8jiuF3f1HMAAAAocs2NFe17Y0F3Xy9dKcdwOx+peZWMwAAAafnaN/DL2jbzxp7CKHvZTmvmtzd6S/3e5AAABp+eo38MvaNvPGlsY4O8lNd8hznPo++AAABp+eo38MvaNvPGnsI4O8lIvlmvzbL6bMAAADT89Rv4Ze0beeNLYxwd5K8rfNtZ7Z+hbn0AAA8hUuTw2dBf1mWy1+Ox10nZ5+VuD0nW7Lc3cwAABjyuuwAACvoIZ/ql7P0AAAMfm/PRgAAT3vqkwAAAeMfnHPY4gv0BfoBJN0H0PLDMAAAhin+dabtNTyhY7ba/OKfm1+jcvyMb3usbvU41bOYAAEUBQFOhPs/WOqz2hhrI9nY9uZePbGYAAA4znIQHnoHs3uy72UAAAA5fkoAABNk6vqPQAAADScNB4JZKwCSRn9FuAAAACp83ijHUXOLAzlN92eYAAAAi4DXQDqrvEAymPfoGzAAAADzkeaiwy3lLCiGUw33ZSAAAAApa3HO7W+f4hJIJ+/vAAAAAR0zzz5xgey5B2e/yAAAAAUsBx+m9yyB0nVTAAAAAEdMa7jAHQdZYAAAAACvXHG60Muo6KwAAAAABVhK/Dxvdx0mxmAAAAAAIIMWv1d3aWp8gAAAAAA8ixe55+gAAAAAAAAAAAAAAAAAAAD/xAA6EAABAgYBAgQFAwMEAQQDAAADAgQAAQUQFTQUBhMHJDVEERIWIzYhJTEgMDIXM0FGIkBCQ1BRUlP/2gAIAQEAAQgAhzrmtS94Nq1qotQ/cWrW0i1M0Q2dbTi7nXNal7wbVrVRah+4tWtpFqZohs62nF3Oua1L3g2rWqi1D9xatbSLUzRDZ1tOLudc1qXvBtWtVFqH7i1a2kWpmiGzracXc65rUveDataqLUP3Fq1tItTNENnW04u51zWpe8G1a1UWofuLVraRamaIbOtpxdzrmtS94Nq1qotQ/cWrW0iOS3gpG8wFSniOoYhKF0IheS3iprQ4AlAeI6il+W73e5LeKkiZzoUDiOoYmEFoIZeS3hw3Os5lo4jqOS3gpG8wFSniOoYhKF0IheS3iprQ4AlAeI6il+W73e5LeKkiZzoUDiOoYmEFoIZeS3hw3Os5lo4jqOS3gpG8wFSniOoYhKF0IheS3iprQ4AlAeI6il+W73e5LeKkiZzoUDiOoYmEFoIZeS3hw3Os5lo4jqOS3gpG8wFSniOoYhKF0IheS3iprQ4AlAeI6il+W73e5LeKkiZzoUDiOoYmEFoIZeS3hw3Os5lo4jqOS3gpG8wFSniOoYhKF0IheS3iprQ4AlAeI6il+W73e5LeKkiZzoUDiOoYmEFoIZeS3hw3Os5lo4jqOS3gpG8wFSniOoYhKF0IheS3iprQ4AlAeI6il+W73e5LeKkiZzoUDiOoYmEFoIZeS3hw3Os5lo4jqOS3gpG8wFSniOoYhKF0IheS3iprQ4AlAeI6il+W73e5LeKkiZzoUCGu03tU9E1qLtLtXPb2ouqu1U3jWba4btdpvap6JrUXaXaue3tRdVdqpvGs21w3a7Te1T0TWou0u1c9vai6q7VTeNZtrhu12m9qnomtRdpdq57e1F1V2qm8azbXDdrtN7VPRNai7S7Vz29qLqrtVN41m2uG7Xab2qeia1F2l2rnt7UXVXaqbxrNtcN2u03tU9E1qLtLtXPb2ouquMW+gLF0EgykybGHToLsKwAxb6GYiMSKK4ybGH3n+3xcW+hkUbEShOcmxh01O7Os4MW+gL5oEQxLybGMW+gLF0EgykybGHToLsKwAxb6GYiMSKK4ybGH3n+3xcW+hkUbEShOcmxh01O7Os4MW+gL5oEQxLybGMW+gLF0EgykybGHToLsKwAxb6GYiMSKK4ybGH3n+3xcW+hkUbEShOcmxh01O7Os4MW+gL5oEQxLybGMW+gLF0EgykybGHToLsKwAxb6GYiMSKK4ybGH3n+3xcW+hkUbEShOcmxh01O7Os4MW+gL5oEQxLybGMW+gLF0EgykybGHToLsKwAxb6GYiMSKK4ybGH3n+3xcW+hkUbEShOcmxh01O7Os4MW+gL5oEQxLybGMW+gLF0EgykybGHToLsKwAxb6GYiMSKK4ybGH3n+3xcW+hkUbEShOcmxh01O7Os4MW+gL5oEQxLybGMW+gLF0EgykybGHToLsKwAxb6GYiMSKK4ybGH3n+3xcW+hkUbEShOYc65rUveDataqLUP3Fq1tItTNENnW04u51zWpe8G1a1UWofuLVraRamaIbOtpxdzrmtS94Nq1qotQ/cWrW0i1M0Q2dbTi7nXNal7wbVrVRah+4tWtpFqZohs62nF3Oua1L3g2rWqi1D9xatbSLUzRDZ1tOLudc1qXvBtWtVFqH7i1a2kWpmiGzracXc65rUveDataqLUP3Fq1tIjNNYyDcyVBThXUCZkYkS4LmmsOHCKijtBwrqAftfzd/NNYMFdSXIwcK6gT0TEcmxc01hdMO4UoyMK6jNNYyDcyVBThXUCZkYkS4LmmsOHCKijtBwrqAftfzd/NNYMFdSXIwcK6gT0TEcmxc01hdMO4UoyMK6jNNYyDcyVBThXUCZkYkS4LmmsOHCKijtBwrqAftfzd/NNYMFdSXIwcK6gT0TEcmxc01hdMO4UoyMK6jNNYyDcyVBThXUCZkYkS4LmmsOHCKijtBwrqAftfzd/NNYMFdSXIwcK6gT0TEcmxc01hdMO4UoyMK6jNNYyDcyVBThXUCZkYkS4LmmsOHCKijtBwrqAftfzd/NNYMFdSXIwcK6gT0TEcmxc01hdMO4UoyMK6jNNYyDcyVBThXUCZkYkS4LmmsOHCKijtBwrqAftfzd/NNYMFdSXIwcK6gT0TEcmxc01hdMO4UoyMK6jNNYyDcyVBThXUCZkYkS4LmmsOHCKijtBwrqAftfzd/NNYMFdSXIwYa7Te1T0TWou0u1c9vai6q7VTeNZtrhu12m9qnomtRdpdq57e1F1V2qm8azbXDdrtN7VPRNai7S7Vz29qLqrtVN41m2uG7Xab2qeia1F2l2rnt7UXVXaqbxrNtcN2u03tU9E1qLtLtXPb2ouqu1U3jWba4btdpvap6JrUXaXaue3tRdVdqpvGs21w3a7Te1T0TWou0u1c9vai6q4wcYvjffjORzuf5WMHHYxf34zkerRg47+L+xGcjg8/zUYOMpxvsRnIwcYvjffjORzuf5WMHHYxf34zkerRg47+L+xGcjg8/zUYOMpxvsRnIwcYvjffjORzuf5WMHHYxf34zkerRg47+L+xGcjg8/wA1GDjKcb7EZyMHGL4334zkc7n+VjBx2MX9+M5Hq0YOO/i/sRnI4PP81GDjKcb7EZyMHGL4334zkc7n+VjBx2MX9+M5Hq0YOO/i/sRnI4PP81GDjKcb7EZyMHGL4334zkc7n+VjBx2MX9+M5Hq0YOO/i/sRnI4PP81GDjKcb7EZyMHGL4334zkc7n+VjBx2MX9+M5Hq0YOO/i/sWc65rUveDataqLUP3Fq1tItTNENnW04u51zWpe8G1a1UWofuLVraRamaIbOtpxdzrmtS94Nq1qotQ/cWrW0i1M0Q2dbTi7nXNal7wbVrVRah+4tWtpFqZohs62nF3Oua1L3g2rWqi1D9xatbSLUzRDZ1tOLudc1qXvBtWtVFqH7i1a2kWpmiGzracXc65rUveDataqLUP3Fq1tIjNOoTUzuFJCvCtYKyExHNyLNOoCdVSVMJ8K1g/wC1/L2M06hu3RUUd02FawV4RiRTcWadRj25kpMrCtYzTqE1M7hSQrwrWCshMRzcizTqAnVUlTCfCtYP+1/L2M06hu3RUUd02FawV4RiRTcWadRj25kpMrCtYzTqE1M7hSQrwrWCshMRzcizTqAnVUlTCfCtYP8Atfy9jNOobt0VFHdNhWsFeEYkU3FmnUY9uZKTKwrWM06hNTO4UkK8K1grITEc3Is06gJ1VJUwnwrWD/tfy9jNOobt0VFHdNhWsFeEYkU3FmnUY9uZKTKwrWM06hNTO4UkK8K1grITEc3Is06gJ1VJUwnwrWD/ALX8vYzTqG7dFRR3TYVrBXhGJFNxZp1GPbmSkysK1jNOoTUzuFJCvCtYKyExHNyLNOoCdVSVMJ8K1g/7X8vYzTqG7dFRR3TYVrBXhGJFNxZp1GPbmSkysK1jNOoTUzuFJCvCtYKyExHNyLNOoCdVSVMJ8K1g/wC1/L2M06hu3RUUd00Ndpvap6JrUXaXaue3tRdVdqpvGs21w3a7Te1T0TWou0u1c9vai6q7VTeNZtrhu12m9qnomtRdpdq57e1F1V2qm8azbXDdrtN7VPRNai7S7Vz29qLqrtVN41m2uG7Xab2qeia1F2l2rnt7UXVXaqbxrNtcN2u03tU9E1qLtLtXPb2ouqu1U3jWba4btdpvap6JrUXaXaue3tRdVcYxjBmLQIiFRlH0NXR3Z0APjGMPRDYiSVtlH0MfP9zlYxjDwpGJEib5R9DVqF2FBz4xjBnzoJCCHlH0YxjBmLQIiFRlH0NXR3Z0APjGMPRDYiSVtlH0MfP9zlYxjDwpGJEib5R9DVqF2FBz4xjBnzoJCCHlH0YxjBmLQIiFRlH0NXR3Z0APjGMPRDYiSVtlH0MfP9zlYxjDwpGJEib5R9DVqF2FBz4xjBnzoJCCHlH0YxjBmLQIiFRlH0NXR3Z0APjGMPRDYiSVtlH0MfP9zlYxjDwpGJEib5R9DVqF2FBz4xjBnzoJCCHlH0YxjBmLQIiFRlH0NXR3Z0APjGMPRDYiSVtlH0MfP9zlYxjDwpGJEib5R9DVqF2FBz4xjBnzoJCCHlH0YxjBmLQIiFRlH0NXR3Z0APjGMPRDYiSVtlH0MfP9zlYxjDwpGJEib5R9DVqF2FBz4xjBnzoJCCHlH0YxjBmLQIiFRlH0NXR3Z0APjGMPRDYiSVtlH0MfP9zlYxjDwpGJEibw51zWpe8G1a1UWofuLVraRamaIbOtpxdzrmtS94Nq1qotQ/cWrW0i1M0Q2dbTi7nXNal7wbVrVRah+4tWtpFqZohs62nF3Oua1L3g2rWqi1D9xatbSLUzRDZ1tOLudc1qXvBtWtVFqH7i1a2kWpmiGzracXc65rUveDataqLUP3Fq1tItTNENnW04u51zWpe8G1a1UWofuLVraRHLdQ3cHWcKF8ZvD8QgtCEFy3UU1cznWk/GbxVfL9nsct1FMQk4FLNxm8PjFE6KgXLdQIQJgEpXGbxy3UN3B1nChfGbw/EILQhBct1FNXM51pPxm8VXy/Z7HLdRTEJOBSzcZvD4xROioFy3UCECYBKVxm8ct1DdwdZwoXxm8PxCC0IQXLdRTVzOdaT8ZvFV8v2exy3UUxCTgUs3Gbw+MUToqBct1AhAmASlcZvHLdQ3cHWcKF8ZvD8QgtCEFy3UU1cznWk/GbxVfL9nsct1FMQk4FLNxm8PjFE6KgXLdQIQJgEpXGbxy3UN3B1nChfGbw/EILQhBct1FNXM51pPxm8VXy/Z7HLdRTEJOBSzcZvD4xROioFy3UCECYBKVxm8ct1DdwdZwoXxm8PxCC0IQXLdRTVzOdaT8ZvFV8v2exy3UUxCTgUs3Gbw+MUToqBct1AhAmASlcZvHLdQ3cHWcKF8ZvD8QgtCEFy3UU1cznWk/GbxVfL9nsct1FMQk4FLNDXab2qeia1F2l2rnt7UXVXaqbxrNtcN2u03tU9E1qLtLtXPb2ouqu1U3jWba4btdpvap6JrUXaXaue3tRdVdqpvGs21w3a7Te1T0TWou0u1c9vai6q7VTeNZtrhu12m9qnomtRdpdq57e1F1V2qm8azbXDdrtN7VPRNai7S7Vz29qLqrtVN41m2uG7Xab2qeia1F2l2rnt7UXVXZzrmtS94Nq1qotQ/cWrW0i1M0Q2dbTi7nXNal7wbVrVRah+4tWtpFqZohs62nF3Oua1L3g2rWqi1D9xatbSLUzRDZ1tOLudc1qZKfODas6qI+WcUSU5ci1Z2kWpmiGzracXc65rUveDataqLUP3Fq1tItTNENnW04u51zWpe8G1a1UWofuLVraRamaIbOtpxdzrmtS94Nq1qotQ/cWrW0iOS3gpG8wFSniOoYhKF0IheS3iprQ4AlAeI6il+W73e5LeKkiZzoUDiOoYmEFoIZeS3hw3Os5lo4jqOS3gpG8wFSniOoYhKF0IheS3iprQ4AlAeI6il+W73e5LeKkiZzoUDiOoYmEFoIZeS3hw3Os5lo4jqOS3gpG8wFSniOoYhKF0IheS3iprQ4AlAeI6il+W73e5LeKkiZzoUDiOoYmEFoIZeS3hw3Os5lo4jqOS3gpG8wFSmTR18YcdS9RieOfk+ruqYX1X1MuXwV9TdQwjqrqVHx+T6u6pgXU3UpXIPnm0dQxMILQQy8lvDhudZzLRxHUclvBSN5gKlPEdQxCULoRC8lvFTWhwBKA8R1FL8t3u9yW8VJEznQoHEdQxMILQQy8lvDhudZzLRxHUclvBSN5gKlPEdQxCULoRC8lvFTWhwBKA8R1FL8t3u9yW8VJEznQoHEdQxMILQQy8lvDhudZzLRxHUclvBSN5gKlPEdQxCULoRC8lvFTWhwBKA8R1FL8t3u9yW8VJEznQoENdpvap6JrUXaXaue3tRdVdqpvGs21w3a7Te1T0TWou0u1c9vai6q7VTeNZtrhu12m9qnomtRdpdq57e1F1V2qm8azbXDdrtN7Pt95DkzJu/ZNIA5ZFd1BvGTY4adRg7pkJzTQw2MyPUnjOGu42tVN41m2uG7Xab2qeia1F2l2rnt7UXVXaqbxrNtcN2u03tU9E1qLtLtXPb2ouqu1U3jWba4btdpvap6JrUXaXaue3tRdVcYt9AWLoJBlJk2MOnQXYVgBi30MxEYkUVxk2MPvP9vi4t9DIo2IlCc5NjDpqd2dZwYt9AXzQIhiXk2MYt9AWLoJBlJk2MOnQXYVgBi30MxEYkUVxk2MPvP9vi4t9DIo2IlCc5NjDpqd2dZwYt9AXzQIhiXk2MYt9AWLoJBlJk2MOnQXYVgBi30MxEYkUVxk2MPvP9vi4t9DIo2IlCc5NjDpqd2dZwYt9AXzQIhiXk2MYt9AWLoJBlImosJfpJ7P4vnk4qf5BRYY+r9QxL8NVD71PpuKZ+SViG223idTZQ6andnWcGLfQF80CIYl5NjGLfQFi6CQZSZNjDp0F2FYAYt9DMRGJFFcZNjD7z/b4uLfQyKNiJQnOTYw6andnWcGLfQF80CIYl5NjGLfQFi6CQZSZNjDp0F2FYAYt9DMRGJFFcZNjD7z/b4uLfQyKNiJQnOTYw6andnWcGLfQF80CIYl5NjGLfQFi6CQZSZNjDp0F2FYAYt9DMRGJFFcZNjD7z/b4uLfQyKNiJQnMOdc1qXvBtWtVFqH7i1a2kWpmiGzracXc65rUveDataqLUP3Fq1tItTNENnW04u51zWpe8G1a1UWofuLVraRamaIbOtpxdzrmhP8yh3uOoqf5DRYY+r9QxL8MVD71PpuKZ+SViG+0CJxTNENnW04u51zWpe8G1a1UWofuLVraRamaIbOtpxdzrmtS94Nq1qotQ/cWrW0i1M0Q2dbTi7nXNal7wbVrVRah+4tWtpEZprGQbmSoKcK6gTMjEiXBc01hw4RUUdoOFdQD9r+bv5prBgrqS5GDhXUCeiYjk2LmmsLph3ClGRhXUZprGQbmSoKcK6gTMjEiXBc01hw4RUUdoOFdQD9r+bv5prBgrqS5GDhXUCeiYjk2LmmsLph3ClGRhXUZprGQbmSoKcK6gTMjEiXBc01hw4RUUdoOFdQD9r+bv5prBgrqS5GDhXUCeiYjk2LmmsLph3ClGRhXUZprGQbmSoKZUZ1KcPJfB67lFT/IaLDH1fqGJfhqofep9NxTPySsQ3/V2CJ0Z1AnomI5Ni5prC6YdwpRkYV1GaaxkG5kqCnCuoEzIxIlwXNNYcOEVFHaDhXUA/a/m7+aawYK6kuRg4V1AnomI5Ni5prC6YdwpRkYV1GaaxkG5kqCnCuoEzIxIlwXNNYcOEVFHaDhXUA/a/m7+aawYK6kuRg4V1AnomI5Ni5prC6YdwpRkYV1GaaxkG5kqCnCuoEzIxIlwXNNYcOEVFHaDhXUA/a/m7+aawYK6kuRgw12m9qnomtRdpdq57e1F1V2qm8azbXDdrtN7VPRNai7S7Vz29qLqrtVN41m2uG7Xab2qeia1F2lw6qVNY/JJ5V+oenSSBIecocUnqTp0Tdcl/VHTMP6/QCOyrRnKHDbqfppLcMp/VHTMZyhw3r1CS4Cqf1R0zD2clPXc5Paa6PVaa6Q1pbsT+rHVgqh9OzYQ6pTwr2jlSzproNYqDtbXcbWqm8azbXDdrtN7VPRNai7S7Vz29qLqrtVN41m2uG7Xab2qeia1F2l2rnt7UXVXaqbxrNtcN2u03tU9E1qLtLtXPb2ouquMHGL4334zkc7n+VjBx2MX9+M5Hq0YOO/i/sRnI4PP81GDjKcb7EZyMHGL4334zkc7n+VjBx2MX9+M5Hq0YOO/i/sRnI4PP81GDjKcb7EZyMHGL4334zkc7n+VjBx2MX9+PGh3J2mgwJqUvzdrHu4x7uMc7jHu4K2IKcpEFTXpkSILEVGMRUoxFSjEVGCiKFahk+SsR8lYj5KxHyViPkrENv0dNozccHn+ajBxlON9iM5GDjF8b78ZyOdz/Kxg47GL+/Gcj1aMHHVXVbfo2mLlPpzxK6ho9UO6cUp/TOpWkqmzwcZTjfYjORg4xfG+/Gcjnc/ysYOOxi/vxnI9WjBx38X9iM5HB5/mowcZTjfYjORg4xfG+/Gcjnc/ysYOOxi/vxnI9WjBx38X9iznXNal7wbVrVRah+4tWtpFqZohs62nF3Oua1L3g2rWqi1D9xatbSLUzRDZ1tOLudc1qXvBtWtVEeLf+FEijLUhrUFpXUXkqQFxIztwmosgyA8crcVRCp1F5h0OIrs5q4U5yeuWXSzMrdzUHiKvSW6WtSeEfVsSsxUfpvmQ5qLwdRooU9Q+tPIcujjqDEKAO3C3lRGrIPMLNzB3jhDqmoS2dHJUngVN9kETimaIbOtpxdzrmtS94Nq1qotQ/cQYowiIUvV3Uh+pa65frX044kyQVPTfUtV6aqUnjHpnqSm9RUsT1k62nF3Oua1L3g2rWqi1D9xatbSLUzRDZ1tOLudc1qXvBtWtVFqH7i1a2kRmnUJqZ3CkhXhWsFZCYjm5FmnUBOqpKmE+Fawf9r+XsZp1Dduioo7psK1grwjEim4s06jHtzJSZWFaxmnUJqZ3CkhXhWsFZCYjm5FmnUBOqpKmE+Fawf8Aa/l7GadQ3boqKO6bCtYK8IxIpuLNOox7cyUmVhWsZp1CamdwpIV4VrBWQmI5uRZp1ATqqSphP41sxtU0CSKRpVKF+gN4P6xTYa7dbif4+OK5/ixh3+INIefkFBhl6p1JH/T5Q89Y6cjqH1p5D31amw29Qq8S/HJw63aNDP1mow2228YZpOCvCMSKbizTqMe3MlJlYVrGadQmpncKSFeFawVkJiObkWadQE6qkqYT4VrB/wBr+XseJ/U7oHS5GsqC0k4fomqK3R5OEqcA6S6pfdM1VDxvTg06rsgVAGFaxmnUJqZ3CkhXhWsFZCYjm5FmnUBOqpKmE+Fawf8Aa/l7GadQ3boqKO6bCtYK8IxIpuLNOox7cyUmVhWsZp1CamdwpIV4VrBWQmI5uRZp1ATqqSphPhWsH/a/l7GadQ3boqKO6aGu03tU9E1qLtLtXPb2ouqu1U3jWba4btdpvap6JrUXaXaue3tRdVdqpvGs21w3a7Te1T0TWou0uPHWXwl09FJ0qlC/QG8H9YpsNdutxP8AHhxXP8WMO/xBnDz1+gwx9U6kj/p8PPWOnI6h9aeQ99WpsNfUKvH/AFycOt2jQz9ZqMNdttaqbxrNtcN2u03tU9E1qLtLtXPbx4rPJkq9PaS6YD8rMxb9Q0yQl8sXg91ZNm/nQXVmu03tU9E1qLtLtXPb2ouqu1U3jWba4btdpvap6JrUXaXaue3tRdVcYxjBmLQIiFRlH0NXR3Z0APjGMPRDYiSVtlH0MfP9zlYxjDwpGJEib5R9DVqF2FBz4xjBnzoJCCHlH0YxjBmLQIiFRlH0NXR3Z0APjGMPRDYiSVtlH0MfP9zlYxjDwpGJEib5R9DVqF2FBz4xjBnzoJCCHlH0YxjBmLQIiFRlH0NXR3Z0APjGMPRDYiSVt4wuTHRQ5kpGlUoX6A3g/rFNhrt1uJ/jw4rn+LGHf4gzh56/QYZeqdSR/wBPlDz1jpyOofWnkPfVqbDX1CrxL8cnDrdo0M/WahDfabxOpvoatQuwoOfGMYM+dBIQQ8o+jGMYMxaBEQqMo+hq6O7OgB8Yxh6IbESStso+hj5/ucrxOWifW9UQmiI+SlNZXMEZhEERcnNPe/8AhROpnVVpDF8jGMYMxaBEQqMo+hq6O7OgB8Yxh6IbESStso+hj5/ucrGMYeFIxIkTfKPoatQuwoOfGMYM+dBIQQ8o+jGMYMxaBEQqMo+hq6O7OgB8Yxh6IbESStso+hj5/ucrGMYeFIxIkTeHOua1L3g2rWqi1D9xatbSLUzRDZ1tOLudc1qXvBtWtVFqH7i1a2kWpmiGzracWr1ZZUClHqT0/jP0isJUS/1S6Zhn4sdLgcjIr/Wro+Kh4w9JuQpQjrvqql19NOkypBW6QPBmmGmTZIawtVOW6A4mPGjK8JLs0zgpaRWjAJNrITbGO6C1aOCqoxHzJ1MOGE4fnlxqJisfBZ0Yrpg4nXDCNVnRBFXTiuW55jnTRndFl2aZwJtIJjSFakmJdOE6O4kJUkGGuc/FLpmGfjJ0iFsgS/8AWvo+DeKvTCzFXL/VLpmKB4ldOV6rNqazc65rUveDataqLUP3EeJH5zXopPpjP+jqdv8AK4AeXhQ/mSm1FiqHHxm3N8O2uKYmcnwfjFa1UWofuLVraRamaIbOtpxdzrmtS94Nq1qotQ/cWrW0iOW6hu4Os4UL4zeH4hBaEILluopq5nOtJ+M3iq+X7PY5bqKYhJwKWbjN4fGKJ0VAuW6gQgTAJSuM3jluobuDrOFC+M3h+IQWhCC5bqKauZzrSfjN4qvl+z2OW6imIScClm4zeHxiidFQLluoEIEwCUrjN48RDnX0fU5LatlujyEjAOowDqMA7jAOodUk7UEzLplHcVJJpi+kX8fSL+PpF/H0i/ip0o9NUGRW1HcOAIMnAOowDqMA6jAOocgW3OsKvpJ/H0i/j6Rfx9Iv4+kX8NwLcHQFOAdRgHcYB3GAdw5o7huBZleHKlI6xp00t3B1nChfGbw/EILQhBct1FNXM51pPxm8VXy/Z7HiQJSOrni1UJcl0pv/AEdSolOnJVHTXVD/AKccOzs3niD1m7nP5zVmsOJz70nTxM/jJp1L1CzVJTdh4q9XtfhI3TfirQH50iqqUsSjQQNV8v2exy3UUxCTgUs3Gbw+MUToqBct1AhAmASlcZvHLdQ3cHWcKF8ZvD8QgtCEFy3UU1cznWk/GbxVfL9nsct1FMQk4FLNDXab2qeia1F2l2rnt7UXVXaqbxrNtcN2u03tU9E1qLtLtXPb2ouqu1U3jWba4beIP4hUoovqI4bTn8a1BpqwLacOJzzVPlDac+/Wo/WfTso6d9MrUFUv6UaTh3Of1DRpQxVPIdTQpS/pEU46p/wpcHnOVAb/AAcTnlaXKG0582sR8VfT/wAYcTnkKPFX9ScRU5zz9GlDGast1BElL+jlTh9NWS6clKmznPqOrynSvUm8N5zydWhM1fT65w5nPlUWATnmKlKG85zoDr4+Hf5fToa7Te1T0TWou0u1c9vHiyxml1Sn8ulz/ETkE71wBnDCYhA6fT+kzjplPF/ikYk/4/CULbNif5mobEnx+R7SXLVKlx0n1X1LQ3gA0qrTLMLKZYouqu1U3jWba4btdpvap6JrUXaXaue3tRdVdnOua1L3g2rWqi1D9xatbSLUzRDZ1tOLudc1qXvBtWtVFqH7i1a2kWpmiGzracW8VUfL0LVYovqI4bfzW4N6A1hx63T4bf79bj/rso6e9MrcF/EmkPPyOiwx9Q6nhX4gGOqf8KXB/wAfbw49WpUNt6sx/wBelDj1GjRV/UnEVP8AIKLDH1fqGJfhqofep9NxTPySsRSvUm8N/VKtCfx5cOduiQ39ZqcNvQHUeFP55Soc65rUveDataqLUP3EeI1AnWek3oR0p7xHgTR+k5SnKxF/PP8AT+quP5EVxh+GNAm4eErB6JKU+TatbSLUzRDZ1tOLudc1qXvBtWtVFqH7i1a2kRyW8FI3mAqU8R1DEJQuhELyW8VNaHAEoDxHUUvy3e73JbxUkTOdCgcR1DEwgtBDLyW8OG51nMtHEdRyW8FI3mAqU8R1DEJQuhELyW8VNaHAEoDxHUUvy3e73JbxUkTOdCgcR1DEwgtBDLyW8OG51nMtHEdR4plbz6HqiR0X1EcNv5rcG9Aaw49bp8Nv9+tx/wBdlHT3plbgv4k0h5+R0WGPqHU8K/EAx1T/AIUuD/j7eHHq1KhtvVmP+vQ49Ro0Vf1JxFT/ACGiwx9X6hiX4YqH3qfTcU38krEUr1NvDf1SrQn8eXDnbokN/WanDb0B1HhYqSOuqXOZSN5gKlPEdQxCULoRC8lvFTWhwBKA8R1FL8t3u9yW8eJHS0qHW1na0CrJmlLM8FJ8f/GX9VUq6RyUBv0z02/6jqSWjZlSJsGgGjal+W73e5LeKkiZzoUDiOoYmEFoIZeS3hw3Os5lo4jqOS3gpG8wFSniOoYhKF0IheS3iprQ4AlAeI6il+W73e5LeKkiZzoUCGu03tU9E1qLtLtXPb2ouqu1U3jWba4btdpvap6JrUXaXaue3tRdVdqpvGs21w28QfxCpRRfURw2/mtwb0BrDj1unw2/363H/XZR096ZW4L+JNIefkdFhj6h1PCvxAMdU/4UuD/j7eHHq1KhtvVmP+vShx6jRoq/qTiKp+QUWGPq/UMS/DFQ+9T6bimfklYilepN4b+qVaE/jy4c7dEhv6zU4begOo8O/wAvp0Ndpvap6JrUXaXbqmuUWmoDN3WPFQCJKHSKjV6tWHMiPab06tU0leFJ8P8AxT/S4qrJv8ZTe1hy5lNCemukapXyymLo+jsKMPhsYrnt7UXVXaqbxrNtcN2u03tU9E1qLtLtXPb2ouquMW+gLF0EgykybGHToLsKwAxb6GYiMSKK4ybGH3n+3xcW+hkUbEShOcmxh01O7Os4MW+gL5oEQxLybGMW+gLF0EgykybGHToLsKwAxb6GYiMSKK4ybGH3n+3xcW+hkUbEShOa91Owo1GeP4deMTU51lj/AFbawLxybDENES8dGkpR1H4iArNGdU9LByhq6SZcqtTU934TqlLmJIZzrFPUVBZpq9NTMs5O6i0Iym2BRas1YCdjPOu0KbdLeaupKOowjKR1FRkLOtOdoPGk2it1VvUJtuy3qTJLITc86xTlEGSaavTkqIqWUpfZ7MTrFOUsa5vXCXDspkr6kpBCiMRHUdGQQxE52g8bjQvqKjLWBakdSUgZiHQzOlu7EZUqxTkkIuWUpfZmGJ1enKUJU5VinSIskj1JkpkVuDpusIotZbVBYvF5qMo1x/rs1h143tjgWOCeLf8A/JXi31EhU5tal151hUZKk4C1du1zUNr0ydfwU5aU9mzl8AlJ8P0lFXqBGkgpFKvPonXn0LrNRVBHRzqkldK6K6kqc09qgeFFFbykt+OkukDQgbMRGJFFcZNjD7z/AG+Li30MijYiUJzk2MOmp3Z1nBi30BfNAiGJeTYxi30BYugkGUmTYw6dBdhWAGLfQzERiRRXGTYw+8/2+Li30MijYiUJzDnXNal7wbVrVRah+4tWtpFqZohs62nF3Oua1L3g2rWqi1D9xatbSI8RS9vpF9KGDPmOO1H07KJdOSnOUo+lZR9Kyj6VlH0rKPpWUfSso+lZR9Kyj6VlH0rKPpWUfSso+lZR9Kyj6VlH0rKPpWUfSso+lZR9Kyj6VlH0rKPpWUfSso+lZR9Kyj6VlH0rKPpWUfSso+lZR9Kyj6VlH0rKPpWUJ6WF/wC4fTVOT/kGl04P6o/iXwlBSfD9JWqLrkOylii+GtGXSWS6inw06UlP9W3hd0MD9YDRaQwaGmynOc/5pe8G1a1UWofuLVraRamaIbOtpxdzrmtS94Nq1qotQ/cWrW0iM01jINzJUFOFdQJmRiRLguaaw4cIqKO0HCuoB+1/N3801gwV1JcjBwrqBPRMRybFzTWF0w7hSjIwrqM01jINzJUFOFdQJmRiRLguaaw4cIqKO0HCuoB+1/N3801gwV1JcjB8WGRmvSnxXQJedJZH+Sf/AKgpfh+ibVd1x2apS6HoqKt1IyEZVMOdUzIwrqM01jINzJUFOFdQJmRiRLguaaw4cIqKO0HCuoB+1/N3801gwV1JcjBwrqBPRMRybFzTWF0w7hSjIwrqM01jINzJUFOFdQJmRiRLguaaw4cIqKO0HCuoB+1/N3801gwV1JcjBhrtN7VPRNai7S7Vz29qLqrtVN41m2uG7Xab2qeia1F2lx13W3PT3ThKi2YdW0rqhkA7OKLqrjxpT8ej0TigbhLS/ScrlKIKJkJ/bUpKUzUptX2h3ZAT/slKMI1EIwrbZ44IL+44dDEn/wAr1V5yXapy8OqHjKHySttcN2m0COtvEpjSjDplOqeia1F2l2rnt7UXVXaqbxrNtcN2u03tU9E1qLtLtXPb2ouquMHGL4334zkc7n+VjBx2MX9+M5Hq0YOO/i/sRnI4PP8ANRg4ynG+xGcjBxi+N9+M5HO5/lYwcPTsengLfPPELr4nVJwt27V05aOEOG1E8UzD+QVYo3iD0qQUhtvFJ/KodGOfkoU/hUJSj4Tif6fyWqU8MvuOupxJ+Mmzt66eL+Y9OrrhomQiNqxTnHw+WX6/rL+mf6frM1UpwPj87jqcCfjJu8qTx7P70MK67aSkhTauU5x8JTTOSpfFP9BTgDL5iu+pGgvjIDx+6er+Y0M6++byklYOo6eT4SIF20N/tfCf9RCDEn5iPeoWiJTSF29O7X8xWlVdtpSTIFdZk+EiVKpgS0nIHQ3TBOpK+BpOdHTL9JZJQJdiTjqZq1TNTir9f9H0+SpBrviHXKolYQfLL4TlHRHiS1eMW9ErSKNJaUql2MX9+M5Hq0YOO/i/sRnI4PP81GDjKcb7EZyMHGL4334zkc7n+VjBx2MX9+M5Hq0YOO/i/sWc65rUveDataqLUP3Fq1tItTNENnW04u51zROcpSnOc+pTs3KJtat1j4qOpTRTqrQPEGom5NT+keqYR0Z1cT4/J9D9ZQTozqxE/gsnTHUzZuVaxKJJaZink5/ypu8V/lJk7nL9OE8jhPI4TyOC8gbepC/20OuoEfxKo9RSjJ9RROodRThZq8v/ACW1qBP8+C7jgvI4TyOC8jgvI4LyBtqiKfxGh31Aj+JVLqKUTqPUU4Iaul/zmyeqn8VcF5HCeRwXkcJ5HBeRwXcIFVR/4IddQI/iVR6ilGT6hhVQ6inBT1xf+amztc/iriuY4rmOI5ibZxKU5zhn0v14CXzs5UzxXlL4SNR/EEs1SMrpHqlc/mX9D9ZRPojrGUpzn9I9Uwno7qtc/lTQweLFC+EmA+tOuFgQKrMqqh38JKofuLVraRamaIbOtpxdzrmtS94Nq1qotQ/cWrW0iM06hNTO4UkK8K1grITEc3Is06gJ1VJUwnwrWD/tfy9jNOobt0VFHdNhWsFeEYkU3FmnUY9uZKTKwrWM06hNTO4UkK8K1gzMTFE3A806gB11JcwmwzaD/tfy9jNOoAFNSRMxndBamaOAzmNbU6hr+Px+E7Bn+s5f/RLJJMTVNU/jP+iouf8A4U+FvR+YqCqo7M+MyIpuPNOoRTAHSkysM2jNOoTUzuFJCvDNoMzExRNwPNOoAddSXMJsM2g/7X8vYzTqG7dFRR3TYVrBXhGJFNxZp1GPbmSkysK1jNOoTUzuFJCvCtYKyExHNyLNOoCdVSVMJ8K1g/7X8vYzTqG7dFRR3TQ12m9qnomtRdpdq57e1F1V2qm8azbXDdrtN7VPRNai7S7Vz29qLqrt4i0zG9Z1cMmZO42HOyZ/KqU//oJ/pKFl+P6J/pduZAH+nT1CfdQVhtTmtKprOj0xrTmVU3jWba4btdpvap6JrUXaXaue3tRdVdqpvGs21w3a7Te1T0TWou0u1c9vai6q4xjGDMWgREKjKPoaujuzoAfGMYeiGxEkrbKPoY+f7nKxjGHhSMSJE3yj6GrULsKDnxjGDPnQSEEPKPoxjGDMWgREKjKPoaujuzoAfGMYeiGxEkrbKPoY+f7nKxjGHhSMSJE3yj6PGCkrKxpFclSy/BSxTsJXxl8P7dNodVqk58N70h1AzFMpP/QqJJMKUpX8/wBJSoEOa1T5DxyhKOkOl1dJMEpnlH0NWoXYUHPjGMGfOgkIIeUfRjGMGYtAiIVGUfQ1dHdnQA+MYw9ENiJJW2UfQx8/3OVjGMPCkYkSJvlH0NWoXYUHPjGMGfOgkIIeUfRjGMGYtAiIVGUfQ1dHdnQA+MYw9ENiJJW2UfQx8/3OVjGMPCkYkSJvDnXNal7wbVrVRah+4tWtpFqZohs62nF3Oua1L3g2rWqi1D9xatbSLVWiDrvSTqmr+BmrlSSJVJSZKlCZzTOU5SnKcvjL+xTGU39RaNJdd9WvGr5dCpHhz1FSQUV3kOsWbORmNTZf3pqkn+VFnP8Aj+pa0oTNSnTqZ1/NPwu6CnTRIrlUrW0i1M0Q2dbTi7nXNal7wbVrVRah+4tWtpFqZohs62nF3Oua1L3g2rWqi1D9xatbSI5bqG7g6zhQvjN4fiEFoQguW6imrmc60n4zeKr5fs9jluopiEnApZuM3h8YonRUC5bqBCBMAlK4zeOW6hu4Os4UL4zeH4hBaEILluopq5nOtJ+M3iq+X7PY5bqKYhJwKWbjN4fGKJ0VAvE2hzZ1dNTHTT/GUwzshc0z/s0Z6lhVmTpfiN087a1g9VDSqQ/rLsbRj1itu2HSKOD+5Ocpfyo3/wCs5/1rWlCZqU7dqOqOhOgySS1rdV5bqKYhJwKWbjN4fGKJ0VAuW6gQgTAJSuM3jluobuDrOFC+M3h+IQWhCC5bqKauZzrSfjN4qvl+z2OW6imIScClm4zeHxiidFQLluoEIEwCUrjN45bqG7g6zhQvjN4fiEFoQguW6imrmc60n4zeKr5fs9jluopiEnApZoa7Te1T0TWou0u1c9vai6q7VTeNZtrhu12m9qnomtRdpdq57e1F1V2qm8aK5R21apbhgd01eUx8Vs4AZJhyWmyFzTEpynL4yt8IWYKP8yVRkj+C1qf8CYOlOgzUqkdVValC7A3PXVVWFQmqlKWpSlf2pqSn+VGn/wATnOf9ghUCRNa3TpZ5/Gfhx4YrcqBWK5Wv0k2lKKLqrtVN41m2uG7Xab2qeia1F2l2rnt7UXVXaqbxrNtcN2u03tU9E1qLtLtXPb2ouquznXNal7wbVrVRah+4tWtpFqZohs62nF3Oua1L3g2rWqi1D9xatbSLUzRDbxN6UyXfqbMZyj+PbyDiMi5jIuolU3af4nVHkZB0ufwkJlV3f6Ca9DdWuvh8jLwmrxfhN3XfDhpR6cN2gYxjRJCP7cyplCiqn/acuhgl+pCHdGTKOk/DFVPAGq1yc5zih+4tWtpFqZohs62nF3Oua1L3g2rWqi1D9xatbSLUzRDZ1tOLudc1qXvBtWtVFqH7i1a2kRyW8FI3mAqU8R1DEJQuhELyW8VNaHAEoDxHUUvy3e73JbxUkTOdCgcR1DEwgtBDLyW8OG51nMtHEdRyW8FI3mAqU8R1DEJQuhELyW8VNaHAEoDxHUUvy3e73JbxUkTOdCgcR1DEwgtBDLyW8HA4W4KtHiF0Mdis1YY9F9R0xE0U2rKodEn/ADgKDEqDQpfwik0lH+AFJBL4IQ8TP9JynJX6yhy3C6bmbmqdPPTX52hf65qlL+ZlT/xMqp/xOc5/z/ZnOUvjObmoyl8UhpVJqVafJasuh+gqJ02lLpxU1ocASgPEdRS/Ld7vclvFSRM50KBxHUMTCC0EMvJbw4bnWcy0cR1HJbwUjeYCpTxHUMQlC6EQvJbxU1ocASgPEdRS/Ld7vclvFSRM50KBxHUMTCC0EMvJbw4bnWcy0cR1HJbwUjeYCpTxHUMQlC6EQvJbxU1ocASgPEdRS/Ld7vclvFSRM50KBDXab2qeia1F2l2rnt7UXVXaqbxrNtcN2u03tU9E1qLtLtXPb2ouqu1U3jWba4YWhBEKQvrfoZdMUR/T+keu1MZDY1MZBlGgg/6JTnL+EuTSiTxX/PVtLTVWkjh7yY7qI7qI70o704mVcTUqf907wIfjKbh2U3+fSXhlWK78jl42oFIoFEIzp0UXaXaue3tRdVdqpvGs21w3a7Te1T0TWou0u1c9vai6q7VTeNZtrhu12m9qnomtRdpdq57e1F1Vxi30BYugkGUmTYw6dBdhWAGLfQzERiRRXGTYw+8/2+Li30MijYiUJzk2MOmp3Z1nBi30BfNAiGJeTYxi30BYugkGUmTYw6dBdhWAGLfQzERiRRXGTYw+8/2+Li30MijYiUJzk2MOmp3Z1nBi30BfNAiGJeTYxOlvZynKfWXhW8FI1Qo/TvVlToJJjTROoaVWw/Oz/r6s6amqZKiy+P8A6AzwAf0md+YnxlLp/pKv9Qr/AG7pnwwYUQgHT3JsYdOguwrADFvoZiIxIorjJsYfef7fFxb6GRRsRKE5ybGHTU7s6zgxb6AvmgRDEvJsYxb6AsXQSDKTJsYdOguwrADFvoZiIxIorjJsYfef7fFxb6GRRsRKE5ybGHTU7s6zgxb6AvmgRDEvJsYxb6AsXQSDKTJsYdOguwrADFvoZiIxIorjJsYfef7fFxb6GRRsRKE5hzrmtS94Nq1qotQ/cWrW0i1M0Q2dbTi7nXNal7wbVrVRah+4tWtpFqZohs62nF3Hxk3NHU3Q9MrvzHRVaLW+nXiJuKH4luQySGr02rU2qC7rH+rqPpHuzI8p05TlOcp/21kQOXxWWpiT8ZDM8OSU/mo3SlerM5TaUTwzpDL5S1AQhBGgYnOua1L3g2rWqi1D9xatbSLUzRDZ1tOLudc1qXvBtWtVFqH7i1a2kWpmiGzracXc65rUveDataqLUP3Fq1tIjNNYyDcyVBThXUCZkYkS4LmmsOHCKijtBwrqAftfzd/NNYMFdSXIwcK6gT0TEcmxc01hdMO4UoyMK6jNNYyDcyVBThXUCZkYkS4LmmsOHCKijtBwrqAftfzd/NNYMFdSXIwcK6gT0TEcmxc01hdMO4UoyMK6jNNYyDcyVBThXUGo4pBXz+pPC6lnUs9Bf0qt0JzKbql+I1dZyShzT/EXp118JOGr1k8R87Wcpy/m9b6ZY1X4klU6RUKWX5HX9SlJT+qlvmqIXVJf+wj9yuU/iwpVVqpfkY03wprJCSylB6K6Jo/yrkqlnPOZUYV1GaaxkG5kqCnCuoEzIxIlwXNNYcOEVFHaDhXUA/a/m7+aawYK6kuRg4V1AnomI5Ni5prC6YdwpRkYV1GaaxkG5kqCnCuoEzIxIlwXNNYcOEVFHaDhXUA/a/m7+aawYK6kuRg4V1AnomI5Ni5prC6YdwpRkYV1GaaxkG5kqCnCuoEzIxIlwXNNYcOEVFHaDhXUA/a/m7+aawYK6kuRgw12m9qnomtRdpdq57e1F1V2qm8azbXDdrtN7VPRNai7S7Vz29qLqrtVN41m2uG7Xab2qeia1NCA5CiPXPCLpSofOVtXPCTqOmzlNq6pdXpa/mcM+reo2kpSADxL6iH/ALofFQn6d5HilTJ/5y8T6B/yXxJ6ZMNQy1SrdMlnMlOnVB/8Tqn/AOJ1Qv8AwqoOp/wt2af+bSm1J+qUmjbw46xN8k1sfCYn6Tf9O+HHRrUXdWEIQDkMVU3jWba4btdpvap6JrUXaXaue3tRdVdqpvGs21w3a7Te1T0TWou0u1c9vai6q7VTeNZtrhu12m9qnomtRdpdq57e1F1Vxg4xfG+/Gcjnc/ysYOOxi/vxnI9WjBx38X9iM5HB5/mowcZTjfYjORg4xfG+/Gcjnc/ysYOOxi/vxnI9WjBx38X9iM5HB5/mowcZTjfYjORg4xfG+/Gcjnc/ysYOOxi/vxnI9WidF/8AGcp1Lpfpec+29deG/Rh/jMcvBFg5Ekrc/ge9ROchF8I6wMi0RLwnrMf6H1yX6ql4JPJIWsgvCVnL/dY+EvTJSoEsHhF0kGAdLUCiSkYSKylCflT6tGDjv4v7EZyODz/NRg4ynG+xGcjBxi+N9+M5HO5/lYwcdjF/fjOR6tGDjv4v7EZyODz/ADUYOMpxvsRnIwcYvjffjORzuf5WMHHYxf34zkerRg47+L+xGcjg8/zUYOMpxvsRnIwcYvjffjORzuf5WMHHYxf34zkerRg47+L+xZzrmtS94Nq1qotQ/cWrW0i1M0Q2dbTi7nXNal7wbVrVRah+4tWtpFqZohs62nF3Oua1L3g2rWqi1D9xatbSLUzRDZ1tOLudc1qXvBtWtVFqH7i1a2kWpmiGzracXc65rUveDataqLUP3Fq1tItTNENnW04u51zWpe8G1a1UWofuLVraRamaIbOtpxdzrmtS94Nq1qotQ/cWrW0iznXNal7wbVrVRah+4tWtpFqZohs62nF3Oua1L3g2rWqi1D9xatbSLUzRDZ1tOLudc1qXvBtWtVFqH7i1a2kWpmiGzracXc65rUveDataqLUP3Fq1tItTNENnW04u51zWpe8G1a1UWofuLVraRamaIbOtpxdzrmtS94Nq1qotQ/cWrW0i1M0Q2dbTi7nXNal7wbVrVRah+4tWtpEf/8QARxAAAQICBgcGBAQEBgEEAgMAAQACAxEEEBIhU7FBUWKRkqLREyIxssHhBSNScTJCgpMgMFRyBhRhc4GhlCQ0UMJAYzNEs//aAAgBAQAJPwBYbsqtrymrFGRq2PWrCGZq2szViuzrw3ZVbXlNWKMjVsetWEMzVtZmrFdnXhuyq2vKasUZGrY9asIZmrazNWK7OvDdlVteU1YoyNWx61YQzNW1masV2deG7Kra8pqxRkatj1qwhmatrM1Yrs68N2VW15TVijI1bHrVhDM1bWZqxXZ14bsqtrymrFGRq2PWrCGZUaHxBRmOe6G4ABwJJI8AqPF4SobmME5ucJAXayo0PiCcIjhEBIZ3jKRvuVHi8JXy7Vmzb7s5T1qND4gmmI0QwJsFoTmdSo8XhKiNY8Tm1xkRMqND4goL3Nc9xBDSQQSqPF4So0PiCjMc90NwADgSSR4BUeLwlQ3MYJzc4SAu1lRofEE4RHCICQzvGUjfcqPF4Svl2rNm33ZynrUaHxBNMRohgTYLQnM6lR4vCVEax4nNrjIiZUaHxBQXua57iCGkgglUeLwlRofEFGY57obgAHAkkjwCo8XhKhuYwTm5wkBdrKjQ+IJwiOEQEhneMpG+5UeLwlfLtWbNvuzlPWo0PiCaYjRDAmwWhOZ1KjxeEqI1jxObXGREyo0PiCgvc1z3EENJBBKo8XhKjQ+IKMxz3Q3AAOBJJHgFR4vCVDcxgnNzhIC7WVGh8QThEcIgJDO8ZSN9yo8XhK+Xas2bfdnKetRofEE0xGiGBNgtCczqVHi8JURrHic2uMiJlRofEFBe5rnuIIaSCCVR4vCVGh8QUZjnuhuAAcCSSPAKjxeEqG5jBObnCQF2sqND4gnCI4RASGd4ykb7lR4vCV8u1Zs2+7OU9ajQ+IJpiNEMCbBaE5nUqPF4SojWPE5tcZETKjQ+IKC9zXPcQQ0kEEqjxeEqND4gozHPdDcAA4EkkeAVHi8JUNzGCc3OEgLtZUaHxBOERwiAkM7xlI33KjxeEr5dqzZt92cp61Gh8QTTEaIYE2C0JzOpUeLwlRGseJza4yImVGh8QUF7mue4ghpIIJVHi8JUaHxBRmOe6G4ABwJJI8AqPF4SobmME5ucJAXayo0PiCcIjhEBIZ3jKRvuVHi8JXy7Vmzb7s5T1qND4gmmI0QwJsFoTmdVWK3OrZzFWEcxVt+lWKchVs+UVYbcq8VudWzmKsI5irb9KsU5CrZ8oqw25V4rc6tnMVYRzFW36VYpyFWz5RVhtyrxW51bOYqwjmKtv0qxTkKtnyirDblXitzq2cxVhHMVbfpVinIVbPlFWG3KvFbnVs5irCOYq2/SrFOQq2fKKsNuVeK3OrZzFWEcxVt+lWKcgoPM1QpMY4OcZi4C8qNylPtPdKQkRORnpUHmam2GlhaD43m/Qo3KV37E7WiU/vJQeZqNh5daA8biJaFG5SmWobpSMwJyEtKg8zVEk9jQ1wkTIi4qNylQeZqhSYxwc4zFwF5UblKfae6UhIicjPSoPM1NsNLC0HxvN+hRuUrv2J2tEp/eSg8zUbDy60B43ES0KNylMtQ3SkZgTkJaVB5mqJJ7GhrhImRFxUblKg8zVCkxjg5xmLgLyo3KU+090pCRE5GelQeZqbYaWFoPjeb9CjcpXfsTtaJT+8lB5mo2Hl1oDxuIloUblKZahulIzAnIS0qDzNUST2NDXCRMiLio3KVB5mqFJjHBzjMXAXlRuUp9p7pSEiJyM9Kg8zU2w0sLQfG836FG5Su/Yna0Sn95KDzNRsPLrQHjcRLQo3KUy1DdKRmBOQlpUHmaoknsaGuEiZEXFRuUqDzNUKTGODnGYuAvKjcpT7T3SkJETkZ6VB5mpthpYWg+N5v0KNyld+xO1olP7yUHmajYeXWgPG4iWhRuUplqG6UjMCchLSoPM1RJPY0NcJEyIuKjcpUHmaoUmMcHOMxcBeVG5Sn2nulISInIz0qDzNTbDSwtB8bzfoUblK79idrRKf3koPM1Gw8utAeNxEtCjcpTLUN0pGYE5CWlQeZqiSexoa4SJkRcVG5SoPM1QpMY4OcZi4C8qNylPtPdKQkRORnpUHmam2GlhaD43m/Qo3KV37E7WiU/vJQeZqNh5daA8biJaKsN2VW15TVijI1bHrVhDM1bWZqxXZ14bsqtrymrFGRq2PWrCGZq2szViuzrw3ZVbXlNWKMjVsetWEMzVtZmrFdnXhuyq2vKasUZGrY9asIZmrazNWK7OvDdlVteU1YoyNWx61YQzNW1masV2deG7Kra8pqxRkatj1qwhmatrM1Yrs68N2VW15TVijI1bHrVhDMpkXcOqa+1EBY0kCQLrk+FvPROaWsnMNJJvuTIu4dUC1zTbJfcJC7RPWnwt56LvdpKzYv/AA65y1pkXcOqIa1osd+4zF+ietPhbz0QcXs8S28X3pkXcOqcwNiEvAJM5OvT4W89EyLuHVNfaiAsaSBIF1yfC3nonNLWTmGkk33JkXcOqBa5ptkvuEhdonrT4W89F3u0lZsX/h1zlrTIu4dUQ1rRY79xmL9E9afC3nog4vZ4lt4vvTIu4dU5gbEJeASZydenwt56JkXcOqa+1EBY0kCQLrk+FvPROaWsnMNJJvuTIu4dUC1zTbJfcJC7RPWnwt56LvdpKzYv/DrnLWmRdw6ohrWix37jMX6J60+FvPRBxezxLbxfemRdw6pzA2IS8Akzk69Phbz0TIu4dU19qICxpIEgXXJ8Leeic0tZOYaSTfcmRdw6oFrmm2S+4SF2ietPhbz0Xe7SVmxf+HXOWtMi7h1RDWtFjv3GYv0T1p8LeeiDi9niW3i+9Mi7h1TmBsQl4BJnJ16fC3nomRdw6pr7UQFjSQJAuuT4W89E5paycw0km+5Mi7h1QLXNNsl9wkLtE9afC3nou92krNi/8OuctaZF3DqiGtaLHfuMxfonrT4W89EHF7PEtvF96ZF3DqnMDYhLwCTOTr0+FvPRMi7h1TX2ogLGkgSBdcnwt56JzS1k5hpJN9yZF3DqgWuabZL7hIXaJ60+FvPRd7tJWbF/4dc5a0yLuHVENa0WO/cZi/RPWnwt56IOL2eJbeL70yLuHVOYGxCXgEmcnXp8LeeiZF3DqmvtRAWNJAkC65Phbz0TmlrJzDSSb7kyLuHVAtc02yX3CQu0T1p8Leei73aSs2L/AMOuctaZF3DqiGtaLHfuMxfonrqxW51bOYqwjmKtv0qxTkKtnyirDblXitzq2cxVhHMVbfpVinIVbPlFWG3KvFbnVs5irCOYq2/SrFOQq2fKKsNuVeK3OrZzFWEcxVt+lWKchVs+UVYbcq8VudWzmKsI5irb9KsU5CrZ8oqw25V4rc6tnMVYRzFW36VYpyFWz5RVhtyrxW51bOYqwjmKtv0qxTkFSOT3Ua12ffs2ZTs3qj8/sodi3+ac5SvVI5PdO7S13LMrPjfPTqVH5/ZfK7L9U7W7UqRye6b2lrv2p2fG6WnUqPz+yiWLf5ZTlK5Ujk91Btdn3LVqU7Nyo/P7Kkcnuo1rs+/ZsynZvVH5/ZQ7Fv8ANOcpXqkcnundpa7lmVnxvnp1Kj8/svldl+qdrdqVI5PdN7S137U7PjdLTqVH5/ZRLFv8spylcqRye6g2uz7lq1Kdm5Ufn9lSOT3Ua12ffs2ZTs3qj8/sodi3+ac5SvVI5PdO7S13LMrPjfPTqVH5/ZfK7L9U7W7UqRye6b2lrv2p2fG6WnUqPz+yiWLf5ZTlK5Ujk91Btdn3LVqU7Nyo/P7Kkcnuo1rs+/ZsynZvVH5/ZQ7Fv805yleqRye6d2lruWZWfG+enUqPz+y+V2X6p2t2pUjk903tLXftTs+N0tOpUfn9lEsW/wAspylcqRye6g2uz7lq1Kdm5Ufn9lSOT3Ua12ffs2ZTs3qj8/sodi3+ac5SvVI5PdO7S13LMrPjfPTqVH5/ZfK7L9U7W7UqRye6b2lrv2p2fG6WnUqPz+yiWLf5ZTlK5Ujk91Btdn3LVqU7Nyo/P7Kkcnuo1rs+/ZsynZvVH5/ZQ7Fv805yleqRye6d2lruWZWfG+enUqPz+y+V2X6p2t2pUjk903tLXftTs+N0tOpUfn9lEsW/yynKVypHJ7qDa7PuWrUp2blR+f2VI5PdRrXZ9+zZlOzeqPz+yh2Lf5pzlK9Ujk907tLXcsys+N89OpUfn9l8rsv1TtbtSpHJ7pvaWu/anZ8bpadVWG7Kra8pqxRkatj1qwhmatrM1Yrs68N2VW15TVijI1bHrVhDM1bWZqxXZ14bsqtrymrFGRq2PWrCGZq2szViuzrw3ZVbXlNWKMjVsetWEMzVtZmrFdnXhuyq2vKasUZGrY9asIZmrazNWK7OvDdlVteU1YoyNWx61YQzNW1masV2deG7Kra8pqxRkatj1qwhmUyFuPVNYGxCGEgGcnXJ8XeOiLi9ngHXi+5Mhbj1UmtaLc23GYu0z1p8XeOi73aTtW7/AMOqUtaZC3HqiWlpsSZcJC/TPWnxd46JrS1kpFwJN96ZC3HqnPtRAHuAIkC69Pi7x0TIW49U1gbEIYSAZydcnxd46IuL2eAdeL7kyFuPVSa1otzbcZi7TPWnxd46LvdpO1bv/DqlLWmQtx6olpabEmXCQv0z1p8XeOia0tZKRcCTfemQtx6pz7UQB7gCJAuvT4u8dEyFuPVNYGxCGEgGcnXJ8XeOiLi9ngHXi+5Mhbj1UmtaLc23GYu0z1p8XeOi73aTtW7/AMOqUtaZC3HqiWlpsSZcJC/TPWnxd46JrS1kpFwJN96ZC3HqnPtRAHuAIkC69Pi7x0TIW49U1gbEIYSAZydcnxd46IuL2eAdeL7kyFuPVSa1otzbcZi7TPWnxd46LvdpO1bv/DqlLWmQtx6olpabEmXCQv0z1p8XeOia0tZKRcCTfemQtx6pz7UQB7gCJAuvT4u8dEyFuPVNYGxCGEgGcnXJ8XeOiLi9ngHXi+5Mhbj1UmtaLc23GYu0z1p8XeOi73aTtW7/AMOqUtaZC3HqiWlpsSZcJC/TPWnxd46JrS1kpFwJN96ZC3HqnPtRAHuAIkC69Pi7x0TIW49U1gbEIYSAZydcnxd46IuL2eAdeL7kyFuPVSa1otzbcZi7TPWnxd46LvdpO1bv/DqlLWmQtx6olpabEmXCQv0z1p8XeOia0tZKRcCTfemQtx6pz7UQB7gCJAuvT4u8dEyFuPVNYGxCGEgGcnXJ8XeOiLi9ngHXi+5Mhbj1UmtaLc23GYu0z1p8XeOi73aTtW7/AMOqUtaZC3HqiWlpsSZcJC/TPXVitzq2cxVhHMVbfpVinIVbPlFWG3KvFbnVs5irCOYq2/SrFOQq2fKKsNuVeK3OrZzFWEcxVt+lWKchVs+UVYbcq8VudWzmKsI5irb9KsU5CrZ8oqw25V4rc6tnMVYRzFW36VYpyFWz5RVhtyrxW51bOYqwjmKtv0qxTkKtnyirDblXitzq2cxVhHMVbfpVinIKDzFQ5PY0uaZkyIvCjcrU+1DdOYkBOQnoUHmKFh5dZJ8biJ6VG5Wrv2JWdEp/aSg8xTrDSwOI8bzdpUblamWnunMzInIy0KDzFRZMY4taJC4C4KNytUHmKhyexpc0zJkReFG5Wp9qG6cxICchPQoPMULDy6yT43ET0qNytXfsSs6JT+0lB5inWGlgcR43m7So3K1MtPdOZmRORloUHmKiyYxxa0SFwFwUblaoPMVDk9jS5pmTIi8KNytT7UN05iQE5CehQeYoWHl1knxuInpUblau/YlZ0Sn9pKDzFOsNLA4jxvN2lRuVqZae6czMicjLQoPMVFkxji1okLgLgo3K1QeYqHJ7GlzTMmRF4Ublan2obpzEgJyE9Cg8xQsPLrJPjcRPSo3K1d+xKzolP7SUHmKdYaWBxHjebtKjcrUy0905mZE5GWhQeYqLJjHFrRIXAXBRuVqg8xUOT2NLmmZMiLwo3K1PtQ3TmJATkJ6FB5ihYeXWSfG4ielRuVq79iVnRKf2koPMU6w0sDiPG83aVG5Wplp7pzMyJyMtCg8xUWTGOLWiQuAuCjcrVB5iocnsaXNMyZEXhRuVqfahunMSAnIT0KDzFCw8usk+NxE9KjcrV37ErOiU/tJQeYp1hpYHEeN5u0qNytTLT3TmZkTkZaFB5iosmMcWtEhcBcFG5WqDzFQ5PY0uaZkyIvCjcrU+1DdOYkBOQnoUHmKFh5dZJ8biJ6VG5Wrv2JWdEp/aSg8xTrDSwOI8bzdpqw3ZVbXlNWKMjVsetWEMzVtZmrFdnXhuyq2vKasUZGrY9asIZmrazNWK7OvDdlVteU1YoyNWx61YQzNW1masV2deG7Kra8pqxRkatj1qwhmatrM1Yrs68N2VW15TVijI1bHrVhDM1bWZqxXZ14bsqtrymrFGRq2PWrCGZq2szViuzrw3ZVbXlNWKMjVsetWEMyqRF4ioz3Nc9oILiQQSoMPhChtY8Sk5oAImdYVIi8RTjEaIZMnm0JzGtQYfCF8u1atWO7OUvGSpEXiKaIjhEItPFoykLr1Bh8IURzGCUmtMgLtQVIi8RUJjnuY0kloJJI8SoMPhCpEXiKjPc1z2gguJBBKgw+EKG1jxKTmgAiZ1hUiLxFOMRohkyebQnMa1Bh8IXy7Vq1Y7s5S8ZKkReIpoiOEQi08WjKQuvUGHwhRHMYJSa0yAu1BUiLxFQmOe5jSSWgkkjxKgw+EKkReIqM9zXPaCC4kEEqDD4QobWPEpOaACJnWFSIvEU4xGiGTJ5tCcxrUGHwhfLtWrVjuzlLxkqRF4imiI4RCLTxaMpC69QYfCFEcxglJrTIC7UFSIvEVCY57mNJJaCSSPEqDD4QqRF4ioz3Nc9oILiQQSoMPhChtY8Sk5oAImdYVIi8RTjEaIZMnm0JzGtQYfCF8u1atWO7OUvGSpEXiKaIjhEItPFoykLr1Bh8IURzGCUmtMgLtQVIi8RUJjnuY0kloJJI8SoMPhCpEXiKjPc1z2gguJBBKgw+EKG1jxKTmgAiZ1hUiLxFOMRohkyebQnMa1Bh8IXy7Vq1Y7s5S8ZKkReIpoiOEQi08WjKQuvUGHwhRHMYJSa0yAu1BUiLxFQmOe5jSSWgkkjxKgw+EKkReIqM9zXPaCC4kEEqDD4QobWPEpOaACJnWFSIvEU4xGiGTJ5tCcxrUGHwhfLtWrVjuzlLxkqRF4imiI4RCLTxaMpC69QYfCFEcxglJrTIC7UFSIvEVCY57mNJJaCSSPEqDD4QqRF4ioz3Nc9oILiQQSoMPhChtY8Sk5oAImdYVIi8RTjEaIZMnm0JzGtQYfCF8u1atWO7OUvGSpEXiKaIjhEItPFoykLr6sVudWzmKsI5irb9KsU5CrZ8oqw25V4rc6tnMVYRzFW36VYpyFWz5RVhtyrxW51bOYqwjmKtv0qxTkKtnyirDblXitzq2cxVhHMVbfpVinIVbPlFWG3KvFbnVs5irCOYq2/SrFOQq2fKKsNuVeK3OrZzFWEcxVt+lWKchVs+UVYbcq8VudWzmKsI5irb9KsU5CrDdlVteU1YoyNWx61YQzNW1masV2deG7Kra8pqxRkatj1qwhmatrM1Yrs68N2VW15TVijI1bHrVhDM1bWZqxXZ14bsqh9WRqxBkUCtj1qwxmatrM1Yrs68N2VW15TVijI1bHrVhDM1bWZqxXZ14bsqtrymrFGRq2PWrCGZq2szViuzrw3ZVbXlNWKMjVsetWEMyo0PiCjMc90NwADgSSR4BUeLwlQ3MYJzc4SAu1lRofEE4RHCICQzvGUjfcqPF4Svl2rNm33ZynrUaHxBNMRohgTYLQnM6lR4vCVEax4nNrjIiZUaHxBQXua57iCGkgglUeLwlRofEFGY57obgAHAkkjwCo8XhKhuYwTm5wkBdrKjQ+IJwiOEQEhneMpG+5UeLwlfLtWbNvuzlPWo0PiCaYjRDAmwWhOZ1KjxeEqI1jxObXGREyo0PiCgvc1z3EENJBBKo8XhKjQ+IKMxz3Q3AAOBJJHgFR4vCVDcxgnNzhIC7WVGh8QThEcIgJDO8ZSN9yo8XhK+Xas2bfdnKetRofEE0xGiGBNgtCczqVHi8JURrHic2uMiJlRofEFBe5rnuIIaSCCVR4vCVGh8QUZjnuhuAAcCSSPAKjxeEr41Tm2Y0QCUUiV6/xD8Q/fcvj1PI/3yvjdN/eK+PU4T1Riv8AEPxD99y+N0584rBfGcbpqBF4SojWPE5tcZETKjQ+IKC9zXPcQQ0kEEqjxeEqND4gozHPdDcAA4EkkeAVHi8JUNzGCc3OEgLtZUaHxBOERwiAkM7xlI33KjxeEr5dqzZt92cp61Gh8QTTEaIYE2C0JzOpUeLwlRGseJza4yImVGh8QUF7mue4ghpIIJVHi8JUaHxBRmOe6G4ABwJJI8AqPF4SobmME5ucJAXayo0PiCcIjhEBIZ3jKRvuVHi8JXy7Vmzb7s5T1qND4gmmI0QwJsFoTmdSo8XhKiNY8Tm1xkRMqND4goL3Nc9xBDSQQSqPF4So0PiCjMc90NwADgSSR4BUeLwlQ3MYJzc4SAu1lRofEE4RHCICQzvGUjfcqPF4Svl2rNm33ZynrUaHxBNMRohgTYLQnM6qsVudWzmKsI5irb9KsU5CrZ8oqw25V4rc6tnMVYRzFW36VYpyFWz5RVhtyrxW51bOYqwjmKtv0qxTkKtnyirDblXitzq/qYvnK+HwXduB35ASXw6CP8q0m1Id6S+Fwbotjs5DOS+HQT/mmgzkO7NfD4LewE7dkXr+oZ56tnyirDblXitzq2cxVhHMVbfpVinIVbPlFWG3KvFbnVs5irCOYq2/SrFOQq2fKKsNuVeK3OrZzFWEcxVt+lWKcgoPM1QpMY4OcZi4C8qNylPtPdKQkRORnpUHmam2GlhaD43m/Qo3KV37E7WiU/vJQeZqNh5daA8biJaFG5SmWobpSMwJyEtKg8zVEk9jQ1wkTIi4qNylQeZqhSYxwc4zFwF5UblKfae6UhIicjPSoPM1NsNLC0HxvN+hRuUrv2J2tEp/eSg8zUbDy60B43ES0KNylMtQ3SkZgTkJaVB5mqJJ7GhrhImRFxUblKg8zVCkxjg5xmLgLyo3KU+090pCRE5GelQeZqbYaWFoPjeb9CjcpXfsTtaJT+8lB5mo2Hl1oDxuIloUblKZahulIzAnIS0qDzNUST2NDXCRMiLio3KVB5mqFJjHBzjMXAXlReUr+piecr6VhPX9WsNi+lY7PMo3KUy1DdKRmBOQlpUHmaoknsaGuEiZEXFRuUqDzNUKTGODnGYuAvKjcpT7T3SkJETkZ6VB5mpthpYWg+N5v0KNyld+xO1olP7yUHmajYeXWgPG4iWhRuUplqG6UjMCchLSoPM1RJPY0NcJEyIuKjcpUHmaoUmMcHOMxcBeVG5Sn2nulISInIz0qDzNTbDSwtB8bzfoUblK79idrRKf3koPM1Gw8utAeNxEtCjcpTLUN0pGYE5CWlQeZqiSexoa4SJkRcVG5SoPM1QpMY4OcZi4C8qNylPtPdKQkRORnpUHmam2GlhaD43m/Qo3KV37E7WiU/vJQeZqNh5daA8biJaKsN2VW15TVijI1bHrVhDM1bWZqxXZ14bsqtrymrFGRq2PWrCGZq2szViuzrw3ZVbXlNWKMjVsetWEMzVtZmrFdnXhuyqx3+ZfSsJ6/q1hsX0LHZ5qtrM1Yrs68N2VW15TVijI1bHrVhDM1bWZqxXZ14bsqtrymrFGRq2PWrCGZq2szViuzrw3ZVbXlNWKMjVsetWEMymRdw6pr7UQFjSQJAuuT4W89E5paycw0km+5Mi7h1QLXNNsl9wkLtE9afC3nou92krNi/8ADrnLWmRdw6ohrWix37jMX6J60+FvPRBxezxLbxfemRdw6pzA2IS8Akzk69Phbz0TIu4dU19qICxpIEgXXJ8Leeic0tZOYaSTfcmRdw6oFrmm2S+4SF2ietPhbz0Xe7SVmxf+HXOWtMi7h1RDWtFjv3GYv0T1p8LeeiDi9niW3i+9Mi7h1TmBsQl4BJnJ16fC3nomRdw6pr7UQFjSQJAuuT4W89E5paycw0km+5Mi7h1QLXNNsl9wkLtE9afC3nou92krNi/8OuctaZF3DqiGtaLHfuMxfonrT4W89EHF7PEtvF96ZF3DqnMDYhLwCTOTr0+FvPRMi7h1TX2ogLGkgSBdcnwt56LRSInnK+kLCev6tYbF9Cx2eZPh7z0QcXs8S28X3pkXcOqcwNiEvAJM5OvT4W89EyLuHVNfaiAsaSBIF1yfC3nonNLWTmGkk33JkXcOqBa5ptkvuEhdonrT4W89F3u0lZsX/h1zlrTIu4dUQ1rRY79xmL9E9afC3nog4vZ4lt4vvTIu4dU5gbEJeASZydenwt56JkXcOqa+1EBY0kCQLrk+FvPROaWsnMNJJvuTIu4dUC1zTbJfcJC7RPWnwt56LvdpKzYv/DrnLWmRdw6ohrWix37jMX6J60+FvPRBxezxLbxfemRdw6pzA2IS8Akzk69Phbz0TIu4dU19qICxpIEgXXJ8Leeic0tZOYaSTfcmRdw6oFrmm2S+4SF2ietPhbz0Xe7SVmxf+HXOWtMi7h1RDWtFjv3GYv0T11Yrc6tnMVYRzFW36VYpyFWz5RVhtyrxW51bOYqwjmKtv0qxTkKtnyirDblXitzq2cxVhHMKn0ajh87JixGw7UtVohfGvh5la8KTD6r4vQP/ACIfVfG/hwPaE/8AuYfVfHfhv/kw+q+MUAgy/wD7EPV918XoH/kQ+q+O/DgRDaP/AHMPqvjvw3/yYfVfF6B/5EPqvjFAAERp/wDcQ+q+O/Dv/Jh9UQQaREIIvBBeUG9nBaLczIoNsUhjhDvvv1oQ+2Me3+K6SDbNGa0RL9WpBvZxmyZI3r+oZ5qtnyirDblXitzq2cxVhHMVbfpVinIVbPlFWG3KvFbnVs5irCOYq2/SrFOQq2fKKsNuVeK3OrZzFWEcxVt+lWKcgqRye6jWuz79mzKdm9Ufn9lDsW/zTnKV6pHJ7p3aWu5ZlZ8b56dSo/P7L5XZfqna3alSOT3Te0td+1Oz43S06lR+f2USxb/LKcpXKkcnuoNrs+5atSnZuVH5/ZUjk91Gtdn37NmU7N6o/P7KHYt/mnOUr1SOT3Tu0tdyzKz43z06lR+f2Xyuy/VO1u1Kkcnum9pa79qdnxulp1Kj8/soli3+WU5SuVI5PdQbXZ9y1alOzcqPz+ypHJ7qNa7Pv2bMp2b1R+f2UOxb/NOcpXqkcnundpa7lmVnxvnp1KEGydHyaoBfLxsiaokThVEicKocThVEicKglk/C0JKhRHsPg4MmCvh8bgXw+NwL4fG4F8PjcCY5j2+LSJEL/Nb3L/N73IUve5Cl73L/ADW9yxmeYKj83soli3+WU5SuVI5PdQbXZ9y1alOzcqPz+ypHJ7qNa7Pv2bMp2b1R+f2UOxb/ADTnKV6pHJ7p3aWu5ZlZ8b56dSo/P7L5XZfqna3alSOT3TRGpEaZo7JytO6BRnUyBSYtukQH5w/pVMFl9zocpuhkXWXKkcnuoNrs+5atSnZuVH5/ZUjk91Gtdn37NmU7N6o/P7KHYt/mnOUr1SOT3Tu0tdyzKz43z06lR+f2Xyuy/VO1u1Kkcnum9pa79qdnxulp1Kj8/soli3+WU5SuVI5PdQbXZ9y1alOzcqPz+ypHJ7qNa7Pv2bMp2b1R+f2UOxb/ADTnKV6pHJ7p3aWu5ZlZ8b56dSo/P7L5XZfqna3alSOT3Te0td+1Oz43S06qsN2VW15TVijI1bHrVhDM1bWZqxXZ14bsqtrymrFGRq2PWrCGZq2szViuzrw3ZVbXlNWKMivqj5BGRaAR9wCog7R0UtJkPBP7kRgLhJPugtcYdwukonzDFLZyHgvEwyVEsv7Qicgbi4qJKHGhNdEEheTNRQWUdrzCEhdJRh2/b2bVkeCiixSIbDFEheSvqZ5QnyZEAtCSf3YTCWCQuUT5vbWZyHgn92K1pfcL5p84cMd0SWMzzVbWZqxXZ14bsqtrymrFGRq2PVPDWMYXOcfBrWiZKLuynYozPohA3BOnHlN0P0H+qfI+EaA78EVv0uT5N8IsM/jhv+lyxXZ14bsqtrymrFGRq2PWrCGZq2szViuzrw3ZVbXlNWKMjVsetWEMymQtx6prA2IQwkAzk65Pi7x0RcXs8A68X3JkLceqk1rRbm24zF2metPi7x0Xe7Sdq3f+HVKWtMhbj1RLS02JMuEhfpnrT4u8dE1payUi4Em+9Mhbj1Tn2ogD3AESBdenxd46JkLceqawNiEMJAM5OuT4u8dEXF7PAOvF9yZC3HqpNa0W5tuMxdpnrT4u8dF3u0nat3/h1SlrTIW49US0tNiTLhIX6Z60+LvHRNaWslIuBJvvTIW49U59qIA9wBEgXXp8XeOiZC3HqmsDYhDCQDOTrk+LvHRFxezwDrxfcmQtx6qTWtFubbjMXaZ60XGbo+TV9HoVjlYYX0OWOVhLF9SsBvqvoev6pYMNfUzyhagvocsdfQ1fSsdnmT4m8dE1payUi4Em+9Mhbj1Tn2ogD3AESBdenxd46JkLceqawNiEMJAM5OuT4u8dEXF7PAOvF9yZC3HqpNa0W5tuMxdpnrT4u8dF3u0nat3/AIdUpa1Ya+nRBBuuNgXvQmyELZGVTZRgJuaPzjqiXQnSbSIOiIzqFHc+HSWCIC0iXeT4u8dEyFuPVNYGxCGEgGcnXJ8XeOiLi9ngHXi+5Mhbj1UmtaLc23GYu0z1p8XeOi73aTtW7/w6pS1pkLceqJaWmxJlwkL9M9afF3jomtLWSkXAk33pkLceqc+1EAe4AiQLr0+LvHRMhbj1TWBsQhhIBnJ1yfF3joi4vZ4B14vuTIW49VJrWi3NtxmLtM9afF3jou92k7Vu/wDDqlLWmQtx6olpabEmXCQv0z11Yrc6tnMVYRzFW36VYpyFWz5RVhtyrxW51bOYqwjmKtv0qxTkKtnyirDblXitzq2cxVhHML6qRk1fR6FY5WGF9DljlYSxfUrAb6r6Hr+qWCxfUzyhagvocsdfQ1fSsdnmFWz5RVhtyrxW51bOYqwjmKtv0RugUYv/AFRCvGJFkPs2tvceZRBqdrT/AJFJJfRSfyRdLf1V4rc6tnMVYRzFW36VYpyFWz5RVhtyrxW51bOYqwjmKtv0qxTkFB5iocnsaXNMyZEXhRuVqfahunMSAnIT0KDzFCw8usk+NxE9KjcrV37ErOiU/tJQeYp1hpYHEeN5u0qNytTLT3TmZkTkZaFB5iosmMcWtEhcBcFG5WqDzFQ5PY0uaZkyIvCjcrU+1DdOYkBOQnoUHmKFh5dZJ8biJ6VG5Wrv2JWdEp/aSg8xTrDSwOI8bzdpUblamWnunMzInIy0KDzFRZMY4taJC4C4KNytUHmKhyexpc0zJkReFG5Wp9qG6cxICchPQoPMULDy6yT43ET0p85Oj5NX0ehWOVhhfQ5Y5WEsX1KwG+q+h6/qlhMX1M8oWoL6HLHX0NX0rHZ5lG5Wplp7pzMyJyMtCg8xUWTGOLWiQuAuCjcrVB5iocnsaXNMyZEXhRuVqfahunMSAnIT0KDzFCw8usk+NxE9KjcrV37ErOiU/tJCTYTYLAP0ArS0neaxNr2kFPLI1HihzHjQ5pmCo0u2hAuFkXPFzgoPMVDk9jS5pmTIi8KNytT7UN05iQE5CehQeYoWHl1knxuInpUblau/YlZ0Sn9pKDzFOsNLA4jxvN2lRuVqZae6czMicjLQoPMVFkxji1okLgLgo3K1QeYqHJ7GlzTMmRF4Ublan2obpzEgJyE9Cg8xQsPLrJPjcRPSo3K1d+xKzolP7SUHmKdYaWBxHjebtNWG7Kra8pqxRkatj1qwhmatrM1Yrs68N2VW15TVijI1bHrVhDM1bWZqxXZ1NiGBCs2hDFp3eMlB+IzcwgfJChU79oKFTpDVCCg/Ef2AoVPmHzvghNjjsDEt9o2z+OSjNZ2khf8AZU9tlr7VqYmqawGE0ACYkVTWk0gEOExdNU9tkPtWpiaiteGMIJCp7IJa4uN4mLyvicMOo7A1rZiRlrXxNhNKBDhMSbPUvirbHaW7cxNfE2A0Voa0TEnS1p7XsJbJwvBk0KmsDoQEhO4qmtJjAgiYumqe2zbtWpiaprQYAAaJi+SprC6KLxO4LwbEa4/YGahU39oKD8Qn/shQfiP7A6qFTpOeSPlBQqd+0FCpnbRQ8t7SGGN7gtFYbsqtrymrFGRq2PVYzPI1YY/gH422XfdqP/8ABGERn9sWrDdkmlA/m8pqxRkatj1qwhmatrM1Yrs68N2VW15TVijI1bHrVhDMqkReIqM9zXPaCC4kEEqDD4QobWPEpOaACJnWFSIvEU4xGiGTJ5tCcxrUGHwhfLtWrVjuzlLxkqRF4imiI4RCLTxaMpC69QYfCFEcxglJrTIC7UFSIvEVCY57mNJJaCSSPEqDD4QqRF4ioz3Nc9oILiQQSoMPhChtY8Sk5oAImdYVIi8RTjEaIZMnm0JzGtQYfCF8u1atWO7OUvGSpEXiKaIjhEItPFoykLr1Bh8IURzGCUmtMgLtQVIi8RUJjnuY0kloJJI8SoMPhCivcJwriT9YRAJBMz/oosJRYSiwlFhf9qIwgECQnpUSG3syAbU9KjwP+1Hgf9qPA/7VIgf9p7HdoCRZnoUSGA6dxmosJRYSiwlFhIglpEyPC9R4H/ajwP8AtUiB/wBqPA/7UeB/2iA5xIBPhcosL/tRYSiwlFhKJDIbqmnEGxHvH+2VGe5rntBBcSCCVBh8IUNrHiUnNABEzrCpEXiKcYjRDJk82hOY1qDD4Qvl2rVqx3Zyl4yUz20KC+f6ZL8tpu4/wfkjN/7uUGjxHx4IhntmlwbIzBAXxykMGqERDyXxSmRCfqjvKpdJB/3X9V8ZpjD/ALpOapLKUzVEm072IvopIu7Y24Nr+5MgPY4Ta9oa4EHUQvl2rVqx3Zyl4yVIi8RTREcIhFp4tGUhdeoMPhCiOYwSk1pkBdqCpEXiKhMc9zGkktBJJHiVBh8IVIi8RUZ7mue0EFxIIJUGHwhQ2seJSc0AETOsKkReIpxiNEMmTzaE5jWoMPhC+XatWrHdnKXjJUiLxFNERwiEWni0ZSF19WK3OrZzFWEcxVt+lWKchVs+UVYbcq8VudWzmKsI5irb9KsU5CrZ8oqw25Va4XnC+lyJuDkTPtz6omXZD1RNzXLF9Vh//Upzp/5k3zRMjBCJuY+X/ac6f+aN81gH0RI+Z6lEyMJqJua5Ez7dE3w2L6m5BEyLQiZCE+Sc6f8AmvGaJvhsmiZWF9bsiiboTkTPt0TeG5hEy7E+iJPf9QvojeQrFbnVs5irCOYq2/RC58N8B33YbQRva4PH2Nx/gbNxisOoABRidlnUqjtJ1u72ahsH2ATRuUGGf0hB0M7JmNxUnwx4uGj7hRjEEWK1gob+9De5x5U0CIWG2BeA6QmBVinIVbPlFWG3KvFbnVs5irCOYq2/SrFOQqw3ZVbXlNWKMjVsetWEMzVtZmrFdnXhuyq2vKasUZGrY9asIZmrazNWK7OrXC84X0uWpyxz6rCHqvpcsX1WH/8AUr+qKwWrDf6r+qKwD6LE9SsJq+l6x1hsX1NyC+lYb1/VrDYvoX1uyKwnLHWpuYWCfRfX6hYdI/8A8isN2VW15TVijI1bHqmTjwJR4P8AfDX4Dc/+0ozBr8P4z3WmbzrOpM+VRyWQJ6Yp8XfpWx61YQzNW1masV2deG7Kra8pqxRkatj1qwhmVGh8QUZjnuhuAAcCSSPAKjxeEqG5jBObnCQF2sqND4gnCI4RASGd4ykb7lR4vCV8u1Zs2+7OU9ajQ+IJpiNEMCbBaE5nUqPF4SojWPE5tcZETKjQ+IKC9zXPcQQ0kEEqjxeEqND4gozHPdDcAA4EkkeAVHi8JUNzGCc3OEgLtZUaHxBOERwiAkM7xlI33KjxeEr5dqzZt92cp61Gh8QTTEaIYE2C0JzOpUeLwlRGseJza4yImVGh8QUF7mue4ghpIIJVHi8JUVhPyrgR9YX0uWpyxz6rCHqvpcsX1WH/APUr+qKwWrDf6r+qKwD6LE9SsJq+l6x1hsWtuQX0hYT1/VrDYvoX1uyKwnLHWpuYWCfRfX6hOAAh0i8/7RUZjnuhuAAcCSSPAKjxeEqG5jBObnCQF2sqND4gnCI4RASGd4ykb7lR4vCV8u1Zs2+7OU9ajQ+IJoNAphMSEW+DHm90NOkRdCcdI+n+S4F/g548G/ZMfYHejxQJiGzqqJEZBgsDWCyV8u1Zs2+7OU9ajQ+IJpiNEMCbBaE5nUqPF4SojWPE5tcZETKjQ+IKC9zXPcQQ0kEEqjxeEqND4gozHPdDcAA4EkkeAVHi8JUNzGCc3OEgLtZUaHxBOERwiAkM7xlI33KjxeEr5dqzZt92cp61Gh8QTTEaIYE2C0JzOqrFbnVs5irCOYq2/SrFOQq2fKKsNuVeK3OrZzFWEcxVt+lWKchVs+UVYbcqtcLzhfS5anLHPqsIeq+lyxfVYf8A9Sv6orBasN/qv6orAPosT1Kwmr6XrHWGxfU3IL6QsJ6/qlhsX0L63ZFYTljrU3MLBPovr9QvojeQrFbnVs5irCOYq+IQIIbauLpu4ReqIYhx44k3gVKix4hPdboH9rRcFcPEQgb/ANX8cW076WXlfLh6h4n7lNMKiA9+kuF36dZUKTRDJc43ue6Ym5xq2/SrFOQq2fKKsNuVeK3OrZzFWEcxVt+lWKcgoPM1QpMY4OcZi4C8qNylPtPdKQkRORnpUHmam2GlhaD43m/Qo3KV37E7WiU/vJQeZqNh5daA8biJaFG5SmWobpSMwJyEtKg8zVEk9jQ1wkTIi4qNylQeZqhSYxwc4zFwF5UblKfae6UhIicjPSoPM1NsNLC0HxvN+hRuUrv2J2tEp/eSg8zUbDy60B43ES0JhjijsDuzE2lxJAlMhfA4wn/+5q+CRv3mr4BGNluO1f4djfvtXwuJCMWzJ5ihwFkzTSQARIeN6obx2n4/DvKgvMMGYbdIFUSIXtEmuumFQ3gxPxm7vKjvhi0CPCSgPiNjWbmylIAggzXwyJ2LXWgy6QO9fD4piQxJj+7NoXw6KHRgRFN3fnrvXwyJ2IdaEO6U1CewQmFsnSVGfEsz1SVEiF7BJjrphUN4dE/Gbu8qC/s5zsXSmqG8uhiTDdcmkBxFx8bgqBFdEhjuPNmYXw6KHxQREddNy+GROxtWuzulPevh0UuggCGbptlqvVAitixBJ7xZmU0lrXEkDxvCobw54k83Xqgv7Oc7F0pqhvJh/gN3dVEeHvEnOumQqM+Hb+0lAdGEIPFgOsk22lq+BxjZcDLtmr/D0f8AfavgEYT/AP3tXwMfrj9GqiUOASJTk56+N0hrHeLIJEFvIoUSK4+LrzvJUVsMfS29yhAHS83uKN9RFt0yZidwQhH9KbCH6VGDfs0KPEiE+DZk/wDQVAdBh4sf5bFS/wDP0v8AJBALIKo7WsaJNa0tAAGoBNsNLC0HxvN+hRuUrv2J2tEp/eSg8zUbDy60B43ES0KNylMtQ3SkZgTkJaVB5mqJJ7GhrhImRFxUblKg8zVCkxjg5xmLgLyo3KU+090pCRE5GelQeZqbYaWFoPjeb9CjcpXfsTtaJT+8lB5mo2Hl1oDxuIloqw3ZVbXlNWKMjVsetWEMzVtZmrFdnXhuyq2vKasUZGrY9asIZlfniQWc80+z3SZyn4Kl8nuqXye6pp/b91TT+37qm8nuqaf2/dU3k91TT+37qm8nuqbye6pp/b91TT+37qmn9v3VN5PdU3k91TeT3VN5PdU0/t+6pp/b91TT+37qmn9v3VN5PdU3k91TeT3VN5PdU3k91TT+37qmn9v3VNP7fuqbye6pvJ7qm8nuqaf2/dU3k91TT+37qmn9v3VNP7fuqY//AIaAnRX/AHdLJUWHPWRazVwq8a72i5v2Chx/82+GHxbMQtALrwFBpJ+8Yr4OyJ/uPe9fDqNRwIbpdnDa0m7WEVteU1YoyNWx61YQzNW1masV2deG7Kra8pqxRkatj1qwhmUyLuHVNfaiAsaSBIF1yfC3nonNLWTmGkk33JkXcOqBa5ptkvuEhdonrT4W89F3u0lZsX/h1zlrTIu4dUQ1rRY79xmL9E9afC3nog4vZ4lt4vvTIu4dU5gbEJeASZydenwt56JkXcOqa+1EBY0kCQLrk+FvPROaWsnMNJJvuTIu4dUC1zTbJfcJC7RPWnwt56LvdpKzYv8Aw65y1pkXcOqIa1osd+4zF+ietPYQabBCwjnVr/8AiPGsyfE7rfUphNGgOEekf2svDf1FOYGxCXtBJmAbwnwt56JkXcOqa+1EBY0kCQLrk+FvPROaWsnMNJJvuTIu4dUC1zTbJfcJC7RPWnwt56LvdpKzYv8Aw65y1pkXcOqIa1osd+4zF+ietPhbz0QcXs8S28X3pkXcOqcwNiEvAJM5OvT4W89EyLuHVNfaiAsaSBIF1yfC3nonNLWTmGkk33JkXcOqBa5ptkvuEhdonrT4W89F3u0lZsX/AIdc5a0yLuHVENa0WO/cZi/RPXVitzq2cxVhHMVbfpVinIVbPlFWG3KvFbnVs5irCOYRb2sKPBk13hEm6RYokojLXbUd344ZqxTkFop8FYJzH8L2saNJ/mEBoEyTcAu62cobz4O/lPDWNF5KFgz+Va/OP5jw0EgWjrP8B+XD7rfUpkqRTSIh1iH+QLDblXiNzUZkWluisZHii9kBpN/6ls5irCOYq2/SrFOQq2fKKsNuVeK3OrZzFWEcxVt+lWKcgqRye6jWuz79mzKdm9Ufn9lDsW/zTnKV6pHJ7p3aWu5ZlZ8b56dSo/P7L5XZfqna3alSOT3Te0td+1Oz43S06lR+f2USxb/LKcpXKkcnuoNrs+5atSnZuVH5/ZUjk91Gtdn37NmU7N6o/P7KHYt/mnOUr1SOT3VLhiEBZJebA13eM1DdCoEB5cwHxiv+sqO+FFYZtewyIVEMVv8AUQLn/qYviUEucbVmMewcDqk9MbJlIgPtNeHfmWmG6ogKlQ5y8AbR3BQC4/U+4blELtTfBo+wTe1hDwH5m/YqO1rvpf3Sr/4iB91Soc9TTaP/AEoDnnW/uhRO7oYLm1fNhj8rjePsVF7J30xLkQRrBn/DFYwbRATTGdr8Gp8wPBguaKiIzBod471bhH/UTG8KkQn/AGcJ/wAcRjBrcQETFP8ApcN6Nw8GjwCIez6XehQdDP8AreFGY98TuiyZyGkoEUaF82kv1MGj9SjyA0BlwGoXqAT2YsWpynZun4J0CC0eJiRmszXxF9OifRR4cxxkgKVCo5/LDM4h+76o7YEVoDIdLee48Dwt6nKkggiYIbP1Tu0tdyzKz43z06lR+f2Xyuy/VO1u1Kkcnum9pa79qdnxulp1Kj8/soli3+WU5SuVI5PdQbXZ9y1alOzcqPz+ypHJ7qNa7Pv2bMp2b1R+f2UOxb/NOcpXqkcnundpa7lmVnxvnp1Kj8/svldl+qdrdqVI5PdN7S137U7PjdLTqqw3ZVbXlNWKMjVsetWEMzVtZmrFdnXhuyWhfAPitMeJyDINhpu1vX+E41Cb9Zh9tEXw34nHfO50UTAXwSmcC+A0136F/h6ncC+A0wHUWL4TTIcFjS6JdJoAvmUXBxuBBkb06PvKhxD971R37lR4m5Ud+5Ud+5Ud+5Mjs/tJCfH/AOQCrR+8Nqaf22oxB9mNCiUnJQozvveqO/cqPE3KjxNyo8TcqO/cqO/cocZn9tyfH/5AOaDv22q2PtDan0jLJQIhOs3qjxNyo8TcqPE3Kjv3KjxNyoz9yFIb9iVEj/8AIBVs/eG1NP7bUXj7MaFEpGShRHHWb1BeoL1BeoTgALzV8K+KQrf5oU2WlC+PcblRvi7jO+09y+C01x1lsyv8O07gX+HqdwL4JTOBfAqYSdFhUD4k2FgvhiJD3Ff4LpVzge0gXcr1QadR3fTHglvMJhbHrVhDM1bWZqxXZ14bsqtrymrFGRq2PWrCGZTIW49U1gbEIYSAZydcnxd46IuL2eAdeL7kyFuPVSa1otzbcZi7TPWnxd46LvdpO1bv/DqlLWmQtx6olpabEmXCQv0z1p8XeOia0tZKRcCTfemQtx6pz7UQB7gCJAuvT4u8dEyFuPVNYGxCGEgGcnXJ8XeOic4vZ4B14vuTIW49VJrWi3NlxmLtM9aiRd46LvdpOdu/8OqUtaZC3HqiWuabADLhIX6Z60+JKJCewzI/MJISdBiljvuwy/8AhfH+I/39Ew/5OiOlDGJG6NQaWs8C6ZN96ZC3HqnvDogtkAiU3X3KJF3jomQtx6psMNiEMJAM5OuUSLvHROcXs8A68X3JkLceqk1rRbmy4zF2metRIu8dF3u0nat3/h1SlrTIW49US0tNiTLhIX6Z60+LvHRNaWslIuBJvvTIW49U59qIA9wBEgXXp8XeOiZC3HqmsDYhDCQDOTrk+LvHRFxezwDrxfcmQtx6qTWtFubbjMXaZ60+LvHRd7tJ2rd/4dUpa0yFuPVEtLTYky4SF+meurFbnVs5irCOYq2/SrFOQq2fKKsNuVeK3OrZzFWEcxVt+lWKchUO5FiCOz7RhaXiBI/8f/E/jP4QgbcV04kTRDZpeUwNgwGBo1nWT/qVs+UVYbcq8VudWzmKsI5irb9KsU5CrZ8oqw25V4rc6tnMVYRzFW36VYpyCg8xUOT2NLmmZMiLwo3K1PtQ3TmJATkJ6FB5ihYeXWSfG4ielRuVq79iVnRKf2koPMU6w0sDiPG83aVG5Wplp7pzMyJyMtCg8xUWTGOLWiQuAuCjcrVB5iocnsaXNMyZEXhRuVqfahunMSAnIT0KDzFCw8usk+NxE9KjcrV37ErOiU/tJQeYp1hpYHEeN5u0qNytQm+06jx3eRabxXo/l0Vz2gyLyQ1m8qh22ATJhuDyP/wrz/GbgobokWI8Nhw2iZJNwATmmnUljX0l4AMtUNp1BRuVqZae6czMicjLQoPMVFkxji1okLgLgo3K1QeYqHJ7GlzTMmRF4Ublan2obpzEgJyE9Cg8xQsPLrJPjcRPSo3K1d+xKzolP7SUHmKdYaWBxHjebtKjcrUy0905mZE5GWhQeYqLJjHFrRIXAXBRuVqg8xUOT2NLmmZMiLwo3K1PtQ3TmJATkJ6FB5ihYeXWSfG4ielRuVq79iVnRKf2koPMU6w0sDiPG83aasN2VW15TVijI1bHrVhDM1bWZqxXZ14bsqtrymrFGRq2PWrCGZq8Y0J9g6ngktO9NLYkKIWvadBaZEI3ETH8wy7WKGk6hpUV1EolEAZEMI2XPevi1mlNjufE/wAxFJNjRYtKXYU+FbEhIF1xn/PKuH8ZkB4q5g/CFB/9XEZ/6WC4XwWH8xH1FYQzNW1masV2deG7Kra8pqxRkatj1qwhmatrM1Yrs68N2VW15TVijI1bHrVhDMqkReIqM9zXPaCC4kEEqDD4QobWPEpOaACJnWFSIvEU4xGiGTJ5tCcxrUGHwhfLtWrVjuzlLxkqRF4imiI4RCLTxaMpC69QYfCFEcxglJrTIC7UFSIvEVCY57mNJJaCSSPEqDD4QqRF4ioz3Nc9oILiQQSoMPhChtY8Sk5oAImdYVIi8RTjEaIZMnm0JzGtQYfCF8u1atWO7OUvGSpEXiKaIjhEItPFoykLr1Bh8IURzGCUmtMgLtQTflU4m3/vDqjeL21+H8n8MOKC7+03FQ3RaDTJRRFYJhjiLwVAdEe8yLgO6wfU46AE8PFAo4a87RAH80/yTIBXMHgPUqEQxxtUSjuG6I9UiLxFNERwiEWni0ZSF16gw+EKI5jBKTWmQF2oKkReIqExz3MaSS0EkkeJUGHwhUiLxFRnua57QQXEgglQYfCFDax4lJzQARM6wqRF4inGI0QyZPNoTmNagw+EL5dq1asd2cpeMlSIvEU0RHCIRaeLRlIXXqDD4QojmMEpNaZAXagqRF4ioTHPcxpJLQSSR4lQYfCFSIvEVGe5rntBBcSCCVBh8IUNrHiUnNABEzrCpEXiKcYjRDJk82hOY1qDD4Qvl2rVqx3Zyl4yVIi8RTREcIhFp4tGUhdfVitzq2cxVhHMVbfpVinIVbPlFWG3KvFbnVs5irCOYq2/SrFOQq2fKFcIgmx/0PHg5MMOPAfJwOf2K0+I1Gvw/hiMb9yFELv7QoP/AC4poBDpGXgnMiwMKKJgfZUejUQO8XQm3pxc5xmSbySf5ZQ/kmQVzB4NUAiECH0aiP8Az6nxEJDvSG6rFOQq2fKKsNuVeK3OrZzFWEcxVt+lWKchVs+UVYbcq8VudWzmKsI5irb9KsU5CrDdlVteU1YoyNWx61YQzNW1masV2deG7Kra8pqxRkatj1qwhmatrM1Q50qjl4iMHjFhA5tUQtnqUfJRhuCijcFGG4KkZKlPJ1A9FRKZFnqhvK+DRmjXELYY5lTaHRxqaTFcqVGpNl4EaYDAAfAgBNDWjQP5l6u/lXu0NCa573ENYxomSToAUNppBcDBoniIemb9bqtj1qwhmatrM1Yrs68N2VW15TVijI1bHrVhDM1bWZqxXZ14bsqtrymrFGRq2PWrCGZUaHxBRmOe6G4ABwJJI8AqPF4SobmME5ucJAXayo0PiCcIjhEBIZ3jKRvuVHi8JXy7Vmzb7s5T1qND4gmmI0QwJsFoTmdSo8XhKiNY8Tm1xkRMqND4goL3Nc9xBDSQQSqPF4So0PiCjMc90NwADgSSR4BUeLwlQ3MYJzc4SAu1lRofEE4RHCICQzvGUjfcqPF4Svl2rNm33ZynrUaHxBNMRohgTYLQnM6lR4vCVEax4nNrjIiZUaHxBQXuaYji0hpIIJVFeKK4zpMMNuhO+r+0qi0V8M3QKREhMNk/Q8kL4RQf2IfRfCKD+yxfCKD+wxfDKG37QGD0UKEBqDAES1GdTZw4rC1w/wBChfDdcfqbod/IIV6kEf5d5+rooLo0Vx7xNzWD6nuNwCpECk/ESL4xIsw/9sJwiOEQEhneMpG+5UeLwlfLtWbNvuzlPWo0PiCaYjRDAmwWhOZ1KjxeEqI1jxObXGREyo0PiCgvc1z3EENJBBKo8XhKjQ+IKMxz3Q3AAOBJJHgFR4vCVDcxgnNzhIC7WVGh8QThEcIgJDO8ZSN9yo8XhK+Xas2bfdnKetRofEE0xGiGBNgtCczqVHi8JURrHic2uMiJlRofEFBe5rnuIIaSCCVR4vCVGh8QUZjnuhuAAcCSSPAKjxeEqG5jBObnCQF2sqND4gnCI4RASGd4ykb7lR4vCV8u1Zs2+7OU9ajQ+IJpiNEMCbBaE5nVVitzq2cxVhHMVbfpVinIVbPlFWG3KvFbnVs5irCOYq2/SrFOQq2fKKsNuSaHNcCHNImCDoKhl9BcZxIYvMDqxPL6LcIcfxdCGo62p7XseJte0zBGsfwkhOn90wKEf81ABs7bNLUCFNAoFNqP802nfSEZN+kIOoVB+pw+bE/saqM2Ezulx8XvMxe46TVhHMVbfpVinIVbPlFWG3KvFbnVs5irCOYq2/SrFOQq2fKKsNuVeK3OrZzFWEcxVt+lWKcgoPM1QpMY4OcZi4C8qNylPtPdKQkRORnpUHmam2GlhaD43m/Qo3KV37E7WiU/vJQeZqNh5daA8biJaFG5SmWobpSMwJyEtKg8zVEk9jQ1wkTIi4qNylQeZqhSYxwc4zFwF5UblKfae6UhIicjPSoPM1NsNLC0HxvN+hRuUrv2J2tEp/eSg8zUbDy60B43ES0KNylMtQ3SkZgTkJaVB5mqJJ7GhrhImRFxUblKgTBEiCWkFUbuAF0aiAi7/bU4tGtfMoz9H9v0lRu+BN8F10Rn8iH/AKx4Q87f/wAF03fSEbDf9FQy6EDJ0d5sQm/qKgilx2EOdEfKwwD6WKNylPtPdKQkRORnpUHmam2GlhaD43m/Qo3KV37E7WiU/vJQeZqNh5daA8biJaFG5SmWobpSMwJyEtKg8zVEk9jQ1wkTIi4qNylQeZqhSYxwc4zFwF5UblKfae6UhIicjPSoPM1NsNLC0HxvN+hRuUrv2J2tEp/eSg8zUbDy60B43ES0KNylMtQ3SkZgTkJaVB5mqJJ7GhrhImRFxUblKg8zVCkxjg5xmLgLyo3KU+090pCRE5GelQeZqbYaWFoPjeb9CjcpXfsTtaJT+8lB5mo2Hl1oDxuIloqw3ZVbXlNWKMjVsetWEMzVtZmrFdnXhuyq2vKasUZGrY9asIZmrazNWK7OvDdkpUam4zRc/wD3AmRIDw75VIhk2Xf2uCgmMzHh3P8A1DSqXDjDSAZOH3abx/GyT/GJAGn/AFYgQQZEG4j+Y8N+6aXHWbgn2W6hcFQ3CFjxe5DTzTY30yswh1UNrGNEmtaAABqACw3ZVbXlNWKMjVsetWEMzVtZmrFdnXhuyq2vKasUZGrY9asIZmrazNWK7OvDdlVteU1YoyNWx61YQzKZF3DqmvtRAWNJAkC65Phbz0TmlrJzDSSb7kyLuHVAtc02yX3CQu0T1p8Leei73aSs2L/w65y1pkXcOqIa1osd+4zF+ietPhbz0QcXs8S28X3pkXcOqcwNiEvAJM5OvT4W89EyLuHVNfaiAsaSBIF1yfC3nonNLWTmGkk33JkXcOqBa5ptkvuEhdonrT4W89F3u0lZsX/h1zlrTIu4dUQ1rRY79xmL9E9afC3nog4vZ4lt4vvTIu4dU5gbEJeASZydenwt56JkXcOqa+1EBY0kCQLrk+FvPRQoMejSlEhEWwZ3eDgo76O7+mjXw/0u8QqNHosRp7sZswP0vahDpkMfX3YnEE6LRHnEbaZxNVLgxm64bw7JD+D5NJ0RQLnf3BQSAfwxBex32P8AG4D7lRJ/23qEf1FPsj/S5UGk0p5w2F28qkQ6E24ljZRoqoEWlR8akSfuHgE6GGP7zASbgbwE+FvPRMi7h1TX2ogLGkgSBdcnwt56JzS1k5hpJN9yZF3DqgWuabZL7hIXaJ60+FvPRd7tJWbF/wCHXOWtMi7h1RDWtFjv3GYv0T1p8LeeiDi9niW3i+9Mi7h1TmBsQl4BJnJ16fC3nomRdw6pr7UQFjSQJAuuT4W89E5paycw0km+5Mi7h1QLXNNsl9wkLtE9afC3nou92krNi/8ADrnLWmRdw6ohrWix37jMX6J60+FvPRBxezxLbxfemRdw6pzA2IS8Akzk69Phbz0TIu4dU19qICxpIEgXXJ8Leeic0tZOYaSTfcmRdw6oFrmm2S+4SF2ietPhbz0Xe7SVmxf+HXOWtMi7h1RDWtFjv3GYv0T11Yrc6tnMVYRzFW36VYpyFWz5RVhtyrxW51bOYqwjmKtv0qxTkKtnyirDblXitzq2cxVCZEhGEbTHgOabx4gpkSgRTgmbOAqNApsMzlI9nE3OVCpNGcPzlpbzBfF45H0vIijnmoVEjfoLDylfB2/oir4XSm/Z7HKiU/gZ1VCpr2O8WuhQyPOoNOhOwntaWf8ABtEhQnbwoO8qGwJzR9go53yVBpNIJw4bnr4b/l2u0x3hi+KtGtkBnq5fDv8AMxWvufSHGJy+ChMhsHg1gDQP+AtnyirDblXitzq2cxVhHMVbfpVinIVbPlFWG3KvFbnVs5irCOYq2/SrFOQq2fKKsNuVeK3OrZzFWEcxVt+lWKcgqRye6jWuz79mzKdm9Ufn9lDsW/zTnKV6pHJ7p3aWu5ZlZ8b56dSo/P7L5XZfqna3alSOT3Te0td+1Oz43S06lR+f2USxb/LKcpXKkcnuoNrs+5atSnZuVH5/ZUjk91Gtdn37NmU7N6o/P7KHYt/mnOUr1SOT3Tu0tdyzKz43z06lR+f2Xyuy/VO1u1Kkcnum9pa79qdnxulp1Kj8/soli3+WU5SuVI5PdQbXZ9y1alOzcqPz+ypHJ7qNa7Pv2bMp2b1R+f2UOxb/ADTnKV6pHJ7p3aWu5ZlZ8b56dSo/P7L5XZfqna3alSbtRZdmvgdEpD3C32gYITt7FQ6VR/8AbpBlzgr45SYQOiJCbEysr4/BP90AjIr4tQjZJH4Hr4pQuF6+M0Ifoevj0G4E3QCvjUd39kJrcyVSae8nSYjRk1UcxP8AcLnL4TQjfZHyWgg65maooH6vZfK7L9U7W7UqRye6b2lrv2p2fG6WnUqPz+yiWLf5ZTlK5Ujk91Btdn3LVqU7Nyo/P7Kkcnuo1rs+/ZsynZvVH5/ZQ7Fv805yleqRye6d2lruWZWfG+enUqPz+y+V2X6p2t2pUjk903tLXftTs+N0tOpUfn9lEsW/yynKVypHJ7qDa7PuWrUp2blR+f2VI5PdRrXZ9+zZlOzeqPz+yh2Lf5pzlK9Ujk907tLXcsys+N89OpUfn9l8rsv1TtbtSpHJ7pvaWu/anZ8bpadSo/P7KJYt/llOUrlSOT3UG12fctWpTs3Kj8/sqRye6jWuz79mzKdm9Ufn9lDsW/zTnKV6pHJ7p3aWu5ZlZ8b56dSo/P7L5XZfqna3alSOT3Te0td+1Oz43S06qsN2VW15TVijI1bHrVhDM1bWZqxXZ14bsqtrymrFGRq2PWrCGZq2szViuzrw3ZVbXlNWKMjVsetWEMzVtZmrFdnXhuyq2vKasUZGrY9asIZmrazNWK7OvDdlVteU1YoyNWx61YQzNW1masV2deG7Kra8pqxRkatj1qwhmatrM1Yrs68N2VW15TVijI1bHrVhDM1YbsqtrymrFGRq2PWrCGZq2szViuzrw3ZVbXlNWKMjVsetWEMzVtZmrFdnXhuyq2vKasUZGrY9asIZmrazNWK7OvDdlVteU1YoyNWx61YQzNW1masV2deG7Kra8pqxRkatj1qwhmatrM1Yrs68N2VW15TVijI1bHrVhDM1bWZqxXZ14bsqtrymrFGRq2PWrCGZX//EAEgRAAEDAgAGDAwFAgYDAQAAAAEAAgMEEQUSITFBURATFBUgMjM0cXN0siJAQlBTVGGBkaKzwUNScqGxMMIjJIOEktFEYGKQ/9oACAECAQE/AP8A9OLN1BWbqCs3UFIALeb8GujayZzo2v8ACjAv/wDRsjUQBpO5WZGyHMPINkJIDIGbmZygZew0txlJo830XJS9bD3k/k39XUd5N5y3tDfpqTR5vouSl62HvJ/Jv6uo7ybzkdob9NSaPN9FyUvWw95P5N/V1HeTect7Q36ak0eabHUrHUVY6irHUVY6irHUVg2J8rJmtzh8R+BunUU5Y4WblZMM/wCc3CFLMJg+wttwd7gzFUmjzTCx77NY0knQFuSq9BJ8FuSq9BJ8EIJy8sETi4DK22ULclX6vJ8FuSr9Xk+CjjqbvEbZLg2cGrasIfkn/dbVhD8s/wC6k0cMC5AT26fMODCRUMI0Nf8AwU2rnIb4ecQaPz506rqAxxx/IlObS11gjI9lZWvabOEFwfgt0z7bi42Tbi3NoxLptXUFrDj52QnNpebFQyPjmrS02JqGj3FxCdV1AY44+ZkxzfkNgm1MxmDcbJtwbm0Fl1Jo4cYylVtE+m2sOyh7B7jpCIsfMGDuXZ+l/dKZxWdFMncm7qp++pOcV/Z/sF+P/uD9NN4kfV0/eTOUrO0s75T+I/q6jvJvOB2hv01Jo4dBHtlRC3W8X6Aq+n3RTPb5Qyt6QpBmPmDB3Ls/S/ulM4rOimTuSd1U/fUnOK/s/wBgvx/9wfppvEj6un7yZylZ2lnfKfxH9XUd5N5w3tDfpqTRw8DNvVsOprjsYTg2qplaBkPhD3+YMG8uz9L+6Uzis6KZO5N3VT99Sc4r+z/YL8f/AHB+mm8SPq6fvJnKVnaWd8p/Ef1dR3k3nDe0N+mpNHDwGP8AMP6r7jYw3Fkhk6Wn+Qj44Gkra3exbW5YPLGVDMdwaLOBPSEBQgAbqGQR6R+Gi2hLSN1DK14zjyzdB1O+tqg6YBj4sUO+CvQ4+NutvHL8+tuKg2hAA3WMjWDOPIN1Tup3TVePKGgzBzTrs4lFtCQRuoZWvGceWboGiEgfupvHDs+puKntJtZbW5bW72IgjgYD5aTq9jCzMaiefylp/eyfxj45TsMjmsGdzrLeeo9JH+63nqPSRo0EoqWQY7cZzbg6FvNUekjW81R6SNNoJXVL4A5uMwXJ0Leeo9JGt56j0kagoJZnzMa5oMbrG63mqPSRreao9JGqaglqWF7HtADrZVvPUekjUmCp2Me8yMs0En3KTPwMBn/MOGuL7jYrxejqP0E/BFovdWGpFrSnNI8ZoOcwdY1OJ2p2U8jL30SduOU8u/6aj5zS9l/tKYTix5Tmpv5TidrdlPJT99S85r+o+wVzt2c8ufpppOIzKeTp+8o+UrO0x98p5O1vynk6jvJpO6BlPOG/TVFyMXaD3E0na25TyUHfRJ8PKeLUqTjcDA78Wri9ocNiqY59NMxou5zCB71TYLgiAMgx3/sEGtAsGgDoU9DTTjKwNdoc3IVVUz4JDG/pB1jxmg5zB1rU7kXdTL30eWPXv+mo+c0nZf7So+LH0U38p3Ju6qfvqXnNf2f7Bfjf65+mm8RnV0/eUfKVnaY++U/k39XUd5N5y3tDfpqi5GHtB7ibybeqg76Pl9FSpONwKSXa5Y3/AJXg7DjwMJTbbUSkZh4I93jNBziDrWp3Iu6mXvo8sevf9NR85pey/wBpUfFj6Kb+U7k3dVP31Lzmv7P9gvxv9c/TTeIzq6fvKPlKztMffKfyb+rqO8m85b2hv01RcjF2g9xN5NvVQd9Hy+ipUnG4EZyrBs+3UrPzN8F3uTjc7NdUiCBxB8J2RqkOYeM0HOIOtanci7qZe+jyx69/01Hzmk7L/aVHxY+im/lO5N3VT99S85r+z/YL8b/XP003iM6un7yj5Ss7TH3yn8m/q6jvJvOW9ob9NUXJRdoPcTeTb1UHfR8voqVJn2QCUxliNJWD6Q0sBLuUfYu9ns2Z6iKBmNI62oaSquqfPIZHZBmaNQR8WC2v2ra/aqZwhljebkNeCt8KG1tyutYjRmJuVvlRXvuZ9730ZyLI1kG64pRE4RtZi4vuIQwlQC1qV3k6vJzLfGgtbcrsxGjyjcoVsG65pXROLHsxcX4LfKivfcz73voz2shhGh9VdmGrycyp62COWodJE5wkeHAarElb40BBG5XZiNHlZ1vnRXvuZ973vkz2sqOsggjxZInOOOXAjRkst8KGwG5nZgNGZuUKTCFIWPDYHBxa8A5M7k5lznW1+1CMa1HE57gyNhLjoCoMGCC0ktjJoGhqcblVeEp4al7GYpaLZwn4VrHCwLW9AUkjnEukeXHWU5xPi7eMFSYO3TFtm24vhEWtdDAgP/k/It4h6z8i3iHrPyLeIes/It4h6z8i3iHrPyLeIes/It4h6z8i3iHrPyLeIes/It4h6z8i3iHrPyLeIes/It4h6z8i3iHrPyLeIes/It4h6z8i3iHrPyKPAlOOPK93szKGCGBuLHGGhE2GxUyl8sjx5TyVju8ZbxgsFc0H6imeKONyqqTa6eV+ppt0lSZwPGALkIixTeMFgrmY/UUzSnOa1pcSAALk8K4AuVS1UdSxzmaHEEfweDNVxxTwxOOV5+HCe8MaSSANexheTFp2s/O79gnG5Ow0XPizBc3TmgoAhwvrWCctJ0PKfPDCC6SRrR7VX4SNSNrjBbH+7lg7CTCxsMzrOGRrjmI4Es8MLbySNaq7CjpwY4gWx6TpcqSqkppQ9uUZnN1hU9VDUsxo3ZdLdI2auvhpWm5Dn6GD7qaWSaR0jzdxVFhcACOo9z/+1G9kjQ5jw4awb7JIaCSQANJWEsINm/woj4Gl2tUWEwxojnvYZn/9rCtQySZuI4FrWZCNZ2A0lNAAThY+KBrdJCxm61jN1rGbrUQqi0iIyYt8oaUaWqJuYXkrcdV6B63HVegf8FEMJw5IxK0atCFVhn8rv+AT5cMPz7b7gB/CNLWONzDITrK3HVegetx1XoH/AATaWsaQWwyA6wmT4ZYLAPPS0FSS4XkFjtgHsAH8LclX6F63HVegetx1XoHplNWsN2RyNOsJk+GW+kPS0FGqwyfJcOhgUseEJeVbK7pW5Kn0L0aWpAuYXIkaVdnsWM3WsZutEsOlEDQfF8FnJKOgpuceIk22a6Xa6d2t3ghPOXxzBbv8Vw1s8SJudnCct5QzQwZek+O4Pfi1EXtJHx2Bm4MkrImF7zYBQVEU7S6N17Z/6LjsveGMc45gLqeQvc5xzuNz47C8tcCNBBQIIBGYpvBws840UeixcsGPLaoN0OBH3/oOPAwlNZjYhndlPQnG58dYfCVFJj0zNYyH3IHLwcLNIkifoLSPgsGsLqth/KCT8LcMm3AJDQSTYAXKqZjJI9505vHhkKwXLlfHrGMNhp2HOawXc4Ae1T4UiZcRDHOvQgxlZSs2wWxhfJoKpqSOnBDbknOTwibcHCM9miIHKcruhPNz4/DI9hDmuIcNIQrqsfi/sFvhV+kH/EJ1dVuzzO92ROc5xu5xJ9pVM2N88bXjwS6ya1rWhoFgBYDhF2rgzStijc92hTSue5znHwnHzAw2KPABLSCM4N0x4exrhmcAeASAib8KtqdufYHwG5vb7UTc+YWm44ODJw6DEOdh/YrGCxlc8Ovq73hjP6j9k918g8xMdYo8Chm2qdtz4Lsh/o1tba8cRy6XJ7tA8yMdoRHAoajboQCfCbkPCc5rWlziABpKqq8yXZFcN0nSU59sg8zMffpVlbYgmdDKHt941hRyMkY17TcHZJAFyQApsIwsuI/DP7KaolmN5He7QE5+rzQ1+goFWCsNapKl1O7Ww5wnYUb5MR95T8JVDuKGt911JLI/K95PSjIBmRcT5qBIQkK2waltg1LbPYi9yJJ/99//xABNEQABAgQABQwOCAUEAwAAAAABAgMABAUREiExQbMGExYgIjI0UVRhcXQQFBUzQFBSc4GRk7Gy4TVCRFNydaHBIzBDhJIkYqLRYGOQ/9oACAEDAQE/AP8A6cYS+MxdzjVF3ONUMknCufF9eQ845KobfW1uH1kpJx4ABhMlOqWhPdF3dOMJyn+sm/HmhTE6GC72+7iYLtrnMvAtlhjIrxfV+Ey3V5r4Ia78z5+Q+CF8AX1FenhjIrxfV+Ey3V5r4Ia78z5+Q+CF8AX1FenhjIrxfV+Ey3V5r4Ia78z5+Q+CF8AX1FenhjIrxTcDOIwk8YjCTxiMJPGIwk8YjCTxiK9MNS70qtwmxamE+lSQBCKvJBxtRK7B2VUcWZpNlQqpSplVNAqwjLKbyfWLuHDGQ+KZp1pnDcdcShAtdSjYCO6lL5cx/nHdSl8uY/ygzkmllLxmGw2o2Su+ImO6dM5ax/lHdOm8tY/yiYfpwS0qYcYwVC7ZXaxHNeO2qD97J/8AGO2qD97J/wDGGPrbdRsCYaXfEfEOqJIVIPJOQraB9KxDlLkUqdAaOJU4Buj/AEhdMIpUgXkJLRsXpVO+ORxvCVDTDT1Jo7LiboVN4JHNdcdz5TtfD1vddqpXlO+LuB7oXTJEOOgNGwdmgN0cjaLpidYaflqQhxNwJF1Q6UtgiG6XIqdbBaNi7KJO6OR1F1QunyglFOBs4QlFOXud8HcD3QxkO3eOICKXVG57XigWU24RbjTmMA3APiCv8Cd8418Yh7fvfjqPww3whrrMloolfo+i9d/dcDgf9knTw5317z89o4f7xSfy9/RCGu/M+fkNHDnAF9QXp4YyK29YeLMlNLBxpaIHScQikTvac804TZB3K/wmGTiI8QaoOBO+ca+MQ9v3vx1H4Yb4Q11mS0USv0fReu/uuPsY6kjTw5357z89o4f7xSfy9/RCGu/M+fkNHDnAF9QXp4YyHb6p3MGnOjy3EJ/f9uxQZszEhLrJupI1tXSnxBX+Au+ca+MQ9v3vx1H4Yb4Q11mS0USv0fReu/uuPsY6kjTw5317z89o4f7xSfy9/RCGu/M+fkNHDn0evqC9PDGRW31Vq/0bY45j9j2NSj5vMsE5gse4wDcA+GKcSk2Ma8jnjXkc8V1Lrsg8GWyteE2QkZTZQMKVWlFZ7mL3RfOQ/wBcWPqhLlaC0r7mLxOMryHKynBEa3PM0imlEqtTzUxhlu3OqLVjWtb7mrtrIbvY5AvDvCl1lSlq7mL3S3lZD/WGCYqDc8iVpZZlVOLTKrbWm29w0BMJXWkrQruYvcrYVkP9EWEKRWSwWu5q7FktXschXh3htYTe8a8jnjXkc8JUFC42mqzgrPn/ANj2NTrmBVWh5aVJ/S8Nm6B4ZPPJl2nHlAkNtlRAy2EbLZDk7/6RstkOTv8A6Q3W5ZdPcng04EIXglOK+b/uNlcj9w/+kbK5H7h/9Idrcs1IMzpacKHF4ISLXz/9RstkeTv/AKRstkeTv/pE3W5aVYlXVtuEPowkgWuBYHH642VyP3D/AOkbK5H7h/8ASKlXJanvIadacUVICgU2yXIjZbIcnf8A0hjVRJPPNNJYeBWtKQTbObQzvfTtNVabySDxPj3HsUhVqnJn/wBoHrxQFqAAEXOcwFrTCFhQ8Jrf0fOdXX7oQlPbTe5HC5bQwkJ7URiHAmdPDoHc+p/mR+NMOpThvbkb+fzc0NpTr7e5HCJPRQwAZCide/dcYKe08g4CjTw4lOuvbkd/ntHDwBl6T+XvaIQ2lOvNbkd/kc3GiFgdoLxDgK9PFYAM1NdQRpocSnthzcjhM7ooAFmMQ39O90M709O01St4dNmP9pQr9exT3ENT0q4s2Sh1KieYGJ6vTT5KWCWm+bfHpMKWtRupaieMkxJ1WdlFDBdKkZ0KxiJCebm2UvNXGOyknMeLwmt/R851dfuhHCm+uS2ghHA0dRZ08O/R9U/Mz8aYe37346h7ob4Q31iS0US/AKJ1791x9j/sUaeHO/Pefn9HDvB6T+XvaIQ135nz8h8EL4AvqK9PFX4VNfl6NNDnCXOszuigZGPx073QzvT07Sosa/LvteW0pI6ew2Md9pQ5YsSTCSN0rdq9PhNb+j5zq6/dCOFN9cldBCOBo6izp4d+j6p+Zn40w7v3vx1D3Q3whrrElool+AUTr37rj7H/AGKNPDnfnvPz+jh3g9J/L3tEIb78z5+Q+CF8AX1Fenir8Kmvy9GmhzhDnWZ3RQMjH46d7oZ3p6do6LpvxRW5MytQdAG4cOGj0wgWT2aTJGcm0JI/ho3S+gZvTDIxE+E1v6PnOrr90I4U31yV0EI4GjqLOnh3gFU/Mz8aYd37346h7ob4Q31iS0US/AKJ1791x9j/ALFGnhzvz3n5/Rw7wek/l72iENd+Z8/IfBC+AL6ivTxV+FTX5ejTQ5wlzrM7ooGRj8dO90M709PZJAyw66CDjskYyYrNRE/NgI7y1cIPHxnsyknMTbobZRfjOYdMU6QblGQy3jJxrVxmALC3gxNgTGvDyY14eTE+2qalX2kkJK2lJBOS5ECg1sKChUm7hSVA7rKkYIOTMI2O1gJCe6DVsAJtut6DhAZIRSZ3uXMSy5lCn3H9c1zHa9wf2g0Gsm96i3jw75fr77NngUGtAgiot3BSc+VAsM2YQ5SZ00yTl2plCHmXcPXMds+T1xsdrGDg90GrYGDbdb0HCtk44NArRJJqLdyVk77KsWVmzxOUmdel5BtmYQ2thktrVjx3SEm0Cg1kEEVFu4KCMuVAsnNmjY9VygoM+1g4GDbHvScK0Vakz05MBxiZQ2kshtYN8dlFUGgVoqJNSbuVKVnyrFlZs8MUGqoeZU5PNqQhxoqTjxhrIIQ5gi1o14eTBeOYQ++202px5wJQMpJsIrFdVNgsS90s5znX8oQLCKbRJSZkWnXdcC1X3pzXtDep6moNylxfMpUMsIbSG2m0oSMyRYQhASPB171XRFRrZkpjWe18PcBV8K2WFaqyn7CPafKNlp5CPafKNlp5CPafKNlp5CPafKNlp5CPafKNlh5CPafKNlh5CPafKNlp5CPafKNlp5CPafKNlh5CPafKNlp5CPafKNlh5CPafKNlh5CPafKNlp5CPafKNlp5CPafKNlp5CPafKNlp5CPafKNlp5CPafKHtVU4oWaYab5zdRiZm5maXhvvKWc18g6BCRc9iQlw3LstH6jaQemA0jigADwhe8V0Rqh+klebTDmUeCIFhEgzr87Lt5i4L9AxmGRuSeM+EKNkkwCCARC94rojVB9JK82mHM0IQpa0oSklSiAAMpJ2wBJAAuScQioU96RdQhz6zaVA+8eg7WWpz8xKzUwgblkD0nP6htmm1OLSlKSSTiA7GptnDnFu5m2/wBVQgWSOwtWCPBnVWFoQsp6IKgpCrHNGqPFURztJhuUmZpSUsMrWeYYh0mKPQ0SRDzxC37YuJEVuhuhxczKoKkKN1oGVJzkbSWlJmaXgsMqWeYYh0mKTQUSikvvkLeG9A3qP+zFQkGZ+XLTmI5ULzpMTshNSLmA+ggZljeq6D2abSJqfWCElDX1nCPdxmJaXZlmUMtJshIiqamytSnpKwJxlrJ/jDrLrKyh1tSFDMoW7KUqWoJSkqUcgAuTFDoy5UiYmBZy25R5N85iqUIurU/KgBRxqbyA84jU/JuMSytcQUrW5jBFjZOLsKWlOUwpRUbmG1BSfBFLX9VJgoWcxjAX5JjAX5JiYNPStJmAzh2xFYBNoFQp6U2Ey0BxCO6VP5W1647pU/lbXriYVQZk3eVLrPHkPrEGn6mCd+n2qoal9TTRukME/wC5RV74TUKahISmZZSOIYhHdKn8ra9cd0qfytr1wqfpq0lK5hlSTlBxiHJPUy4bktA/7VlMMy2ptkgp1gnjUoq98Co08AATTQA547pU/lbXrjulT+VteuHJ2lupwXH2FjiVjhyU1MuG51kfhWU+6EyGpgHfIPS4qJd6jS4/gLYRziO6Ejypv1wJ+RJAEy2SeeAFHIDFneJUYC/JMYC/JMBLgNwDCVE5UkeD19G6l1cyhChufAQLmLdiksa9Ot3GJG7PoyQ0LJ6fDK+j/ToV5LvvHgSRYdmhS+Cwp0jG4qw6BAFh4ZWW8OTf5gFersKFidqyw6+4ltpGEoxMyj8qsJeRYkXBBuD/ACUJz9lptTriG05VEARKspbQhCd6hIA8Nmmw4gpORSSk+mCCkkHKDYwsZDtdTrQwH3c9wke+K40FyKlWxoUCPSbfyEJvj2lDlsJ1b6hiRiT0mG04KR4a6LoiqM61POjMo4Q9MEXG11OuAtPt5wsK9YituBFPcTnWUgeu+3Sm+0SlS1JSkXJNgIkJVLDLbQ+qLqPGfDiLgiK8xuWngN6ShXYWMd+w2hbiglCFKPEBeJSgzDhCpg62nyRjVBW5TZ90MqvgEjHnHEYnag/OKSVgJSnIkbZKb7WiSmEszCxiTiR0w2nBT4fMstuAocQFIVlBg0mnH7OB0KIjuNTvuT/mYRSqcjJKoPTcwhCGxZCUpHEBaJ511uUeW0QFpTcEi8LWpa1LWolRNyTtko49rLS65h5DSMpOXiGcxKsIbQhtA3CBbxA6m6ejaqSFpUk5CLGHWy06ttWVKiD6NoEkwEgbalSHazV1D+KvLzDihKcEW8QuJwVbWuSpRNhwZHBf0jEYwDAb54CUjb0inWwZl5Pm0n3mGkWxnxE4jCTzja1SW7YlFWG6Ruk/yaZSirBfmE7nKhBz85htu+M+JHUZx6drVJPteYJSNwvGnmOcbZCFuLCEJKlHIBFPpCWrOv2UvMnMmG2741eJnG7ZMkWI7M1LImWVNq9B4jDzLjLim3BZST2UhSiEpBJ4hErRZl2ynv4SfWqJWTYlk4LKMZynKTCGrY1eKFtZ0wU48Yix443XEIn5BM2gZEuDeq/YwigOfXmU+hMNUOTRvytfSbD9IZYZZFmmkp6BCWlHLihKUpyDxUQDlEFlOY2jWT5QjWVcYgM8aoDSBzwABkH/AJ7/AP/Z;" parent="epFdQ0L5DlEfyH0QWlSM-36" vertex="1">
                    <mxGeometry x="4.1299999999999955" y="10.114942528735632" width="36.75" height="20" as="geometry"/>
                </mxCell>
                <mxCell id="epFdQ0L5DlEfyH0QWlSM-33" style="edgeStyle=orthogonalEdgeStyle;rounded=0;orthogonalLoop=1;jettySize=auto;html=1;entryX=0.5;entryY=1;entryDx=0;entryDy=0;entryPerimeter=0;fontSize=33;dashed=1;" parent="epFdQ0L5DlEfyH0QWlSM-40" source="epFdQ0L5DlEfyH0QWlSM-31" target="epFdQ0L5DlEfyH0QWlSM-32" edge="1">
                    <mxGeometry relative="1" as="geometry"/>
                </mxCell>
                <mxCell id="epFdQ0L5DlEfyH0QWlSM-41" style="edgeStyle=orthogonalEdgeStyle;rounded=0;orthogonalLoop=1;jettySize=auto;html=1;fontSize=33;" parent="epFdQ0L5DlEfyH0QWlSM-40" source="epFdQ0L5DlEfyH0QWlSM-38" target="epFdQ0L5DlEfyH0QWlSM-32" edge="1">
                    <mxGeometry relative="1" as="geometry"/>
                </mxCell>
                <mxCell id="epFdQ0L5DlEfyH0QWlSM-37" value="" style="group" parent="epFdQ0L5DlEfyH0QWlSM-40" vertex="1" connectable="0">
                    <mxGeometry x="320" y="495.63" width="212.5" height="117.13" as="geometry"/>
                </mxCell>
                <mxCell id="epFdQ0L5DlEfyH0QWlSM-39" value="" style="shape=image;imageAspect=0;aspect=fixed;verticalLabelPosition=bottom;verticalAlign=top;fontSize=33;image=data:image/jpeg,/9j/4AAQSkZJRgABAQAAAQABAAD/2wCEAAYGBgYHBgcICAcKCwoLCg8ODAwODxYQERAREBYiFRkVFRkVIh4kHhweJB42KiYmKjY+NDI0PkxERExfWl98fKcBBgYGBgcGBwgIBwoLCgsKDw4MDA4PFhAREBEQFiIVGRUVGRUiHiQeHB4kHjYqJiYqNj40MjQ+TERETF9aX3x8p//CABEIAbMDIAMBIQACEQEDEQH/xAAcAAACAwEBAQEAAAAAAAAAAAAEBQADBgECBwj/2gAIAQEAAAAA/VPMme+ozL85So1szQ+t5kz31GZfnKVGtmaH1vMme+ozL85So1szQ+t5kz31GZfnKVGtmaH1vMme+ozL85So1szQ+t5kz31GZfnKVGtmaH1vMme+ozL85S15nC3I6NscrX6L0gq0nM4W5HRtjla/RekFWk5nC3I6NscrX6L0gq0nM4W5HRtjla/RekFWk5nC3I6NscrX6L0gq0nM4W5HRtjla/RekFWk5nC3I6NscrTkaWZJu2BQaa9CBrO5IjSzJN2wKDTXoQNZ3JEaWZJu2BQaa9CBrO5IjSzJN2wKDTXoQNZ3JEaWZJu2BQaa9CBrO5IjSzJN2wKDTXoQNZ3JEaWZJu2BQaZRY6oUFswAGZakd37Q2OqFBbMABmWpHd+0NjqhQWzAAZlqR3ftDY6oUFswAGZakd37Q2OqFBbMABmWpHd+0NjqhQWzAAZlqR3ftDY6oUFswAGZfMme+ozL85So1szQ+t5kz31GZfnKVGtmaH1vMme+ozL85So1szQ+t5kz31GZfnKVGtmaH1vMme+ozL85So1szQ+t5kz31GZfnKVGtmaH1vMme+ozL85SfUL7MoHIvGpLsC8n1C+zKByLxqS7AvJ9Qvsygci8akuwLyfUL7MoHIvGpLsC8n1C+zKByLxqS7AvJ9Qvsygci8akuwLyfUL7MoHIvGREaWZJu2BQaa9CBrO5IjSzJN2wKDTXoQNZ3JEaWZJu2BQaa9CBrO5IjSzJN2wKDTXoQNZ3JEaWZJu2BQaa9CBrO5IjSzJN2wKDTXoQNZ3JEaWZJu2BQaajnZJJJJOdnOySSSSc7Odkkkkk52c7JJJJJzs52SSSSTnZzskkkknOznZJJOH8yZ76jMvzlKjWzND63mTPfUZl+cpUa2ZofW8yZ76jMvzlKjWzND63mTPfUZl+cpUa2ZofW8yZ76jMvzlKjWzND63mTPfUZl+cpUa2ZofW8yZ76jMvzlM9G1iWlUDkXh+CrQPRtYlpVA5F4fgq0D0bWJaVQOReH4KtA9G1iWlUDkXh+CrQPRtYlpVA5F4fgq0D0bWJaVQOReH4KtA9G1iWlUDkICNLMk3bAoNNehA1nckRpZkm7YFBpr0IGs7kiNLMk3bAoNNehA1nckRpZkm7YFBpr0IGs7kiNLMk3bAoNNehA1nckRpZkm7YFBpr0IGs7kiNLMk3bAoNNf4SENhFh56wRvelrfeEhDYRYeesEb3pa33hIQ2EWHnrBG96Wt94SENhFh56wRvelrfeEhDYRYeesEb3pa33hIQ2EWHnrBG96Wt94SENhFh56xnzJnvqMy/OUqNbM0PreZM99RmX5ylRrZmh9bzJnvqMy/OUqNbM0PreZM99RmX5ylRrZmh9bzJnvqMy/OUqNbM0PreZM99RmX5ylRrZmh9bzJnvqMy/OUgWv/OdYNAlDwhMJovWbtf+c6waBKHhCYTRes3a/wDOdYNAlDwhMJovWbtf+c6waBKHhCYTRes3a/8AOdYNAlDwhMJovWbtf+c6waBKHhCYTRes3a/851g0CUPM2RpZkm7YFBpr0IGs7kiNLMk3bAoNNehA1nckRpZkm7YFBpr0IGs7kiNLMk3bAoNNehA1nckRpZkm7YFBpr0IGs7kiNLMk3bAoNNehA1nckRpZkm7YFBpr+ZM99RmX5ylRrZmh9bzJnvqMy/OUqNbM0PreZM99RmX5ylRrZmh9bzJsHtOZfHKVGtmaH1vMme+ozL85So1szQ+t5kz31GZfnKVGtmaH1vMme+ozL85S15nC3I6NscrX6L0gq0nM4W5HRtjla/RekFWk5nC3I6NscrX6L0gq0nM7+UfHmv379fq7RekFWk5nC3I6NscrX6L0gq0nM4W5HRtjla/RekFWk5nC3I6NscrTkaWZJu2BQaa9CBrO5IjSzJN2wKDTXoQNZ3JEaWZJu2BQaa9CBrO5IjS/hT6F5EKs+dfu1CBrO5IjSzJN2wKDTXoQNZ3JEaWZJu2BQaa9CBrO5IjSzJN2wKDTKLHVCgtmAAzLUju/aGx1QoLZgAMy1I7v2hsdUKC2YADMtSO79obHP4V21KlqRhv3apHd+0NjqhQWzAAZlqR3ftDY6oUFswAGZakd37Q2OqFBbMABmXzJnvqMy/OUqNbM0PreZM99RmX5ylRrZmh9bzJnvqMy/OUqNbM0PreZT8fbilS1Iwv7C1kzQ+t5kz31GZfnKVGtmaH1vMme+ozL85So1szQ+t5kz31GZfnKT6hfZlA5F41JdgXk+oX2ZQOReNSXYF5PqF9mUDkXjUl2BeT6hvxRt6VLUjC/tguwLyfUL7MoHIvGpLsC8n1C+zKByLxqS7AvJ9Qvsygci8ZERpZkm7YFBpr0IGs7kiNLMk3bAoNNehA1nckRpZkm5yBLoWeYC112Lv1v4h+ieADrfnH7tQgazuSI0syTdsCg016EDWdyRGlmSbtgUGmvQgazuSI0syTdsCg01HOySSSSc7Odkkkkk52c7Jz4b8QsklV/uSCnySB/uCTnZzskkmX+Cfoxvzs52SSSSTnZzskknD+ZM99RmX5ylRrZmh9bzJnvqMy/OUqNbM0PreZM99R+ePnVhnkWlsz8gH5Jz5EKsyX7C1kzQ+t5kz31GZfnfjDz4/YK0fW8yZ76jMvzlKjWzND63mTPfUZl+cpno2sS0qgci8PwVaB6NrEtKoHIvD8FWgejaxLfifyalj4BvMYeFbXPsfAB1ua/c4fgq0D0bWJaVR8z/P30LOLf10aB6NrEtKoHIvD8FWgejaxLSqByEBGlmSbtgUGmvQgazuSI0syTdsCg016EDWdyRGlmSb/ACL45Sx8A3lsfCtrn2PgA63N/u1CBrO5IjSzJN2wP5rSaSYr6L+ickRpZkm7YFBpr0IGs7kiNLMk3bAoNNf4SENhFh56wRvelrfeEhDYRYeesEb3pa33hIQ2E+B/MKWPgG8xh4VtEDHwAddmf2i2vS1vvCQhsIsP/K5LWV/Mv1xsvCQhsIsPPWCN70tb7wkIbCLDz1jPmTPfUZl+cpUa2ZofW8yZ76jMvzlKjWzNDv8A53niXoPyjNF38pCcMuDE5B3ym33kvvzsrPVbjdZM99RmX/5PasJMX9K/QfMsc8ozL85So1szQ+t5kz31GZfnKQLX/nOsGgSh4QmE0XrN2v8AznWDQJQ8ITCaL18l/NzSSD+mckU+r5Iq0UkmcbSSnQ/p1/5zrBoF+Uym8meUm54Zlr/pv1wRQ8ITCaL1m7X/AJzrBoEoeZsjSzJN2wKDTXoQNZ3JEaWZJu2BQaa9CBrO/H/gBwzGmg8dxUrIAM8hHKNfSpakY5yAZYG3/TWlmSbtgfzrlNVIoRNDPdK5A6/WaXTXoQNZ3JEaWZJu2BQaa/mTPfUZl+cpUa2ZofW8yZ76jMvzlKjWzNDh/lk0ZlRSeM4qVkgGeQTlOupUtSMe4AN9h6b9YZM99RmX+f8AyP8ATZA6pJO5Ta/pA9So1szQ+t5kz31GZfnKWvM4W5HRtjla/RekFWk5nC3I6NscrX6L0gqT/l00ZlRQeO4qVkgGeQTlOupUtSMe4Xm2B6T9Y5wtyOjbHflBXqxaJJO54X9S6A5Wv0XpBVpOZwtyOjbHK05GlmSbtgUGmvQgazuSI0syTdsCg016EDWd+P8AwA0ZlRQeM5qVkgGeQGCjXUqWpGPcLzbA3H6a0syTdtmvjXyhvqRpJF+bZ/qDVgoNNehA1nckRpZkm7YFBplFjqhQWzAAZlqR3ftDY6oUFswAGYXxSh16xHz1v598FtZ2StTCZ49pNbyuzuSd+PcGn1JzQhX5nNv9PeInTykDSfX/AKYazAAZlqR3ftDY6oUFswAGZfMme+ozL85So1szQ+t5kz31GZfnKfmP57ddvkkkkkkkkkkkkkkkkk9lMT5SJMD9pa7vQIjn1GZfnKVGtmaH1vMme+ozL85SfUL7MoHIvGpLsC8n1C+zKByLxvlvwjX+j5JJJJJJJJJJJJJJJJJJKBYsF/WXD6hfZlA5F41JdgXk+oX2ZQOReMiI0syTdsCg016EDWdyRGlmSbr1xWm+d/nLXdYSuySSSSTiN7JJJJWpdSSSSSB18mH+7fa+5IjJ/Uck3bAoNNehA1nckRpZkm7YFBpqOdkkkkk52c7IH+bfn31X64l/POz51LmGWsZySSAJs0C61TbskqQ5MN3oW5Ekk8Z/IkPpP1lYP86+R4H9DfXvXZJJOdnOySScP5kz31GZfnKVGtmaH1vMknznylXZZVSkMpnZOWm398Dh+OySez7/ACMDJJOXl398DASclGvarlpHKPWs+iv9mcpUa2ZofW8yZ76jMvzlM9G1iWlUDkXh+CrQPRtQtxQ45Xn8O6mXESSSSSSSSSSSTkk7JJWNySKPoP6LrN9r/R1ItxQ45F4fgq0D0bWJaVQOQgI0syTdsCg016EDWdyRGlmSbtgUGmv/ACAuJ6ZJJJJJJJJJJJJJJJKKZJBRv2grA1nckRpZkm7YFBpr0IGs7kiNLMk3bAoNNf4SENhFh56wRvelrfeEhDYRYeesE+Q/HHEIuknJJOtT81JJJJJJJJ4H8ySV579PbBvelrfeEhDYRYeesEb3pa33hIQ2EWHnrGfMme+ozL85So1szQ+t5kz31GZfnKVB/wCL9N3pkkkkh574bGSSSSSSTlFUkk85z9FfTFGtmaH1vMme+ozL85So1szQ+t5kz31GZfnKQLX/AJzrBoEoeEJhNF6zdr/znWDQJQ8ITfnDGNZ7K7ySSM6cP9hxUkkkkk5RTJJJ5z31v7U8ITCaL1m7X/nOsGgSh4QmE0XrN2v/ADnWDQJQ8zZGlmSbtgUGmvQgazuSI0syTdsCg016HN/ll5bLCZ2VhgMdixxnJOSSScppkkklee+2/b0WmvQgazuSI0syTdsCg016EDWdyRGlmSbtgUGmv5kz31GZfnKVGtmaH1vMme+ozL85So1s+HfALPXeyol1qCs17kkkkkrqrkkkkGRfdfpj45So1szQ+t5kz31GZfnKVGtmaH1vMme+ozL85S15nC3I6NscrX6L0gq0nM4W5HRtjla/RekPwNd9d8duZMbu0fnwCSTs8+K6+SSSSRVV+nt0jbHK1+i9IKtJzOFuR0bY5Wv0XpBVpOZwtyOjbHK05GlmSbtgUGmvQgazuSI0syTdsCg016EDWT8q9+1+5J263K/G5OefPjkkkkkkFSfQ/wBIK27YFBpr0IGs7kiNLMk3bAoNNehA1nckRpZkm7YFBplFjqhQWzAAZlqR3ftDY6oUFswAGZakd37Q/Ffnf3V3JJJ87+cSSSSSSSQVS2+9fV6FBbMABmWpHd+0NjqhQWzAAZlqR3ftDY6oUFswAGZfMme+ozL85So1szQ+t5kz31GZfnKVGtmaH1s+O/Cdt9WYSSd+ffNeSSSSSeAFjr6591mTPfUZl+cpUa2ZofW8yZ76jMvzlKjWzND63mTPfUZl+cpPqF9mUDkXjUl2BeT6hfZlA5F41JdgXk+oWv458f0+/wBkVyTOfKVskk8jCB2fQ/rO18n1C+zKByLxqS7AvJ9Qvsygci8akuwLyfUL7MoHIvGREaWZJu2BQaa9CBrO5IjSzJN2wKDTXoQNZ3JEaWZJjlvkfz07ROGBPMGk8VVDkarVfT/oaIDWdyRGlmSbtgUGmvQgazuSI0syTdsCg016EDWdyRGlmSbtgUGmo52SSSSTnZzskkkknOznZJJM3jg1qKtzbW81Tpv7kknOznZJJJJOdnOySSSSc7Odkkk4fzJnvqMy/OUqNbM0PreZM99RmX5ylRrZmh9bzJnvqMy/OUqNbM0PreZM99RmX5ylRrZmh9bzJnvqMy/OUqNbM0PreZM99RmX5ylRrZmh9bzJnvqMy/OUtuZM99RmX5ylRrZmh9bzJnvqMy/OUqNbM0PreZM99RmX5ylRrZmh9bzJnvqMy/OUqNbM0PreZM99RmX5ylRrZmh9bzJnvqMy/OUqNbM0PreZM99RmX5yn//EABoBAQACAwEAAAAAAAAAAAAAAAACBAEDBQb/2gAIAQIQAAAAAAAAAAAAAAAAAAAAAAAAAAAAAAAAAAAAAAAAAAAAAAAAAAAAAAAAAAAAAAAAAAAAAAAAAAAAAAAAAAAAAAAAAAAAAAAAAAAAAAAAAAAAAAAAAAAAAAAAAAAAAAAAAAAAAAAAAAAAALDENYAAAAAAA7vRn5PUAAAAAAAO1YseZ1gAAAAAADtWLHmdYAAAAAAA7Vix5nWAAAAAAMg7t/d5HUAAAAAALNhCbG5zdYMz1gAAAAOn2MabmrRu2+U1g2dHl4AAAAA6d/Cxow3+b1gv+t8PrAAAAA6d/Cxow3+c1A7XrvF8sAAAADp38LGjDf5vWD0HqOB5YAAAASy6HYxXuwqWp+Xgjg9F6bm+LiAAAAWesr2cV7CvZVrEONA7/qanimNUQAAAXunv0TxHfpxLfUnPzsDsewr87o1fM88AAAF7pWNEsY3aWbFSU/PQLfvIwPIcwAAAF7pWNEsY3aWbFSU/PQJ+2tYU/G6wAAAXulY0SxjdpZsVJT89A3+vuNPlOcAAAGxY7Ga1rFazivZlTsx4cc7vT9Lg1OfWiAAAM9u5kAANvU26vE1oAAAAl67qzAAA1VvE6wAAAyz67q5kGK1oVbQQhyvJ4lEAAAns1et6Pnb3cNXnKPrrCj5Ps96bHmZV+JLdpiAABPZlZyb7WqmZu4pErkqerFfGcNUQAAB6Hr7AABjWp+XgAAAAdru7QABqw4fFAAAAHR9LtyNcdwCEEfJ1wAAABv8AXzmOJX9GMZxjWczz0QAAABP1NvaOFX9KCOsx5amAAAADvdjZKPNsStBGGDmefgAAAACzblCvt9VIIQGvy1YAAAACe3DOfYTIwwHn+VgAAAABvD0PSxiIORxNYAAAABLfEuejAcrh6gAAAAA2zwejuBji8rSAAAAABunFu9NM5/IqawAAAAADZtLV6vS06sAAAAAABmeSMAAAAAAAAAAAAAAAAAAAAA//xAAbAQEAAgMBAQAAAAAAAAAAAAAAAwQCBQYBB//aAAgBAxAAAAAAAAAAAAAAAAAAAAAAAAAAAAAAAAAAAAAAAAAAAAAAAAAAAAAAAAAAAAAAAAAAAAAAAAAAAAAAAAAAAAAAAAAAAAAAAAAAAAAAAAAAAAAAAAAAAAAAAAAAAAAAAAAAAAAAAAAAAAAApk0wAAAAAAA47Rw/TJwAAAAAABylCn384AAAAAAA5ShT7+cAAAAAAAcnRp9/OAAAAAAPAcbpa30+cAAAAAAUKKaJ7Wb2cHkUwAAAADneUyu6yxap1Pp84IdJ0HoAAAAHPaKTKna9xo/Qpwaj5z9XmAAAAA57RSZU7XuNH6FODlvnP0/oAAAAAOe0UmVO17jR+hTg43guv7/0AAAAwxaPkstlq5L+th+kys8jiuF3f1HMAAAAocs2NFe17Y0F3Xy9dKcdwOx+peZWMwAAAafnaN/DL2jbzxp7CKHvZTmvmtzd6S/3e5AAABp+eo38MvaNvPGlsY4O8lNd8hznPo++AAABp+eo38MvaNvPGnsI4O8lIvlmvzbL6bMAAADT89Rv4Ze0beeNLYxwd5K8rfNtZ7Z+hbn0AAA8hUuTw2dBf1mWy1+Ox10nZ5+VuD0nW7Lc3cwAABjyuuwAACvoIZ/ql7P0AAAMfm/PRgAAT3vqkwAAAeMfnHPY4gv0BfoBJN0H0PLDMAAAhin+dabtNTyhY7ba/OKfm1+jcvyMb3usbvU41bOYAAEUBQFOhPs/WOqz2hhrI9nY9uZePbGYAAA4znIQHnoHs3uy72UAAAA5fkoAABNk6vqPQAAADScNB4JZKwCSRn9FuAAAACp83ijHUXOLAzlN92eYAAAAi4DXQDqrvEAymPfoGzAAAADzkeaiwy3lLCiGUw33ZSAAAAApa3HO7W+f4hJIJ+/vAAAAAR0zzz5xgey5B2e/yAAAAAUsBx+m9yyB0nVTAAAAAEdMa7jAHQdZYAAAAACvXHG60Muo6KwAAAAABVhK/Dxvdx0mxmAAAAAAIIMWv1d3aWp8gAAAAAA8ixe55+gAAAAAAAAAAAAAAAAAAAD/xAA6EAABAgYBAgQFAwMEAQQDAAADAgQAAQUQFTQUBhMHJDVEERIWIzYhJTEgMDIXM0FGIkBCQ1BRUlP/2gAIAQEAAQgAhzrmtS94Nq1qotQ/cWrW0i1M0Q2dbTi7nXNal7wbVrVRah+4tWtpFqZohs62nF3Oua1L3g2rWqi1D9xatbSLUzRDZ1tOLudc1qXvBtWtVFqH7i1a2kWpmiGzracXc65rUveDataqLUP3Fq1tItTNENnW04u51zWpe8G1a1UWofuLVraRamaIbOtpxdzrmtS94Nq1qotQ/cWrW0iOS3gpG8wFSniOoYhKF0IheS3iprQ4AlAeI6il+W73e5LeKkiZzoUDiOoYmEFoIZeS3hw3Os5lo4jqOS3gpG8wFSniOoYhKF0IheS3iprQ4AlAeI6il+W73e5LeKkiZzoUDiOoYmEFoIZeS3hw3Os5lo4jqOS3gpG8wFSniOoYhKF0IheS3iprQ4AlAeI6il+W73e5LeKkiZzoUDiOoYmEFoIZeS3hw3Os5lo4jqOS3gpG8wFSniOoYhKF0IheS3iprQ4AlAeI6il+W73e5LeKkiZzoUDiOoYmEFoIZeS3hw3Os5lo4jqOS3gpG8wFSniOoYhKF0IheS3iprQ4AlAeI6il+W73e5LeKkiZzoUDiOoYmEFoIZeS3hw3Os5lo4jqOS3gpG8wFSniOoYhKF0IheS3iprQ4AlAeI6il+W73e5LeKkiZzoUDiOoYmEFoIZeS3hw3Os5lo4jqOS3gpG8wFSniOoYhKF0IheS3iprQ4AlAeI6il+W73e5LeKkiZzoUCGu03tU9E1qLtLtXPb2ouqu1U3jWba4btdpvap6JrUXaXaue3tRdVdqpvGs21w3a7Te1T0TWou0u1c9vai6q7VTeNZtrhu12m9qnomtRdpdq57e1F1V2qm8azbXDdrtN7VPRNai7S7Vz29qLqrtVN41m2uG7Xab2qeia1F2l2rnt7UXVXaqbxrNtcN2u03tU9E1qLtLtXPb2ouquMW+gLF0EgykybGHToLsKwAxb6GYiMSKK4ybGH3n+3xcW+hkUbEShOcmxh01O7Os4MW+gL5oEQxLybGMW+gLF0EgykybGHToLsKwAxb6GYiMSKK4ybGH3n+3xcW+hkUbEShOcmxh01O7Os4MW+gL5oEQxLybGMW+gLF0EgykybGHToLsKwAxb6GYiMSKK4ybGH3n+3xcW+hkUbEShOcmxh01O7Os4MW+gL5oEQxLybGMW+gLF0EgykybGHToLsKwAxb6GYiMSKK4ybGH3n+3xcW+hkUbEShOcmxh01O7Os4MW+gL5oEQxLybGMW+gLF0EgykybGHToLsKwAxb6GYiMSKK4ybGH3n+3xcW+hkUbEShOcmxh01O7Os4MW+gL5oEQxLybGMW+gLF0EgykybGHToLsKwAxb6GYiMSKK4ybGH3n+3xcW+hkUbEShOcmxh01O7Os4MW+gL5oEQxLybGMW+gLF0EgykybGHToLsKwAxb6GYiMSKK4ybGH3n+3xcW+hkUbEShOYc65rUveDataqLUP3Fq1tItTNENnW04u51zWpe8G1a1UWofuLVraRamaIbOtpxdzrmtS94Nq1qotQ/cWrW0i1M0Q2dbTi7nXNal7wbVrVRah+4tWtpFqZohs62nF3Oua1L3g2rWqi1D9xatbSLUzRDZ1tOLudc1qXvBtWtVFqH7i1a2kWpmiGzracXc65rUveDataqLUP3Fq1tIjNNYyDcyVBThXUCZkYkS4LmmsOHCKijtBwrqAftfzd/NNYMFdSXIwcK6gT0TEcmxc01hdMO4UoyMK6jNNYyDcyVBThXUCZkYkS4LmmsOHCKijtBwrqAftfzd/NNYMFdSXIwcK6gT0TEcmxc01hdMO4UoyMK6jNNYyDcyVBThXUCZkYkS4LmmsOHCKijtBwrqAftfzd/NNYMFdSXIwcK6gT0TEcmxc01hdMO4UoyMK6jNNYyDcyVBThXUCZkYkS4LmmsOHCKijtBwrqAftfzd/NNYMFdSXIwcK6gT0TEcmxc01hdMO4UoyMK6jNNYyDcyVBThXUCZkYkS4LmmsOHCKijtBwrqAftfzd/NNYMFdSXIwcK6gT0TEcmxc01hdMO4UoyMK6jNNYyDcyVBThXUCZkYkS4LmmsOHCKijtBwrqAftfzd/NNYMFdSXIwcK6gT0TEcmxc01hdMO4UoyMK6jNNYyDcyVBThXUCZkYkS4LmmsOHCKijtBwrqAftfzd/NNYMFdSXIwYa7Te1T0TWou0u1c9vai6q7VTeNZtrhu12m9qnomtRdpdq57e1F1V2qm8azbXDdrtN7VPRNai7S7Vz29qLqrtVN41m2uG7Xab2qeia1F2l2rnt7UXVXaqbxrNtcN2u03tU9E1qLtLtXPb2ouqu1U3jWba4btdpvap6JrUXaXaue3tRdVdqpvGs21w3a7Te1T0TWou0u1c9vai6q4wcYvjffjORzuf5WMHHYxf34zkerRg47+L+xGcjg8/zUYOMpxvsRnIwcYvjffjORzuf5WMHHYxf34zkerRg47+L+xGcjg8/zUYOMpxvsRnIwcYvjffjORzuf5WMHHYxf34zkerRg47+L+xGcjg8/wA1GDjKcb7EZyMHGL4334zkc7n+VjBx2MX9+M5Hq0YOO/i/sRnI4PP81GDjKcb7EZyMHGL4334zkc7n+VjBx2MX9+M5Hq0YOO/i/sRnI4PP81GDjKcb7EZyMHGL4334zkc7n+VjBx2MX9+M5Hq0YOO/i/sRnI4PP81GDjKcb7EZyMHGL4334zkc7n+VjBx2MX9+M5Hq0YOO/i/sWc65rUveDataqLUP3Fq1tItTNENnW04u51zWpe8G1a1UWofuLVraRamaIbOtpxdzrmtS94Nq1qotQ/cWrW0i1M0Q2dbTi7nXNal7wbVrVRah+4tWtpFqZohs62nF3Oua1L3g2rWqi1D9xatbSLUzRDZ1tOLudc1qXvBtWtVFqH7i1a2kWpmiGzracXc65rUveDataqLUP3Fq1tIjNOoTUzuFJCvCtYKyExHNyLNOoCdVSVMJ8K1g/wC1/L2M06hu3RUUd02FawV4RiRTcWadRj25kpMrCtYzTqE1M7hSQrwrWCshMRzcizTqAnVUlTCfCtYP+1/L2M06hu3RUUd02FawV4RiRTcWadRj25kpMrCtYzTqE1M7hSQrwrWCshMRzcizTqAnVUlTCfCtYP8Atfy9jNOobt0VFHdNhWsFeEYkU3FmnUY9uZKTKwrWM06hNTO4UkK8K1grITEc3Is06gJ1VJUwnwrWD/tfy9jNOobt0VFHdNhWsFeEYkU3FmnUY9uZKTKwrWM06hNTO4UkK8K1grITEc3Is06gJ1VJUwnwrWD/ALX8vYzTqG7dFRR3TYVrBXhGJFNxZp1GPbmSkysK1jNOoTUzuFJCvCtYKyExHNyLNOoCdVSVMJ8K1g/7X8vYzTqG7dFRR3TYVrBXhGJFNxZp1GPbmSkysK1jNOoTUzuFJCvCtYKyExHNyLNOoCdVSVMJ8K1g/wC1/L2M06hu3RUUd00Ndpvap6JrUXaXaue3tRdVdqpvGs21w3a7Te1T0TWou0u1c9vai6q7VTeNZtrhu12m9qnomtRdpdq57e1F1V2qm8azbXDdrtN7VPRNai7S7Vz29qLqrtVN41m2uG7Xab2qeia1F2l2rnt7UXVXaqbxrNtcN2u03tU9E1qLtLtXPb2ouqu1U3jWba4btdpvap6JrUXaXaue3tRdVcYxjBmLQIiFRlH0NXR3Z0APjGMPRDYiSVtlH0MfP9zlYxjDwpGJEib5R9DVqF2FBz4xjBnzoJCCHlH0YxjBmLQIiFRlH0NXR3Z0APjGMPRDYiSVtlH0MfP9zlYxjDwpGJEib5R9DVqF2FBz4xjBnzoJCCHlH0YxjBmLQIiFRlH0NXR3Z0APjGMPRDYiSVtlH0MfP9zlYxjDwpGJEib5R9DVqF2FBz4xjBnzoJCCHlH0YxjBmLQIiFRlH0NXR3Z0APjGMPRDYiSVtlH0MfP9zlYxjDwpGJEib5R9DVqF2FBz4xjBnzoJCCHlH0YxjBmLQIiFRlH0NXR3Z0APjGMPRDYiSVtlH0MfP9zlYxjDwpGJEib5R9DVqF2FBz4xjBnzoJCCHlH0YxjBmLQIiFRlH0NXR3Z0APjGMPRDYiSVtlH0MfP9zlYxjDwpGJEib5R9DVqF2FBz4xjBnzoJCCHlH0YxjBmLQIiFRlH0NXR3Z0APjGMPRDYiSVtlH0MfP9zlYxjDwpGJEibw51zWpe8G1a1UWofuLVraRamaIbOtpxdzrmtS94Nq1qotQ/cWrW0i1M0Q2dbTi7nXNal7wbVrVRah+4tWtpFqZohs62nF3Oua1L3g2rWqi1D9xatbSLUzRDZ1tOLudc1qXvBtWtVFqH7i1a2kWpmiGzracXc65rUveDataqLUP3Fq1tItTNENnW04u51zWpe8G1a1UWofuLVraRHLdQ3cHWcKF8ZvD8QgtCEFy3UU1cznWk/GbxVfL9nsct1FMQk4FLNxm8PjFE6KgXLdQIQJgEpXGbxy3UN3B1nChfGbw/EILQhBct1FNXM51pPxm8VXy/Z7HLdRTEJOBSzcZvD4xROioFy3UCECYBKVxm8ct1DdwdZwoXxm8PxCC0IQXLdRTVzOdaT8ZvFV8v2exy3UUxCTgUs3Gbw+MUToqBct1AhAmASlcZvHLdQ3cHWcKF8ZvD8QgtCEFy3UU1cznWk/GbxVfL9nsct1FMQk4FLNxm8PjFE6KgXLdQIQJgEpXGbxy3UN3B1nChfGbw/EILQhBct1FNXM51pPxm8VXy/Z7HLdRTEJOBSzcZvD4xROioFy3UCECYBKVxm8ct1DdwdZwoXxm8PxCC0IQXLdRTVzOdaT8ZvFV8v2exy3UUxCTgUs3Gbw+MUToqBct1AhAmASlcZvHLdQ3cHWcKF8ZvD8QgtCEFy3UU1cznWk/GbxVfL9nsct1FMQk4FLNDXab2qeia1F2l2rnt7UXVXaqbxrNtcN2u03tU9E1qLtLtXPb2ouqu1U3jWba4btdpvap6JrUXaXaue3tRdVdqpvGs21w3a7Te1T0TWou0u1c9vai6q7VTeNZtrhu12m9qnomtRdpdq57e1F1V2qm8azbXDdrtN7VPRNai7S7Vz29qLqrtVN41m2uG7Xab2qeia1F2l2rnt7UXVXZzrmtS94Nq1qotQ/cWrW0i1M0Q2dbTi7nXNal7wbVrVRah+4tWtpFqZohs62nF3Oua1L3g2rWqi1D9xatbSLUzRDZ1tOLudc1qZKfODas6qI+WcUSU5ci1Z2kWpmiGzracXc65rUveDataqLUP3Fq1tItTNENnW04u51zWpe8G1a1UWofuLVraRamaIbOtpxdzrmtS94Nq1qotQ/cWrW0iOS3gpG8wFSniOoYhKF0IheS3iprQ4AlAeI6il+W73e5LeKkiZzoUDiOoYmEFoIZeS3hw3Os5lo4jqOS3gpG8wFSniOoYhKF0IheS3iprQ4AlAeI6il+W73e5LeKkiZzoUDiOoYmEFoIZeS3hw3Os5lo4jqOS3gpG8wFSniOoYhKF0IheS3iprQ4AlAeI6il+W73e5LeKkiZzoUDiOoYmEFoIZeS3hw3Os5lo4jqOS3gpG8wFSmTR18YcdS9RieOfk+ruqYX1X1MuXwV9TdQwjqrqVHx+T6u6pgXU3UpXIPnm0dQxMILQQy8lvDhudZzLRxHUclvBSN5gKlPEdQxCULoRC8lvFTWhwBKA8R1FL8t3u9yW8VJEznQoHEdQxMILQQy8lvDhudZzLRxHUclvBSN5gKlPEdQxCULoRC8lvFTWhwBKA8R1FL8t3u9yW8VJEznQoHEdQxMILQQy8lvDhudZzLRxHUclvBSN5gKlPEdQxCULoRC8lvFTWhwBKA8R1FL8t3u9yW8VJEznQoENdpvap6JrUXaXaue3tRdVdqpvGs21w3a7Te1T0TWou0u1c9vai6q7VTeNZtrhu12m9qnomtRdpdq57e1F1V2qm8azbXDdrtN7Pt95DkzJu/ZNIA5ZFd1BvGTY4adRg7pkJzTQw2MyPUnjOGu42tVN41m2uG7Xab2qeia1F2l2rnt7UXVXaqbxrNtcN2u03tU9E1qLtLtXPb2ouqu1U3jWba4btdpvap6JrUXaXaue3tRdVcYt9AWLoJBlJk2MOnQXYVgBi30MxEYkUVxk2MPvP9vi4t9DIo2IlCc5NjDpqd2dZwYt9AXzQIhiXk2MYt9AWLoJBlJk2MOnQXYVgBi30MxEYkUVxk2MPvP9vi4t9DIo2IlCc5NjDpqd2dZwYt9AXzQIhiXk2MYt9AWLoJBlJk2MOnQXYVgBi30MxEYkUVxk2MPvP9vi4t9DIo2IlCc5NjDpqd2dZwYt9AXzQIhiXk2MYt9AWLoJBlImosJfpJ7P4vnk4qf5BRYY+r9QxL8NVD71PpuKZ+SViG223idTZQ6andnWcGLfQF80CIYl5NjGLfQFi6CQZSZNjDp0F2FYAYt9DMRGJFFcZNjD7z/b4uLfQyKNiJQnOTYw6andnWcGLfQF80CIYl5NjGLfQFi6CQZSZNjDp0F2FYAYt9DMRGJFFcZNjD7z/b4uLfQyKNiJQnOTYw6andnWcGLfQF80CIYl5NjGLfQFi6CQZSZNjDp0F2FYAYt9DMRGJFFcZNjD7z/b4uLfQyKNiJQnMOdc1qXvBtWtVFqH7i1a2kWpmiGzracXc65rUveDataqLUP3Fq1tItTNENnW04u51zWpe8G1a1UWofuLVraRamaIbOtpxdzrmhP8yh3uOoqf5DRYY+r9QxL8MVD71PpuKZ+SViG+0CJxTNENnW04u51zWpe8G1a1UWofuLVraRamaIbOtpxdzrmtS94Nq1qotQ/cWrW0i1M0Q2dbTi7nXNal7wbVrVRah+4tWtpEZprGQbmSoKcK6gTMjEiXBc01hw4RUUdoOFdQD9r+bv5prBgrqS5GDhXUCeiYjk2LmmsLph3ClGRhXUZprGQbmSoKcK6gTMjEiXBc01hw4RUUdoOFdQD9r+bv5prBgrqS5GDhXUCeiYjk2LmmsLph3ClGRhXUZprGQbmSoKcK6gTMjEiXBc01hw4RUUdoOFdQD9r+bv5prBgrqS5GDhXUCeiYjk2LmmsLph3ClGRhXUZprGQbmSoKZUZ1KcPJfB67lFT/IaLDH1fqGJfhqofep9NxTPySsQ3/V2CJ0Z1AnomI5Ni5prC6YdwpRkYV1GaaxkG5kqCnCuoEzIxIlwXNNYcOEVFHaDhXUA/a/m7+aawYK6kuRg4V1AnomI5Ni5prC6YdwpRkYV1GaaxkG5kqCnCuoEzIxIlwXNNYcOEVFHaDhXUA/a/m7+aawYK6kuRg4V1AnomI5Ni5prC6YdwpRkYV1GaaxkG5kqCnCuoEzIxIlwXNNYcOEVFHaDhXUA/a/m7+aawYK6kuRgw12m9qnomtRdpdq57e1F1V2qm8azbXDdrtN7VPRNai7S7Vz29qLqrtVN41m2uG7Xab2qeia1F2lw6qVNY/JJ5V+oenSSBIecocUnqTp0Tdcl/VHTMP6/QCOyrRnKHDbqfppLcMp/VHTMZyhw3r1CS4Cqf1R0zD2clPXc5Paa6PVaa6Q1pbsT+rHVgqh9OzYQ6pTwr2jlSzproNYqDtbXcbWqm8azbXDdrtN7VPRNai7S7Vz29qLqrtVN41m2uG7Xab2qeia1F2l2rnt7UXVXaqbxrNtcN2u03tU9E1qLtLtXPb2ouquMHGL4334zkc7n+VjBx2MX9+M5Hq0YOO/i/sRnI4PP81GDjKcb7EZyMHGL4334zkc7n+VjBx2MX9+M5Hq0YOO/i/sRnI4PP81GDjKcb7EZyMHGL4334zkc7n+VjBx2MX9+PGh3J2mgwJqUvzdrHu4x7uMc7jHu4K2IKcpEFTXpkSILEVGMRUoxFSjEVGCiKFahk+SsR8lYj5KxHyViPkrENv0dNozccHn+ajBxlON9iM5GDjF8b78ZyOdz/Kxg47GL+/Gcj1aMHHVXVbfo2mLlPpzxK6ho9UO6cUp/TOpWkqmzwcZTjfYjORg4xfG+/Gcjnc/ysYOOxi/vxnI9WjBx38X9iM5HB5/mowcZTjfYjORg4xfG+/Gcjnc/ysYOOxi/vxnI9WjBx38X9iznXNal7wbVrVRah+4tWtpFqZohs62nF3Oua1L3g2rWqi1D9xatbSLUzRDZ1tOLudc1qXvBtWtVEeLf+FEijLUhrUFpXUXkqQFxIztwmosgyA8crcVRCp1F5h0OIrs5q4U5yeuWXSzMrdzUHiKvSW6WtSeEfVsSsxUfpvmQ5qLwdRooU9Q+tPIcujjqDEKAO3C3lRGrIPMLNzB3jhDqmoS2dHJUngVN9kETimaIbOtpxdzrmtS94Nq1qotQ/cQYowiIUvV3Uh+pa65frX044kyQVPTfUtV6aqUnjHpnqSm9RUsT1k62nF3Oua1L3g2rWqi1D9xatbSLUzRDZ1tOLudc1qXvBtWtVFqH7i1a2kRmnUJqZ3CkhXhWsFZCYjm5FmnUBOqpKmE+Fawf9r+XsZp1Dduioo7psK1grwjEim4s06jHtzJSZWFaxmnUJqZ3CkhXhWsFZCYjm5FmnUBOqpKmE+Fawf8Aa/l7GadQ3boqKO6bCtYK8IxIpuLNOox7cyUmVhWsZp1CamdwpIV4VrBWQmI5uRZp1ATqqSphP41sxtU0CSKRpVKF+gN4P6xTYa7dbif4+OK5/ixh3+INIefkFBhl6p1JH/T5Q89Y6cjqH1p5D31amw29Qq8S/HJw63aNDP1mow2228YZpOCvCMSKbizTqMe3MlJlYVrGadQmpncKSFeFawVkJiObkWadQE6qkqYT4VrB/wBr+XseJ/U7oHS5GsqC0k4fomqK3R5OEqcA6S6pfdM1VDxvTg06rsgVAGFaxmnUJqZ3CkhXhWsFZCYjm5FmnUBOqpKmE+Fawf8Aa/l7GadQ3boqKO6bCtYK8IxIpuLNOox7cyUmVhWsZp1CamdwpIV4VrBWQmI5uRZp1ATqqSphPhWsH/a/l7GadQ3boqKO6aGu03tU9E1qLtLtXPb2ouqu1U3jWba4btdpvap6JrUXaXaue3tRdVdqpvGs21w3a7Te1T0TWou0uPHWXwl09FJ0qlC/QG8H9YpsNdutxP8AHhxXP8WMO/xBnDz1+gwx9U6kj/p8PPWOnI6h9aeQ99WpsNfUKvH/AFycOt2jQz9ZqMNdttaqbxrNtcN2u03tU9E1qLtLtXPbx4rPJkq9PaS6YD8rMxb9Q0yQl8sXg91ZNm/nQXVmu03tU9E1qLtLtXPb2ouqu1U3jWba4btdpvap6JrUXaXaue3tRdVcYxjBmLQIiFRlH0NXR3Z0APjGMPRDYiSVtlH0MfP9zlYxjDwpGJEib5R9DVqF2FBz4xjBnzoJCCHlH0YxjBmLQIiFRlH0NXR3Z0APjGMPRDYiSVtlH0MfP9zlYxjDwpGJEib5R9DVqF2FBz4xjBnzoJCCHlH0YxjBmLQIiFRlH0NXR3Z0APjGMPRDYiSVt4wuTHRQ5kpGlUoX6A3g/rFNhrt1uJ/jw4rn+LGHf4gzh56/QYZeqdSR/wBPlDz1jpyOofWnkPfVqbDX1CrxL8cnDrdo0M/WahDfabxOpvoatQuwoOfGMYM+dBIQQ8o+jGMYMxaBEQqMo+hq6O7OgB8Yxh6IbESStso+hj5/ucrxOWifW9UQmiI+SlNZXMEZhEERcnNPe/8AhROpnVVpDF8jGMYMxaBEQqMo+hq6O7OgB8Yxh6IbESStso+hj5/ucrGMYeFIxIkTfKPoatQuwoOfGMYM+dBIQQ8o+jGMYMxaBEQqMo+hq6O7OgB8Yxh6IbESStso+hj5/ucrGMYeFIxIkTeHOua1L3g2rWqi1D9xatbSLUzRDZ1tOLudc1qXvBtWtVFqH7i1a2kWpmiGzracWr1ZZUClHqT0/jP0isJUS/1S6Zhn4sdLgcjIr/Wro+Kh4w9JuQpQjrvqql19NOkypBW6QPBmmGmTZIawtVOW6A4mPGjK8JLs0zgpaRWjAJNrITbGO6C1aOCqoxHzJ1MOGE4fnlxqJisfBZ0Yrpg4nXDCNVnRBFXTiuW55jnTRndFl2aZwJtIJjSFakmJdOE6O4kJUkGGuc/FLpmGfjJ0iFsgS/8AWvo+DeKvTCzFXL/VLpmKB4ldOV6rNqazc65rUveDataqLUP3EeJH5zXopPpjP+jqdv8AK4AeXhQ/mSm1FiqHHxm3N8O2uKYmcnwfjFa1UWofuLVraRamaIbOtpxdzrmtS94Nq1qotQ/cWrW0iOW6hu4Os4UL4zeH4hBaEILluopq5nOtJ+M3iq+X7PY5bqKYhJwKWbjN4fGKJ0VAuW6gQgTAJSuM3jluobuDrOFC+M3h+IQWhCC5bqKauZzrSfjN4qvl+z2OW6imIScClm4zeHxiidFQLluoEIEwCUrjN48RDnX0fU5LatlujyEjAOowDqMA7jAOodUk7UEzLplHcVJJpi+kX8fSL+PpF/H0i/ip0o9NUGRW1HcOAIMnAOowDqMA6jAOocgW3OsKvpJ/H0i/j6Rfx9Iv4+kX8NwLcHQFOAdRgHcYB3GAdw5o7huBZleHKlI6xp00t3B1nChfGbw/EILQhBct1FNXM51pPxm8VXy/Z7HiQJSOrni1UJcl0pv/AEdSolOnJVHTXVD/AKccOzs3niD1m7nP5zVmsOJz70nTxM/jJp1L1CzVJTdh4q9XtfhI3TfirQH50iqqUsSjQQNV8v2exy3UUxCTgUs3Gbw+MUToqBct1AhAmASlcZvHLdQ3cHWcKF8ZvD8QgtCEFy3UU1cznWk/GbxVfL9nsct1FMQk4FLNDXab2qeia1F2l2rnt7UXVXaqbxrNtcN2u03tU9E1qLtLtXPb2ouqu1U3jWba4beIP4hUoovqI4bTn8a1BpqwLacOJzzVPlDac+/Wo/WfTso6d9MrUFUv6UaTh3Of1DRpQxVPIdTQpS/pEU46p/wpcHnOVAb/AAcTnlaXKG0582sR8VfT/wAYcTnkKPFX9ScRU5zz9GlDGast1BElL+jlTh9NWS6clKmznPqOrynSvUm8N5zydWhM1fT65w5nPlUWATnmKlKG85zoDr4+Hf5fToa7Te1T0TWou0u1c9vHiyxml1Sn8ulz/ETkE71wBnDCYhA6fT+kzjplPF/ikYk/4/CULbNif5mobEnx+R7SXLVKlx0n1X1LQ3gA0qrTLMLKZYouqu1U3jWba4btdpvap6JrUXaXaue3tRdVdnOua1L3g2rWqi1D9xatbSLUzRDZ1tOLudc1qXvBtWtVFqH7i1a2kWpmiGzracW8VUfL0LVYovqI4bfzW4N6A1hx63T4bf79bj/rso6e9MrcF/EmkPPyOiwx9Q6nhX4gGOqf8KXB/wAfbw49WpUNt6sx/wBelDj1GjRV/UnEVP8AIKLDH1fqGJfhqofep9NxTPySsRSvUm8N/VKtCfx5cOduiQ39ZqcNvQHUeFP55Soc65rUveDataqLUP3EeI1AnWek3oR0p7xHgTR+k5SnKxF/PP8AT+quP5EVxh+GNAm4eErB6JKU+TatbSLUzRDZ1tOLudc1qXvBtWtVFqH7i1a2kRyW8FI3mAqU8R1DEJQuhELyW8VNaHAEoDxHUUvy3e73JbxUkTOdCgcR1DEwgtBDLyW8OG51nMtHEdRyW8FI3mAqU8R1DEJQuhELyW8VNaHAEoDxHUUvy3e73JbxUkTOdCgcR1DEwgtBDLyW8OG51nMtHEdR4plbz6HqiR0X1EcNv5rcG9Aaw49bp8Nv9+tx/wBdlHT3plbgv4k0h5+R0WGPqHU8K/EAx1T/AIUuD/j7eHHq1KhtvVmP+vQ49Ro0Vf1JxFT/ACGiwx9X6hiX4YqH3qfTcU38krEUr1NvDf1SrQn8eXDnbokN/WanDb0B1HhYqSOuqXOZSN5gKlPEdQxCULoRC8lvFTWhwBKA8R1FL8t3u9yW8eJHS0qHW1na0CrJmlLM8FJ8f/GX9VUq6RyUBv0z02/6jqSWjZlSJsGgGjal+W73e5LeKkiZzoUDiOoYmEFoIZeS3hw3Os5lo4jqOS3gpG8wFSniOoYhKF0IheS3iprQ4AlAeI6il+W73e5LeKkiZzoUCGu03tU9E1qLtLtXPb2ouqu1U3jWba4btdpvap6JrUXaXaue3tRdVdqpvGs21w28QfxCpRRfURw2/mtwb0BrDj1unw2/363H/XZR096ZW4L+JNIefkdFhj6h1PCvxAMdU/4UuD/j7eHHq1KhtvVmP+vShx6jRoq/qTiKp+QUWGPq/UMS/DFQ+9T6bimfklYilepN4b+qVaE/jy4c7dEhv6zU4begOo8O/wAvp0Ndpvap6JrUXaXbqmuUWmoDN3WPFQCJKHSKjV6tWHMiPab06tU0leFJ8P8AxT/S4qrJv8ZTe1hy5lNCemukapXyymLo+jsKMPhsYrnt7UXVXaqbxrNtcN2u03tU9E1qLtLtXPb2ouquMW+gLF0EgykybGHToLsKwAxb6GYiMSKK4ybGH3n+3xcW+hkUbEShOcmxh01O7Os4MW+gL5oEQxLybGMW+gLF0EgykybGHToLsKwAxb6GYiMSKK4ybGH3n+3xcW+hkUbEShOa91Owo1GeP4deMTU51lj/AFbawLxybDENES8dGkpR1H4iArNGdU9LByhq6SZcqtTU934TqlLmJIZzrFPUVBZpq9NTMs5O6i0Iym2BRas1YCdjPOu0KbdLeaupKOowjKR1FRkLOtOdoPGk2it1VvUJtuy3qTJLITc86xTlEGSaavTkqIqWUpfZ7MTrFOUsa5vXCXDspkr6kpBCiMRHUdGQQxE52g8bjQvqKjLWBakdSUgZiHQzOlu7EZUqxTkkIuWUpfZmGJ1enKUJU5VinSIskj1JkpkVuDpusIotZbVBYvF5qMo1x/rs1h143tjgWOCeLf8A/JXi31EhU5tal151hUZKk4C1du1zUNr0ydfwU5aU9mzl8AlJ8P0lFXqBGkgpFKvPonXn0LrNRVBHRzqkldK6K6kqc09qgeFFFbykt+OkukDQgbMRGJFFcZNjD7z/AG+Li30MijYiUJzk2MOmp3Z1nBi30BfNAiGJeTYxi30BYugkGUmTYw6dBdhWAGLfQzERiRRXGTYw+8/2+Li30MijYiUJzDnXNal7wbVrVRah+4tWtpFqZohs62nF3Oua1L3g2rWqi1D9xatbSI8RS9vpF9KGDPmOO1H07KJdOSnOUo+lZR9Kyj6VlH0rKPpWUfSso+lZR9Kyj6VlH0rKPpWUfSso+lZR9Kyj6VlH0rKPpWUfSso+lZR9Kyj6VlH0rKPpWUfSso+lZR9Kyj6VlH0rKPpWUfSso+lZR9Kyj6VlH0rKPpWUJ6WF/wC4fTVOT/kGl04P6o/iXwlBSfD9JWqLrkOylii+GtGXSWS6inw06UlP9W3hd0MD9YDRaQwaGmynOc/5pe8G1a1UWofuLVraRamaIbOtpxdzrmtS94Nq1qotQ/cWrW0iM01jINzJUFOFdQJmRiRLguaaw4cIqKO0HCuoB+1/N3801gwV1JcjBwrqBPRMRybFzTWF0w7hSjIwrqM01jINzJUFOFdQJmRiRLguaaw4cIqKO0HCuoB+1/N3801gwV1JcjB8WGRmvSnxXQJedJZH+Sf/AKgpfh+ibVd1x2apS6HoqKt1IyEZVMOdUzIwrqM01jINzJUFOFdQJmRiRLguaaw4cIqKO0HCuoB+1/N3801gwV1JcjBwrqBPRMRybFzTWF0w7hSjIwrqM01jINzJUFOFdQJmRiRLguaaw4cIqKO0HCuoB+1/N3801gwV1JcjBhrtN7VPRNai7S7Vz29qLqrtVN41m2uG7Xab2qeia1F2lx13W3PT3ThKi2YdW0rqhkA7OKLqrjxpT8ej0TigbhLS/ScrlKIKJkJ/bUpKUzUptX2h3ZAT/slKMI1EIwrbZ44IL+44dDEn/wAr1V5yXapy8OqHjKHySttcN2m0COtvEpjSjDplOqeia1F2l2rnt7UXVXaqbxrNtcN2u03tU9E1qLtLtXPb2ouquMHGL4334zkc7n+VjBx2MX9+M5Hq0YOO/i/sRnI4PP8ANRg4ynG+xGcjBxi+N9+M5HO5/lYwcPTsengLfPPELr4nVJwt27V05aOEOG1E8UzD+QVYo3iD0qQUhtvFJ/KodGOfkoU/hUJSj4Tif6fyWqU8MvuOupxJ+Mmzt66eL+Y9OrrhomQiNqxTnHw+WX6/rL+mf6frM1UpwPj87jqcCfjJu8qTx7P70MK67aSkhTauU5x8JTTOSpfFP9BTgDL5iu+pGgvjIDx+6er+Y0M6++byklYOo6eT4SIF20N/tfCf9RCDEn5iPeoWiJTSF29O7X8xWlVdtpSTIFdZk+EiVKpgS0nIHQ3TBOpK+BpOdHTL9JZJQJdiTjqZq1TNTir9f9H0+SpBrviHXKolYQfLL4TlHRHiS1eMW9ErSKNJaUql2MX9+M5Hq0YOO/i/sRnI4PP81GDjKcb7EZyMHGL4334zkc7n+VjBx2MX9+M5Hq0YOO/i/sWc65rUveDataqLUP3Fq1tItTNENnW04u51zROcpSnOc+pTs3KJtat1j4qOpTRTqrQPEGom5NT+keqYR0Z1cT4/J9D9ZQTozqxE/gsnTHUzZuVaxKJJaZink5/ypu8V/lJk7nL9OE8jhPI4TyOC8gbepC/20OuoEfxKo9RSjJ9RROodRThZq8v/ACW1qBP8+C7jgvI4TyOC8jgvI4LyBtqiKfxGh31Aj+JVLqKUTqPUU4Iaul/zmyeqn8VcF5HCeRwXkcJ5HBeRwXcIFVR/4IddQI/iVR6ilGT6hhVQ6inBT1xf+amztc/iriuY4rmOI5ibZxKU5zhn0v14CXzs5UzxXlL4SNR/EEs1SMrpHqlc/mX9D9ZRPojrGUpzn9I9Uwno7qtc/lTQweLFC+EmA+tOuFgQKrMqqh38JKofuLVraRamaIbOtpxdzrmtS94Nq1qotQ/cWrW0iM06hNTO4UkK8K1grITEc3Is06gJ1VJUwnwrWD/tfy9jNOobt0VFHdNhWsFeEYkU3FmnUY9uZKTKwrWM06hNTO4UkK8K1gzMTFE3A806gB11JcwmwzaD/tfy9jNOoAFNSRMxndBamaOAzmNbU6hr+Px+E7Bn+s5f/RLJJMTVNU/jP+iouf8A4U+FvR+YqCqo7M+MyIpuPNOoRTAHSkysM2jNOoTUzuFJCvDNoMzExRNwPNOoAddSXMJsM2g/7X8vYzTqG7dFRR3TYVrBXhGJFNxZp1GPbmSkysK1jNOoTUzuFJCvCtYKyExHNyLNOoCdVSVMJ8K1g/7X8vYzTqG7dFRR3TQ12m9qnomtRdpdq57e1F1V2qm8azbXDdrtN7VPRNai7S7Vz29qLqrt4i0zG9Z1cMmZO42HOyZ/KqU//oJ/pKFl+P6J/pduZAH+nT1CfdQVhtTmtKprOj0xrTmVU3jWba4btdpvap6JrUXaXaue3tRdVdqpvGs21w3a7Te1T0TWou0u1c9vai6q4xjGDMWgREKjKPoaujuzoAfGMYeiGxEkrbKPoY+f7nKxjGHhSMSJE3yj6GrULsKDnxjGDPnQSEEPKPoxjGDMWgREKjKPoaujuzoAfGMYeiGxEkrbKPoY+f7nKxjGHhSMSJE3yj6PGCkrKxpFclSy/BSxTsJXxl8P7dNodVqk58N70h1AzFMpP/QqJJMKUpX8/wBJSoEOa1T5DxyhKOkOl1dJMEpnlH0NWoXYUHPjGMGfOgkIIeUfRjGMGYtAiIVGUfQ1dHdnQA+MYw9ENiJJW2UfQx8/3OVjGMPCkYkSJvlH0NWoXYUHPjGMGfOgkIIeUfRjGMGYtAiIVGUfQ1dHdnQA+MYw9ENiJJW2UfQx8/3OVjGMPCkYkSJvDnXNal7wbVrVRah+4tWtpFqZohs62nF3Oua1L3g2rWqi1D9xatbSLVWiDrvSTqmr+BmrlSSJVJSZKlCZzTOU5SnKcvjL+xTGU39RaNJdd9WvGr5dCpHhz1FSQUV3kOsWbORmNTZf3pqkn+VFnP8Aj+pa0oTNSnTqZ1/NPwu6CnTRIrlUrW0i1M0Q2dbTi7nXNal7wbVrVRah+4tWtpFqZohs62nF3Oua1L3g2rWqi1D9xatbSI5bqG7g6zhQvjN4fiEFoQguW6imrmc60n4zeKr5fs9jluopiEnApZuM3h8YonRUC5bqBCBMAlK4zeOW6hu4Os4UL4zeH4hBaEILluopq5nOtJ+M3iq+X7PY5bqKYhJwKWbjN4fGKJ0VAvE2hzZ1dNTHTT/GUwzshc0z/s0Z6lhVmTpfiN087a1g9VDSqQ/rLsbRj1itu2HSKOD+5Ocpfyo3/wCs5/1rWlCZqU7dqOqOhOgySS1rdV5bqKYhJwKWbjN4fGKJ0VAuW6gQgTAJSuM3jluobuDrOFC+M3h+IQWhCC5bqKauZzrSfjN4qvl+z2OW6imIScClm4zeHxiidFQLluoEIEwCUrjN45bqG7g6zhQvjN4fiEFoQguW6imrmc60n4zeKr5fs9jluopiEnApZoa7Te1T0TWou0u1c9vai6q7VTeNZtrhu12m9qnomtRdpdq57e1F1V2qm8aK5R21apbhgd01eUx8Vs4AZJhyWmyFzTEpynL4yt8IWYKP8yVRkj+C1qf8CYOlOgzUqkdVValC7A3PXVVWFQmqlKWpSlf2pqSn+VGn/wATnOf9ghUCRNa3TpZ5/Gfhx4YrcqBWK5Wv0k2lKKLqrtVN41m2uG7Xab2qeia1F2l2rnt7UXVXaqbxrNtcN2u03tU9E1qLtLtXPb2ouquznXNal7wbVrVRah+4tWtpFqZohs62nF3Oua1L3g2rWqi1D9xatbSLUzRDbxN6UyXfqbMZyj+PbyDiMi5jIuolU3af4nVHkZB0ufwkJlV3f6Ca9DdWuvh8jLwmrxfhN3XfDhpR6cN2gYxjRJCP7cyplCiqn/acuhgl+pCHdGTKOk/DFVPAGq1yc5zih+4tWtpFqZohs62nF3Oua1L3g2rWqi1D9xatbSLUzRDZ1tOLudc1qXvBtWtVFqH7i1a2kRyW8FI3mAqU8R1DEJQuhELyW8VNaHAEoDxHUUvy3e73JbxUkTOdCgcR1DEwgtBDLyW8OG51nMtHEdRyW8FI3mAqU8R1DEJQuhELyW8VNaHAEoDxHUUvy3e73JbxUkTOdCgcR1DEwgtBDLyW8HA4W4KtHiF0Mdis1YY9F9R0xE0U2rKodEn/ADgKDEqDQpfwik0lH+AFJBL4IQ8TP9JynJX6yhy3C6bmbmqdPPTX52hf65qlL+ZlT/xMqp/xOc5/z/ZnOUvjObmoyl8UhpVJqVafJasuh+gqJ02lLpxU1ocASgPEdRS/Ld7vclvFSRM50KBxHUMTCC0EMvJbw4bnWcy0cR1HJbwUjeYCpTxHUMQlC6EQvJbxU1ocASgPEdRS/Ld7vclvFSRM50KBxHUMTCC0EMvJbw4bnWcy0cR1HJbwUjeYCpTxHUMQlC6EQvJbxU1ocASgPEdRS/Ld7vclvFSRM50KBDXab2qeia1F2l2rnt7UXVXaqbxrNtcN2u03tU9E1qLtLtXPb2ouqu1U3jWba4YWhBEKQvrfoZdMUR/T+keu1MZDY1MZBlGgg/6JTnL+EuTSiTxX/PVtLTVWkjh7yY7qI7qI70o704mVcTUqf907wIfjKbh2U3+fSXhlWK78jl42oFIoFEIzp0UXaXaue3tRdVdqpvGs21w3a7Te1T0TWou0u1c9vai6q7VTeNZtrhu12m9qnomtRdpdq57e1F1Vxi30BYugkGUmTYw6dBdhWAGLfQzERiRRXGTYw+8/2+Li30MijYiUJzk2MOmp3Z1nBi30BfNAiGJeTYxi30BYugkGUmTYw6dBdhWAGLfQzERiRRXGTYw+8/2+Li30MijYiUJzk2MOmp3Z1nBi30BfNAiGJeTYxOlvZynKfWXhW8FI1Qo/TvVlToJJjTROoaVWw/Oz/r6s6amqZKiy+P8A6AzwAf0md+YnxlLp/pKv9Qr/AG7pnwwYUQgHT3JsYdOguwrADFvoZiIxIorjJsYfef7fFxb6GRRsRKE5ybGHTU7s6zgxb6AvmgRDEvJsYxb6AsXQSDKTJsYdOguwrADFvoZiIxIorjJsYfef7fFxb6GRRsRKE5ybGHTU7s6zgxb6AvmgRDEvJsYxb6AsXQSDKTJsYdOguwrADFvoZiIxIorjJsYfef7fFxb6GRRsRKE5hzrmtS94Nq1qotQ/cWrW0i1M0Q2dbTi7nXNal7wbVrVRah+4tWtpFqZohs62nF3Hxk3NHU3Q9MrvzHRVaLW+nXiJuKH4luQySGr02rU2qC7rH+rqPpHuzI8p05TlOcp/21kQOXxWWpiT8ZDM8OSU/mo3SlerM5TaUTwzpDL5S1AQhBGgYnOua1L3g2rWqi1D9xatbSLUzRDZ1tOLudc1qXvBtWtVFqH7i1a2kWpmiGzracXc65rUveDataqLUP3Fq1tIjNNYyDcyVBThXUCZkYkS4LmmsOHCKijtBwrqAftfzd/NNYMFdSXIwcK6gT0TEcmxc01hdMO4UoyMK6jNNYyDcyVBThXUCZkYkS4LmmsOHCKijtBwrqAftfzd/NNYMFdSXIwcK6gT0TEcmxc01hdMO4UoyMK6jNNYyDcyVBThXUGo4pBXz+pPC6lnUs9Bf0qt0JzKbql+I1dZyShzT/EXp118JOGr1k8R87Wcpy/m9b6ZY1X4klU6RUKWX5HX9SlJT+qlvmqIXVJf+wj9yuU/iwpVVqpfkY03wprJCSylB6K6Jo/yrkqlnPOZUYV1GaaxkG5kqCnCuoEzIxIlwXNNYcOEVFHaDhXUA/a/m7+aawYK6kuRg4V1AnomI5Ni5prC6YdwpRkYV1GaaxkG5kqCnCuoEzIxIlwXNNYcOEVFHaDhXUA/a/m7+aawYK6kuRg4V1AnomI5Ni5prC6YdwpRkYV1GaaxkG5kqCnCuoEzIxIlwXNNYcOEVFHaDhXUA/a/m7+aawYK6kuRgw12m9qnomtRdpdq57e1F1V2qm8azbXDdrtN7VPRNai7S7Vz29qLqrtVN41m2uG7Xab2qeia1NCA5CiPXPCLpSofOVtXPCTqOmzlNq6pdXpa/mcM+reo2kpSADxL6iH/ALofFQn6d5HilTJ/5y8T6B/yXxJ6ZMNQy1SrdMlnMlOnVB/8Tqn/AOJ1Qv8AwqoOp/wt2af+bSm1J+qUmjbw46xN8k1sfCYn6Tf9O+HHRrUXdWEIQDkMVU3jWba4btdpvap6JrUXaXaue3tRdVdqpvGs21w3a7Te1T0TWou0u1c9vai6q7VTeNZtrhu12m9qnomtRdpdq57e1F1Vxg4xfG+/Gcjnc/ysYOOxi/vxnI9WjBx38X9iM5HB5/mowcZTjfYjORg4xfG+/Gcjnc/ysYOOxi/vxnI9WjBx38X9iM5HB5/mowcZTjfYjORg4xfG+/Gcjnc/ysYOOxi/vxnI9WidF/8AGcp1Lpfpec+29deG/Rh/jMcvBFg5Ekrc/ge9ROchF8I6wMi0RLwnrMf6H1yX6ql4JPJIWsgvCVnL/dY+EvTJSoEsHhF0kGAdLUCiSkYSKylCflT6tGDjv4v7EZyODz/NRg4ynG+xGcjBxi+N9+M5HO5/lYwcdjF/fjOR6tGDjv4v7EZyODz/ADUYOMpxvsRnIwcYvjffjORzuf5WMHHYxf34zkerRg47+L+xGcjg8/zUYOMpxvsRnIwcYvjffjORzuf5WMHHYxf34zkerRg47+L+xZzrmtS94Nq1qotQ/cWrW0i1M0Q2dbTi7nXNal7wbVrVRah+4tWtpFqZohs62nF3Oua1L3g2rWqi1D9xatbSLUzRDZ1tOLudc1qXvBtWtVFqH7i1a2kWpmiGzracXc65rUveDataqLUP3Fq1tItTNENnW04u51zWpe8G1a1UWofuLVraRamaIbOtpxdzrmtS94Nq1qotQ/cWrW0iznXNal7wbVrVRah+4tWtpFqZohs62nF3Oua1L3g2rWqi1D9xatbSLUzRDZ1tOLudc1qXvBtWtVFqH7i1a2kWpmiGzracXc65rUveDataqLUP3Fq1tItTNENnW04u51zWpe8G1a1UWofuLVraRamaIbOtpxdzrmtS94Nq1qotQ/cWrW0i1M0Q2dbTi7nXNal7wbVrVRah+4tWtpEf/8QARxAAAQICBgcGBAQEBgEEAgMAAQACAxEEEBIhU7FBUWKRkqLREyIxssHhBSNScTJCgpMgMFRyBhRhc4GhlCQ0UMJAYzNEs//aAAgBAQAJPwBYbsqtrymrFGRq2PWrCGZq2szViuzrw3ZVbXlNWKMjVsetWEMzVtZmrFdnXhuyq2vKasUZGrY9asIZmrazNWK7OvDdlVteU1YoyNWx61YQzNW1masV2deG7Kra8pqxRkatj1qwhmatrM1Yrs68N2VW15TVijI1bHrVhDM1bWZqxXZ14bsqtrymrFGRq2PWrCGZUaHxBRmOe6G4ABwJJI8AqPF4SobmME5ucJAXayo0PiCcIjhEBIZ3jKRvuVHi8JXy7Vmzb7s5T1qND4gmmI0QwJsFoTmdSo8XhKiNY8Tm1xkRMqND4goL3Nc9xBDSQQSqPF4So0PiCjMc90NwADgSSR4BUeLwlQ3MYJzc4SAu1lRofEE4RHCICQzvGUjfcqPF4Svl2rNm33ZynrUaHxBNMRohgTYLQnM6lR4vCVEax4nNrjIiZUaHxBQXua57iCGkgglUeLwlRofEFGY57obgAHAkkjwCo8XhKhuYwTm5wkBdrKjQ+IJwiOEQEhneMpG+5UeLwlfLtWbNvuzlPWo0PiCaYjRDAmwWhOZ1KjxeEqI1jxObXGREyo0PiCgvc1z3EENJBBKo8XhKjQ+IKMxz3Q3AAOBJJHgFR4vCVDcxgnNzhIC7WVGh8QThEcIgJDO8ZSN9yo8XhK+Xas2bfdnKetRofEE0xGiGBNgtCczqVHi8JURrHic2uMiJlRofEFBe5rnuIIaSCCVR4vCVGh8QUZjnuhuAAcCSSPAKjxeEqG5jBObnCQF2sqND4gnCI4RASGd4ykb7lR4vCV8u1Zs2+7OU9ajQ+IJpiNEMCbBaE5nUqPF4SojWPE5tcZETKjQ+IKC9zXPcQQ0kEEqjxeEqND4gozHPdDcAA4EkkeAVHi8JUNzGCc3OEgLtZUaHxBOERwiAkM7xlI33KjxeEr5dqzZt92cp61Gh8QTTEaIYE2C0JzOpUeLwlRGseJza4yImVGh8QUF7mue4ghpIIJVHi8JUaHxBRmOe6G4ABwJJI8AqPF4SobmME5ucJAXayo0PiCcIjhEBIZ3jKRvuVHi8JXy7Vmzb7s5T1qND4gmmI0QwJsFoTmdVWK3OrZzFWEcxVt+lWKchVs+UVYbcq8VudWzmKsI5irb9KsU5CrZ8oqw25V4rc6tnMVYRzFW36VYpyFWz5RVhtyrxW51bOYqwjmKtv0qxTkKtnyirDblXitzq2cxVhHMVbfpVinIVbPlFWG3KvFbnVs5irCOYq2/SrFOQq2fKKsNuVeK3OrZzFWEcxVt+lWKcgoPM1QpMY4OcZi4C8qNylPtPdKQkRORnpUHmam2GlhaD43m/Qo3KV37E7WiU/vJQeZqNh5daA8biJaFG5SmWobpSMwJyEtKg8zVEk9jQ1wkTIi4qNylQeZqhSYxwc4zFwF5UblKfae6UhIicjPSoPM1NsNLC0HxvN+hRuUrv2J2tEp/eSg8zUbDy60B43ES0KNylMtQ3SkZgTkJaVB5mqJJ7GhrhImRFxUblKg8zVCkxjg5xmLgLyo3KU+090pCRE5GelQeZqbYaWFoPjeb9CjcpXfsTtaJT+8lB5mo2Hl1oDxuIloUblKZahulIzAnIS0qDzNUST2NDXCRMiLio3KVB5mqFJjHBzjMXAXlRuUp9p7pSEiJyM9Kg8zU2w0sLQfG836FG5Su/Yna0Sn95KDzNRsPLrQHjcRLQo3KUy1DdKRmBOQlpUHmaoknsaGuEiZEXFRuUqDzNUKTGODnGYuAvKjcpT7T3SkJETkZ6VB5mpthpYWg+N5v0KNyld+xO1olP7yUHmajYeXWgPG4iWhRuUplqG6UjMCchLSoPM1RJPY0NcJEyIuKjcpUHmaoUmMcHOMxcBeVG5Sn2nulISInIz0qDzNTbDSwtB8bzfoUblK79idrRKf3koPM1Gw8utAeNxEtCjcpTLUN0pGYE5CWlQeZqiSexoa4SJkRcVG5SoPM1QpMY4OcZi4C8qNylPtPdKQkRORnpUHmam2GlhaD43m/Qo3KV37E7WiU/vJQeZqNh5daA8biJaKsN2VW15TVijI1bHrVhDM1bWZqxXZ14bsqtrymrFGRq2PWrCGZq2szViuzrw3ZVbXlNWKMjVsetWEMzVtZmrFdnXhuyq2vKasUZGrY9asIZmrazNWK7OvDdlVteU1YoyNWx61YQzNW1masV2deG7Kra8pqxRkatj1qwhmatrM1Yrs68N2VW15TVijI1bHrVhDMpkXcOqa+1EBY0kCQLrk+FvPROaWsnMNJJvuTIu4dUC1zTbJfcJC7RPWnwt56LvdpKzYv/AA65y1pkXcOqIa1osd+4zF+ietPhbz0QcXs8S28X3pkXcOqcwNiEvAJM5OvT4W89EyLuHVNfaiAsaSBIF1yfC3nonNLWTmGkk33JkXcOqBa5ptkvuEhdonrT4W89F3u0lZsX/h1zlrTIu4dUQ1rRY79xmL9E9afC3nog4vZ4lt4vvTIu4dU5gbEJeASZydenwt56JkXcOqa+1EBY0kCQLrk+FvPROaWsnMNJJvuTIu4dUC1zTbJfcJC7RPWnwt56LvdpKzYv/DrnLWmRdw6ohrWix37jMX6J60+FvPRBxezxLbxfemRdw6pzA2IS8Akzk69Phbz0TIu4dU19qICxpIEgXXJ8Leeic0tZOYaSTfcmRdw6oFrmm2S+4SF2ietPhbz0Xe7SVmxf+HXOWtMi7h1RDWtFjv3GYv0T1p8LeeiDi9niW3i+9Mi7h1TmBsQl4BJnJ16fC3nomRdw6pr7UQFjSQJAuuT4W89E5paycw0km+5Mi7h1QLXNNsl9wkLtE9afC3nou92krNi/8OuctaZF3DqiGtaLHfuMxfonrT4W89EHF7PEtvF96ZF3DqnMDYhLwCTOTr0+FvPRMi7h1TX2ogLGkgSBdcnwt56JzS1k5hpJN9yZF3DqgWuabZL7hIXaJ60+FvPRd7tJWbF/4dc5a0yLuHVENa0WO/cZi/RPWnwt56IOL2eJbeL70yLuHVOYGxCXgEmcnXp8LeeiZF3DqmvtRAWNJAkC65Phbz0TmlrJzDSSb7kyLuHVAtc02yX3CQu0T1p8Leei73aSs2L/AMOuctaZF3DqiGtaLHfuMxfonrqxW51bOYqwjmKtv0qxTkKtnyirDblXitzq2cxVhHMVbfpVinIVbPlFWG3KvFbnVs5irCOYq2/SrFOQq2fKKsNuVeK3OrZzFWEcxVt+lWKchVs+UVYbcq8VudWzmKsI5irb9KsU5CrZ8oqw25V4rc6tnMVYRzFW36VYpyFWz5RVhtyrxW51bOYqwjmKtv0qxTkFSOT3Ua12ffs2ZTs3qj8/sodi3+ac5SvVI5PdO7S13LMrPjfPTqVH5/ZfK7L9U7W7UqRye6b2lrv2p2fG6WnUqPz+yiWLf5ZTlK5Ujk91Btdn3LVqU7Nyo/P7Kkcnuo1rs+/ZsynZvVH5/ZQ7Fv8ANOcpXqkcnundpa7lmVnxvnp1Kj8/svldl+qdrdqVI5PdN7S137U7PjdLTqVH5/ZRLFv8spylcqRye6g2uz7lq1Kdm5Ufn9lSOT3Ua12ffs2ZTs3qj8/sodi3+ac5SvVI5PdO7S13LMrPjfPTqVH5/ZfK7L9U7W7UqRye6b2lrv2p2fG6WnUqPz+yiWLf5ZTlK5Ujk91Btdn3LVqU7Nyo/P7Kkcnuo1rs+/ZsynZvVH5/ZQ7Fv805yleqRye6d2lruWZWfG+enUqPz+y+V2X6p2t2pUjk903tLXftTs+N0tOpUfn9lEsW/wAspylcqRye6g2uz7lq1Kdm5Ufn9lSOT3Ua12ffs2ZTs3qj8/sodi3+ac5SvVI5PdO7S13LMrPjfPTqVH5/ZfK7L9U7W7UqRye6b2lrv2p2fG6WnUqPz+yiWLf5ZTlK5Ujk91Btdn3LVqU7Nyo/P7Kkcnuo1rs+/ZsynZvVH5/ZQ7Fv805yleqRye6d2lruWZWfG+enUqPz+y+V2X6p2t2pUjk903tLXftTs+N0tOpUfn9lEsW/yynKVypHJ7qDa7PuWrUp2blR+f2VI5PdRrXZ9+zZlOzeqPz+yh2Lf5pzlK9Ujk907tLXcsys+N89OpUfn9l8rsv1TtbtSpHJ7pvaWu/anZ8bpadVWG7Kra8pqxRkatj1qwhmatrM1Yrs68N2VW15TVijI1bHrVhDM1bWZqxXZ14bsqtrymrFGRq2PWrCGZq2szViuzrw3ZVbXlNWKMjVsetWEMzVtZmrFdnXhuyq2vKasUZGrY9asIZmrazNWK7OvDdlVteU1YoyNWx61YQzNW1masV2deG7Kra8pqxRkatj1qwhmUyFuPVNYGxCGEgGcnXJ8XeOiLi9ngHXi+5Mhbj1UmtaLc23GYu0z1p8XeOi73aTtW7/AMOqUtaZC3HqiWlpsSZcJC/TPWnxd46JrS1kpFwJN96ZC3HqnPtRAHuAIkC69Pi7x0TIW49U1gbEIYSAZydcnxd46IuL2eAdeL7kyFuPVSa1otzbcZi7TPWnxd46LvdpO1bv/DqlLWmQtx6olpabEmXCQv0z1p8XeOia0tZKRcCTfemQtx6pz7UQB7gCJAuvT4u8dEyFuPVNYGxCGEgGcnXJ8XeOiLi9ngHXi+5Mhbj1UmtaLc23GYu0z1p8XeOi73aTtW7/AMOqUtaZC3HqiWlpsSZcJC/TPWnxd46JrS1kpFwJN96ZC3HqnPtRAHuAIkC69Pi7x0TIW49U1gbEIYSAZydcnxd46IuL2eAdeL7kyFuPVSa1otzbcZi7TPWnxd46LvdpO1bv/DqlLWmQtx6olpabEmXCQv0z1p8XeOia0tZKRcCTfemQtx6pz7UQB7gCJAuvT4u8dEyFuPVNYGxCGEgGcnXJ8XeOiLi9ngHXi+5Mhbj1UmtaLc23GYu0z1p8XeOi73aTtW7/AMOqUtaZC3HqiWlpsSZcJC/TPWnxd46JrS1kpFwJN96ZC3HqnPtRAHuAIkC69Pi7x0TIW49U1gbEIYSAZydcnxd46IuL2eAdeL7kyFuPVSa1otzbcZi7TPWnxd46LvdpO1bv/DqlLWmQtx6olpabEmXCQv0z1p8XeOia0tZKRcCTfemQtx6pz7UQB7gCJAuvT4u8dEyFuPVNYGxCGEgGcnXJ8XeOiLi9ngHXi+5Mhbj1UmtaLc23GYu0z1p8XeOi73aTtW7/AMOqUtaZC3HqiWlpsSZcJC/TPXVitzq2cxVhHMVbfpVinIVbPlFWG3KvFbnVs5irCOYq2/SrFOQq2fKKsNuVeK3OrZzFWEcxVt+lWKchVs+UVYbcq8VudWzmKsI5irb9KsU5CrZ8oqw25V4rc6tnMVYRzFW36VYpyFWz5RVhtyrxW51bOYqwjmKtv0qxTkKtnyirDblXitzq2cxVhHMVbfpVinIKDzFQ5PY0uaZkyIvCjcrU+1DdOYkBOQnoUHmKFh5dZJ8biJ6VG5Wrv2JWdEp/aSg8xTrDSwOI8bzdpUblamWnunMzInIy0KDzFRZMY4taJC4C4KNytUHmKhyexpc0zJkReFG5Wp9qG6cxICchPQoPMULDy6yT43ET0qNytXfsSs6JT+0lB5inWGlgcR43m7So3K1MtPdOZmRORloUHmKiyYxxa0SFwFwUblaoPMVDk9jS5pmTIi8KNytT7UN05iQE5CehQeYoWHl1knxuInpUblau/YlZ0Sn9pKDzFOsNLA4jxvN2lRuVqZae6czMicjLQoPMVFkxji1okLgLgo3K1QeYqHJ7GlzTMmRF4Ublan2obpzEgJyE9Cg8xQsPLrJPjcRPSo3K1d+xKzolP7SUHmKdYaWBxHjebtKjcrUy0905mZE5GWhQeYqLJjHFrRIXAXBRuVqg8xUOT2NLmmZMiLwo3K1PtQ3TmJATkJ6FB5ihYeXWSfG4ielRuVq79iVnRKf2koPMU6w0sDiPG83aVG5Wplp7pzMyJyMtCg8xUWTGOLWiQuAuCjcrVB5iocnsaXNMyZEXhRuVqfahunMSAnIT0KDzFCw8usk+NxE9KjcrV37ErOiU/tJQeYp1hpYHEeN5u0qNytTLT3TmZkTkZaFB5iosmMcWtEhcBcFG5WqDzFQ5PY0uaZkyIvCjcrU+1DdOYkBOQnoUHmKFh5dZJ8biJ6VG5Wrv2JWdEp/aSg8xTrDSwOI8bzdpqw3ZVbXlNWKMjVsetWEMzVtZmrFdnXhuyq2vKasUZGrY9asIZmrazNWK7OvDdlVteU1YoyNWx61YQzNW1masV2deG7Kra8pqxRkatj1qwhmatrM1Yrs68N2VW15TVijI1bHrVhDM1bWZqxXZ14bsqtrymrFGRq2PWrCGZq2szViuzrw3ZVbXlNWKMjVsetWEMyqRF4ioz3Nc9oILiQQSoMPhChtY8Sk5oAImdYVIi8RTjEaIZMnm0JzGtQYfCF8u1atWO7OUvGSpEXiKaIjhEItPFoykLr1Bh8IURzGCUmtMgLtQVIi8RUJjnuY0kloJJI8SoMPhCpEXiKjPc1z2gguJBBKgw+EKG1jxKTmgAiZ1hUiLxFOMRohkyebQnMa1Bh8IXy7Vq1Y7s5S8ZKkReIpoiOEQi08WjKQuvUGHwhRHMYJSa0yAu1BUiLxFQmOe5jSSWgkkjxKgw+EKkReIqM9zXPaCC4kEEqDD4QobWPEpOaACJnWFSIvEU4xGiGTJ5tCcxrUGHwhfLtWrVjuzlLxkqRF4imiI4RCLTxaMpC69QYfCFEcxglJrTIC7UFSIvEVCY57mNJJaCSSPEqDD4QqRF4ioz3Nc9oILiQQSoMPhChtY8Sk5oAImdYVIi8RTjEaIZMnm0JzGtQYfCF8u1atWO7OUvGSpEXiKaIjhEItPFoykLr1Bh8IURzGCUmtMgLtQVIi8RUJjnuY0kloJJI8SoMPhCpEXiKjPc1z2gguJBBKgw+EKG1jxKTmgAiZ1hUiLxFOMRohkyebQnMa1Bh8IXy7Vq1Y7s5S8ZKkReIpoiOEQi08WjKQuvUGHwhRHMYJSa0yAu1BUiLxFQmOe5jSSWgkkjxKgw+EKkReIqM9zXPaCC4kEEqDD4QobWPEpOaACJnWFSIvEU4xGiGTJ5tCcxrUGHwhfLtWrVjuzlLxkqRF4imiI4RCLTxaMpC69QYfCFEcxglJrTIC7UFSIvEVCY57mNJJaCSSPEqDD4QqRF4ioz3Nc9oILiQQSoMPhChtY8Sk5oAImdYVIi8RTjEaIZMnm0JzGtQYfCF8u1atWO7OUvGSpEXiKaIjhEItPFoykLr6sVudWzmKsI5irb9KsU5CrZ8oqw25V4rc6tnMVYRzFW36VYpyFWz5RVhtyrxW51bOYqwjmKtv0qxTkKtnyirDblXitzq2cxVhHMVbfpVinIVbPlFWG3KvFbnVs5irCOYq2/SrFOQq2fKKsNuVeK3OrZzFWEcxVt+lWKchVs+UVYbcq8VudWzmKsI5irb9KsU5CrDdlVteU1YoyNWx61YQzNW1masV2deG7Kra8pqxRkatj1qwhmatrM1Yrs68N2VW15TVijI1bHrVhDM1bWZqxXZ14bsqh9WRqxBkUCtj1qwxmatrM1Yrs68N2VW15TVijI1bHrVhDM1bWZqxXZ14bsqtrymrFGRq2PWrCGZq2szViuzrw3ZVbXlNWKMjVsetWEMyo0PiCjMc90NwADgSSR4BUeLwlQ3MYJzc4SAu1lRofEE4RHCICQzvGUjfcqPF4Svl2rNm33ZynrUaHxBNMRohgTYLQnM6lR4vCVEax4nNrjIiZUaHxBQXua57iCGkgglUeLwlRofEFGY57obgAHAkkjwCo8XhKhuYwTm5wkBdrKjQ+IJwiOEQEhneMpG+5UeLwlfLtWbNvuzlPWo0PiCaYjRDAmwWhOZ1KjxeEqI1jxObXGREyo0PiCgvc1z3EENJBBKo8XhKjQ+IKMxz3Q3AAOBJJHgFR4vCVDcxgnNzhIC7WVGh8QThEcIgJDO8ZSN9yo8XhK+Xas2bfdnKetRofEE0xGiGBNgtCczqVHi8JURrHic2uMiJlRofEFBe5rnuIIaSCCVR4vCVGh8QUZjnuhuAAcCSSPAKjxeEr41Tm2Y0QCUUiV6/xD8Q/fcvj1PI/3yvjdN/eK+PU4T1Riv8AEPxD99y+N0584rBfGcbpqBF4SojWPE5tcZETKjQ+IKC9zXPcQQ0kEEqjxeEqND4gozHPdDcAA4EkkeAVHi8JUNzGCc3OEgLtZUaHxBOERwiAkM7xlI33KjxeEr5dqzZt92cp61Gh8QTTEaIYE2C0JzOpUeLwlRGseJza4yImVGh8QUF7mue4ghpIIJVHi8JUaHxBRmOe6G4ABwJJI8AqPF4SobmME5ucJAXayo0PiCcIjhEBIZ3jKRvuVHi8JXy7Vmzb7s5T1qND4gmmI0QwJsFoTmdSo8XhKiNY8Tm1xkRMqND4goL3Nc9xBDSQQSqPF4So0PiCjMc90NwADgSSR4BUeLwlQ3MYJzc4SAu1lRofEE4RHCICQzvGUjfcqPF4Svl2rNm33ZynrUaHxBNMRohgTYLQnM6qsVudWzmKsI5irb9KsU5CrZ8oqw25V4rc6tnMVYRzFW36VYpyFWz5RVhtyrxW51bOYqwjmKtv0qxTkKtnyirDblXitzq/qYvnK+HwXduB35ASXw6CP8q0m1Id6S+Fwbotjs5DOS+HQT/mmgzkO7NfD4LewE7dkXr+oZ56tnyirDblXitzq2cxVhHMVbfpVinIVbPlFWG3KvFbnVs5irCOYq2/SrFOQq2fKKsNuVeK3OrZzFWEcxVt+lWKcgoPM1QpMY4OcZi4C8qNylPtPdKQkRORnpUHmam2GlhaD43m/Qo3KV37E7WiU/vJQeZqNh5daA8biJaFG5SmWobpSMwJyEtKg8zVEk9jQ1wkTIi4qNylQeZqhSYxwc4zFwF5UblKfae6UhIicjPSoPM1NsNLC0HxvN+hRuUrv2J2tEp/eSg8zUbDy60B43ES0KNylMtQ3SkZgTkJaVB5mqJJ7GhrhImRFxUblKg8zVCkxjg5xmLgLyo3KU+090pCRE5GelQeZqbYaWFoPjeb9CjcpXfsTtaJT+8lB5mo2Hl1oDxuIloUblKZahulIzAnIS0qDzNUST2NDXCRMiLio3KVB5mqFJjHBzjMXAXlReUr+piecr6VhPX9WsNi+lY7PMo3KUy1DdKRmBOQlpUHmaoknsaGuEiZEXFRuUqDzNUKTGODnGYuAvKjcpT7T3SkJETkZ6VB5mpthpYWg+N5v0KNyld+xO1olP7yUHmajYeXWgPG4iWhRuUplqG6UjMCchLSoPM1RJPY0NcJEyIuKjcpUHmaoUmMcHOMxcBeVG5Sn2nulISInIz0qDzNTbDSwtB8bzfoUblK79idrRKf3koPM1Gw8utAeNxEtCjcpTLUN0pGYE5CWlQeZqiSexoa4SJkRcVG5SoPM1QpMY4OcZi4C8qNylPtPdKQkRORnpUHmam2GlhaD43m/Qo3KV37E7WiU/vJQeZqNh5daA8biJaKsN2VW15TVijI1bHrVhDM1bWZqxXZ14bsqtrymrFGRq2PWrCGZq2szViuzrw3ZVbXlNWKMjVsetWEMzVtZmrFdnXhuyqx3+ZfSsJ6/q1hsX0LHZ5qtrM1Yrs68N2VW15TVijI1bHrVhDM1bWZqxXZ14bsqtrymrFGRq2PWrCGZq2szViuzrw3ZVbXlNWKMjVsetWEMymRdw6pr7UQFjSQJAuuT4W89E5paycw0km+5Mi7h1QLXNNsl9wkLtE9afC3nou92krNi/8ADrnLWmRdw6ohrWix37jMX6J60+FvPRBxezxLbxfemRdw6pzA2IS8Akzk69Phbz0TIu4dU19qICxpIEgXXJ8Leeic0tZOYaSTfcmRdw6oFrmm2S+4SF2ietPhbz0Xe7SVmxf+HXOWtMi7h1RDWtFjv3GYv0T1p8LeeiDi9niW3i+9Mi7h1TmBsQl4BJnJ16fC3nomRdw6pr7UQFjSQJAuuT4W89E5paycw0km+5Mi7h1QLXNNsl9wkLtE9afC3nou92krNi/8OuctaZF3DqiGtaLHfuMxfonrT4W89EHF7PEtvF96ZF3DqnMDYhLwCTOTr0+FvPRMi7h1TX2ogLGkgSBdcnwt56LRSInnK+kLCev6tYbF9Cx2eZPh7z0QcXs8S28X3pkXcOqcwNiEvAJM5OvT4W89EyLuHVNfaiAsaSBIF1yfC3nonNLWTmGkk33JkXcOqBa5ptkvuEhdonrT4W89F3u0lZsX/h1zlrTIu4dUQ1rRY79xmL9E9afC3nog4vZ4lt4vvTIu4dU5gbEJeASZydenwt56JkXcOqa+1EBY0kCQLrk+FvPROaWsnMNJJvuTIu4dUC1zTbJfcJC7RPWnwt56LvdpKzYv/DrnLWmRdw6ohrWix37jMX6J60+FvPRBxezxLbxfemRdw6pzA2IS8Akzk69Phbz0TIu4dU19qICxpIEgXXJ8Leeic0tZOYaSTfcmRdw6oFrmm2S+4SF2ietPhbz0Xe7SVmxf+HXOWtMi7h1RDWtFjv3GYv0T11Yrc6tnMVYRzFW36VYpyFWz5RVhtyrxW51bOYqwjmKtv0qxTkKtnyirDblXitzq2cxVhHMKn0ajh87JixGw7UtVohfGvh5la8KTD6r4vQP/ACIfVfG/hwPaE/8AuYfVfHfhv/kw+q+MUAgy/wD7EPV918XoH/kQ+q+O/DgRDaP/AHMPqvjvw3/yYfVfF6B/5EPqvjFAAERp/wDcQ+q+O/Dv/Jh9UQQaREIIvBBeUG9nBaLczIoNsUhjhDvvv1oQ+2Me3+K6SDbNGa0RL9WpBvZxmyZI3r+oZ5qtnyirDblXitzq2cxVhHMVbfpVinIVbPlFWG3KvFbnVs5irCOYq2/SrFOQq2fKKsNuVeK3OrZzFWEcxVt+lWKcgqRye6jWuz79mzKdm9Ufn9lDsW/zTnKV6pHJ7p3aWu5ZlZ8b56dSo/P7L5XZfqna3alSOT3Te0td+1Oz43S06lR+f2USxb/LKcpXKkcnuoNrs+5atSnZuVH5/ZUjk91Gtdn37NmU7N6o/P7KHYt/mnOUr1SOT3Tu0tdyzKz43z06lR+f2Xyuy/VO1u1Kkcnum9pa79qdnxulp1Kj8/soli3+WU5SuVI5PdQbXZ9y1alOzcqPz+ypHJ7qNa7Pv2bMp2b1R+f2UOxb/NOcpXqkcnundpa7lmVnxvnp1KEGydHyaoBfLxsiaokThVEicKocThVEicKglk/C0JKhRHsPg4MmCvh8bgXw+NwL4fG4F8PjcCY5j2+LSJEL/Nb3L/N73IUve5Cl73L/ADW9yxmeYKj83soli3+WU5SuVI5PdQbXZ9y1alOzcqPz+ypHJ7qNa7Pv2bMp2b1R+f2UOxb/ADTnKV6pHJ7p3aWu5ZlZ8b56dSo/P7L5XZfqna3alSOT3TRGpEaZo7JytO6BRnUyBSYtukQH5w/pVMFl9zocpuhkXWXKkcnuoNrs+5atSnZuVH5/ZUjk91Gtdn37NmU7N6o/P7KHYt/mnOUr1SOT3Tu0tdyzKz43z06lR+f2Xyuy/VO1u1Kkcnum9pa79qdnxulp1Kj8/soli3+WU5SuVI5PdQbXZ9y1alOzcqPz+ypHJ7qNa7Pv2bMp2b1R+f2UOxb/ADTnKV6pHJ7p3aWu5ZlZ8b56dSo/P7L5XZfqna3alSOT3Te0td+1Oz43S06qsN2VW15TVijI1bHrVhDM1bWZqxXZ14bsqtrymrFGRq2PWrCGZq2szViuzrw3ZVbXlNWKMivqj5BGRaAR9wCog7R0UtJkPBP7kRgLhJPugtcYdwukonzDFLZyHgvEwyVEsv7Qicgbi4qJKHGhNdEEheTNRQWUdrzCEhdJRh2/b2bVkeCiixSIbDFEheSvqZ5QnyZEAtCSf3YTCWCQuUT5vbWZyHgn92K1pfcL5p84cMd0SWMzzVbWZqxXZ14bsqtrymrFGRq2PVPDWMYXOcfBrWiZKLuynYozPohA3BOnHlN0P0H+qfI+EaA78EVv0uT5N8IsM/jhv+lyxXZ14bsqtrymrFGRq2PWrCGZq2szViuzrw3ZVbXlNWKMjVsetWEMymQtx6prA2IQwkAzk65Pi7x0RcXs8A68X3JkLceqk1rRbm24zF2metPi7x0Xe7Sdq3f+HVKWtMhbj1RLS02JMuEhfpnrT4u8dE1payUi4Em+9Mhbj1Tn2ogD3AESBdenxd46JkLceqawNiEMJAM5OuT4u8dEXF7PAOvF9yZC3HqpNa0W5tuMxdpnrT4u8dF3u0nat3/h1SlrTIW49US0tNiTLhIX6Z60+LvHRNaWslIuBJvvTIW49U59qIA9wBEgXXp8XeOiZC3HqmsDYhDCQDOTrk+LvHRFxezwDrxfcmQtx6qTWtFubbjMXaZ60XGbo+TV9HoVjlYYX0OWOVhLF9SsBvqvoev6pYMNfUzyhagvocsdfQ1fSsdnmT4m8dE1payUi4Em+9Mhbj1Tn2ogD3AESBdenxd46JkLceqawNiEMJAM5OuT4u8dEXF7PAOvF9yZC3HqpNa0W5tuMxdpnrT4u8dF3u0nat3/AIdUpa1Ya+nRBBuuNgXvQmyELZGVTZRgJuaPzjqiXQnSbSIOiIzqFHc+HSWCIC0iXeT4u8dEyFuPVNYGxCGEgGcnXJ8XeOiLi9ngHXi+5Mhbj1UmtaLc23GYu0z1p8XeOi73aTtW7/w6pS1pkLceqJaWmxJlwkL9M9afF3jomtLWSkXAk33pkLceqc+1EAe4AiQLr0+LvHRMhbj1TWBsQhhIBnJ1yfF3joi4vZ4B14vuTIW49VJrWi3NtxmLtM9afF3jou92k7Vu/wDDqlLWmQtx6olpabEmXCQv0z11Yrc6tnMVYRzFW36VYpyFWz5RVhtyrxW51bOYqwjmKtv0qxTkKtnyirDblXitzq2cxVhHML6qRk1fR6FY5WGF9DljlYSxfUrAb6r6Hr+qWCxfUzyhagvocsdfQ1fSsdnmFWz5RVhtyrxW51bOYqwjmKtv0RugUYv/AFRCvGJFkPs2tvceZRBqdrT/AJFJJfRSfyRdLf1V4rc6tnMVYRzFW36VYpyFWz5RVhtyrxW51bOYqwjmKtv0qxTkFB5iocnsaXNMyZEXhRuVqfahunMSAnIT0KDzFCw8usk+NxE9KjcrV37ErOiU/tJQeYp1hpYHEeN5u0qNytTLT3TmZkTkZaFB5iosmMcWtEhcBcFG5WqDzFQ5PY0uaZkyIvCjcrU+1DdOYkBOQnoUHmKFh5dZJ8biJ6VG5Wrv2JWdEp/aSg8xTrDSwOI8bzdpUblamWnunMzInIy0KDzFRZMY4taJC4C4KNytUHmKhyexpc0zJkReFG5Wp9qG6cxICchPQoPMULDy6yT43ET0p85Oj5NX0ehWOVhhfQ5Y5WEsX1KwG+q+h6/qlhMX1M8oWoL6HLHX0NX0rHZ5lG5Wplp7pzMyJyMtCg8xUWTGOLWiQuAuCjcrVB5iocnsaXNMyZEXhRuVqfahunMSAnIT0KDzFCw8usk+NxE9KjcrV37ErOiU/tJCTYTYLAP0ArS0neaxNr2kFPLI1HihzHjQ5pmCo0u2hAuFkXPFzgoPMVDk9jS5pmTIi8KNytT7UN05iQE5CehQeYoWHl1knxuInpUblau/YlZ0Sn9pKDzFOsNLA4jxvN2lRuVqZae6czMicjLQoPMVFkxji1okLgLgo3K1QeYqHJ7GlzTMmRF4Ublan2obpzEgJyE9Cg8xQsPLrJPjcRPSo3K1d+xKzolP7SUHmKdYaWBxHjebtNWG7Kra8pqxRkatj1qwhmatrM1Yrs68N2VW15TVijI1bHrVhDM1bWZqxXZ1NiGBCs2hDFp3eMlB+IzcwgfJChU79oKFTpDVCCg/Ef2AoVPmHzvghNjjsDEt9o2z+OSjNZ2khf8AZU9tlr7VqYmqawGE0ACYkVTWk0gEOExdNU9tkPtWpiaiteGMIJCp7IJa4uN4mLyvicMOo7A1rZiRlrXxNhNKBDhMSbPUvirbHaW7cxNfE2A0Voa0TEnS1p7XsJbJwvBk0KmsDoQEhO4qmtJjAgiYumqe2zbtWpiaprQYAAaJi+SprC6KLxO4LwbEa4/YGahU39oKD8Qn/shQfiP7A6qFTpOeSPlBQqd+0FCpnbRQ8t7SGGN7gtFYbsqtrymrFGRq2PVYzPI1YY/gH422XfdqP/8ABGERn9sWrDdkmlA/m8pqxRkatj1qwhmatrM1Yrs68N2VW15TVijI1bHrVhDMqkReIqM9zXPaCC4kEEqDD4QobWPEpOaACJnWFSIvEU4xGiGTJ5tCcxrUGHwhfLtWrVjuzlLxkqRF4imiI4RCLTxaMpC69QYfCFEcxglJrTIC7UFSIvEVCY57mNJJaCSSPEqDD4QqRF4ioz3Nc9oILiQQSoMPhChtY8Sk5oAImdYVIi8RTjEaIZMnm0JzGtQYfCF8u1atWO7OUvGSpEXiKaIjhEItPFoykLr1Bh8IURzGCUmtMgLtQVIi8RUJjnuY0kloJJI8SoMPhCivcJwriT9YRAJBMz/oosJRYSiwlFhf9qIwgECQnpUSG3syAbU9KjwP+1Hgf9qPA/7VIgf9p7HdoCRZnoUSGA6dxmosJRYSiwlFhIglpEyPC9R4H/ajwP8AtUiB/wBqPA/7UeB/2iA5xIBPhcosL/tRYSiwlFhKJDIbqmnEGxHvH+2VGe5rntBBcSCCVBh8IUNrHiUnNABEzrCpEXiKcYjRDJk82hOY1qDD4Qvl2rVqx3Zyl4yUz20KC+f6ZL8tpu4/wfkjN/7uUGjxHx4IhntmlwbIzBAXxykMGqERDyXxSmRCfqjvKpdJB/3X9V8ZpjD/ALpOapLKUzVEm072IvopIu7Y24Nr+5MgPY4Ta9oa4EHUQvl2rVqx3Zyl4yVIi8RTREcIhFp4tGUhdeoMPhCiOYwSk1pkBdqCpEXiKhMc9zGkktBJJHiVBh8IVIi8RUZ7mue0EFxIIJUGHwhQ2seJSc0AETOsKkReIpxiNEMmTzaE5jWoMPhC+XatWrHdnKXjJUiLxFNERwiEWni0ZSF19WK3OrZzFWEcxVt+lWKchVs+UVYbcq8VudWzmKsI5irb9KsU5CrZ8oqw25Va4XnC+lyJuDkTPtz6omXZD1RNzXLF9Vh//Upzp/5k3zRMjBCJuY+X/ac6f+aN81gH0RI+Z6lEyMJqJua5Ez7dE3w2L6m5BEyLQiZCE+Sc6f8AmvGaJvhsmiZWF9bsiiboTkTPt0TeG5hEy7E+iJPf9QvojeQrFbnVs5irCOYq2/RC58N8B33YbQRva4PH2Nx/gbNxisOoABRidlnUqjtJ1u72ahsH2ATRuUGGf0hB0M7JmNxUnwx4uGj7hRjEEWK1gob+9De5x5U0CIWG2BeA6QmBVinIVbPlFWG3KvFbnVs5irCOYq2/SrFOQqw3ZVbXlNWKMjVsetWEMzVtZmrFdnXhuyq2vKasUZGrY9asIZmrazNWK7OrXC84X0uWpyxz6rCHqvpcsX1WH/8AUr+qKwWrDf6r+qKwD6LE9SsJq+l6x1hsX1NyC+lYb1/VrDYvoX1uyKwnLHWpuYWCfRfX6hYdI/8A8isN2VW15TVijI1bHqmTjwJR4P8AfDX4Dc/+0ozBr8P4z3WmbzrOpM+VRyWQJ6Yp8XfpWx61YQzNW1masV2deG7Kra8pqxRkatj1qwhmVGh8QUZjnuhuAAcCSSPAKjxeEqG5jBObnCQF2sqND4gnCI4RASGd4ykb7lR4vCV8u1Zs2+7OU9ajQ+IJpiNEMCbBaE5nUqPF4SojWPE5tcZETKjQ+IKC9zXPcQQ0kEEqjxeEqND4gozHPdDcAA4EkkeAVHi8JUNzGCc3OEgLtZUaHxBOERwiAkM7xlI33KjxeEr5dqzZt92cp61Gh8QTTEaIYE2C0JzOpUeLwlRGseJza4yImVGh8QUF7mue4ghpIIJVHi8JUVhPyrgR9YX0uWpyxz6rCHqvpcsX1WH/APUr+qKwWrDf6r+qKwD6LE9SsJq+l6x1hsWtuQX0hYT1/VrDYvoX1uyKwnLHWpuYWCfRfX6hOAAh0i8/7RUZjnuhuAAcCSSPAKjxeEqG5jBObnCQF2sqND4gnCI4RASGd4ykb7lR4vCV8u1Zs2+7OU9ajQ+IJoNAphMSEW+DHm90NOkRdCcdI+n+S4F/g548G/ZMfYHejxQJiGzqqJEZBgsDWCyV8u1Zs2+7OU9ajQ+IJpiNEMCbBaE5nUqPF4SojWPE5tcZETKjQ+IKC9zXPcQQ0kEEqjxeEqND4gozHPdDcAA4EkkeAVHi8JUNzGCc3OEgLtZUaHxBOERwiAkM7xlI33KjxeEr5dqzZt92cp61Gh8QTTEaIYE2C0JzOqrFbnVs5irCOYq2/SrFOQq2fKKsNuVeK3OrZzFWEcxVt+lWKchVs+UVYbcqtcLzhfS5anLHPqsIeq+lyxfVYf8A9Sv6orBasN/qv6orAPosT1Kwmr6XrHWGxfU3IL6QsJ6/qlhsX0L63ZFYTljrU3MLBPovr9QvojeQrFbnVs5irCOYq+IQIIbauLpu4ReqIYhx44k3gVKix4hPdboH9rRcFcPEQgb/ANX8cW076WXlfLh6h4n7lNMKiA9+kuF36dZUKTRDJc43ue6Ym5xq2/SrFOQq2fKKsNuVeK3OrZzFWEcxVt+lWKcgoPM1QpMY4OcZi4C8qNylPtPdKQkRORnpUHmam2GlhaD43m/Qo3KV37E7WiU/vJQeZqNh5daA8biJaFG5SmWobpSMwJyEtKg8zVEk9jQ1wkTIi4qNylQeZqhSYxwc4zFwF5UblKfae6UhIicjPSoPM1NsNLC0HxvN+hRuUrv2J2tEp/eSg8zUbDy60B43ES0JhjijsDuzE2lxJAlMhfA4wn/+5q+CRv3mr4BGNluO1f4djfvtXwuJCMWzJ5ihwFkzTSQARIeN6obx2n4/DvKgvMMGYbdIFUSIXtEmuumFQ3gxPxm7vKjvhi0CPCSgPiNjWbmylIAggzXwyJ2LXWgy6QO9fD4piQxJj+7NoXw6KHRgRFN3fnrvXwyJ2IdaEO6U1CewQmFsnSVGfEsz1SVEiF7BJjrphUN4dE/Gbu8qC/s5zsXSmqG8uhiTDdcmkBxFx8bgqBFdEhjuPNmYXw6KHxQREddNy+GROxtWuzulPevh0UuggCGbptlqvVAitixBJ7xZmU0lrXEkDxvCobw54k83Xqgv7Oc7F0pqhvJh/gN3dVEeHvEnOumQqM+Hb+0lAdGEIPFgOsk22lq+BxjZcDLtmr/D0f8AfavgEYT/AP3tXwMfrj9GqiUOASJTk56+N0hrHeLIJEFvIoUSK4+LrzvJUVsMfS29yhAHS83uKN9RFt0yZidwQhH9KbCH6VGDfs0KPEiE+DZk/wDQVAdBh4sf5bFS/wDP0v8AJBALIKo7WsaJNa0tAAGoBNsNLC0HxvN+hRuUrv2J2tEp/eSg8zUbDy60B43ES0KNylMtQ3SkZgTkJaVB5mqJJ7GhrhImRFxUblKg8zVCkxjg5xmLgLyo3KU+090pCRE5GelQeZqbYaWFoPjeb9CjcpXfsTtaJT+8lB5mo2Hl1oDxuIloqw3ZVbXlNWKMjVsetWEMzVtZmrFdnXhuyq2vKasUZGrY9asIZlfniQWc80+z3SZyn4Kl8nuqXye6pp/b91TT+37qm8nuqaf2/dU3k91TT+37qm8nuqbye6pp/b91TT+37qmn9v3VN5PdU3k91TeT3VN5PdU0/t+6pp/b91TT+37qmn9v3VN5PdU3k91TeT3VN5PdU3k91TT+37qmn9v3VNP7fuqbye6pvJ7qm8nuqaf2/dU3k91TT+37qmn9v3VNP7fuqY//AIaAnRX/AHdLJUWHPWRazVwq8a72i5v2Chx/82+GHxbMQtALrwFBpJ+8Yr4OyJ/uPe9fDqNRwIbpdnDa0m7WEVteU1YoyNWx61YQzNW1masV2deG7Kra8pqxRkatj1qwhmUyLuHVNfaiAsaSBIF1yfC3nonNLWTmGkk33JkXcOqBa5ptkvuEhdonrT4W89F3u0lZsX/h1zlrTIu4dUQ1rRY79xmL9E9afC3nog4vZ4lt4vvTIu4dU5gbEJeASZydenwt56JkXcOqa+1EBY0kCQLrk+FvPROaWsnMNJJvuTIu4dUC1zTbJfcJC7RPWnwt56LvdpKzYv8Aw65y1pkXcOqIa1osd+4zF+ietPYQabBCwjnVr/8AiPGsyfE7rfUphNGgOEekf2svDf1FOYGxCXtBJmAbwnwt56JkXcOqa+1EBY0kCQLrk+FvPROaWsnMNJJvuTIu4dUC1zTbJfcJC7RPWnwt56LvdpKzYv8Aw65y1pkXcOqIa1osd+4zF+ietPhbz0QcXs8S28X3pkXcOqcwNiEvAJM5OvT4W89EyLuHVNfaiAsaSBIF1yfC3nonNLWTmGkk33JkXcOqBa5ptkvuEhdonrT4W89F3u0lZsX/AIdc5a0yLuHVENa0WO/cZi/RPXVitzq2cxVhHMVbfpVinIVbPlFWG3KvFbnVs5irCOYRb2sKPBk13hEm6RYokojLXbUd344ZqxTkFop8FYJzH8L2saNJ/mEBoEyTcAu62cobz4O/lPDWNF5KFgz+Va/OP5jw0EgWjrP8B+XD7rfUpkqRTSIh1iH+QLDblXiNzUZkWluisZHii9kBpN/6ls5irCOYq2/SrFOQq2fKKsNuVeK3OrZzFWEcxVt+lWKcgqRye6jWuz79mzKdm9Ufn9lDsW/zTnKV6pHJ7p3aWu5ZlZ8b56dSo/P7L5XZfqna3alSOT3Te0td+1Oz43S06lR+f2USxb/LKcpXKkcnuoNrs+5atSnZuVH5/ZUjk91Gtdn37NmU7N6o/P7KHYt/mnOUr1SOT3VLhiEBZJebA13eM1DdCoEB5cwHxiv+sqO+FFYZtewyIVEMVv8AUQLn/qYviUEucbVmMewcDqk9MbJlIgPtNeHfmWmG6ogKlQ5y8AbR3BQC4/U+4blELtTfBo+wTe1hDwH5m/YqO1rvpf3Sr/4iB91Soc9TTaP/AEoDnnW/uhRO7oYLm1fNhj8rjePsVF7J30xLkQRrBn/DFYwbRATTGdr8Gp8wPBguaKiIzBod471bhH/UTG8KkQn/AGcJ/wAcRjBrcQETFP8ApcN6Nw8GjwCIez6XehQdDP8AreFGY98TuiyZyGkoEUaF82kv1MGj9SjyA0BlwGoXqAT2YsWpynZun4J0CC0eJiRmszXxF9OifRR4cxxkgKVCo5/LDM4h+76o7YEVoDIdLee48Dwt6nKkggiYIbP1Tu0tdyzKz43z06lR+f2Xyuy/VO1u1Kkcnum9pa79qdnxulp1Kj8/soli3+WU5SuVI5PdQbXZ9y1alOzcqPz+ypHJ7qNa7Pv2bMp2b1R+f2UOxb/NOcpXqkcnundpa7lmVnxvnp1Kj8/svldl+qdrdqVI5PdN7S137U7PjdLTqqw3ZVbXlNWKMjVsetWEMzVtZmrFdnXhuyWhfAPitMeJyDINhpu1vX+E41Cb9Zh9tEXw34nHfO50UTAXwSmcC+A0136F/h6ncC+A0wHUWL4TTIcFjS6JdJoAvmUXBxuBBkb06PvKhxD971R37lR4m5Ud+5Ud+5Ud+5Mjs/tJCfH/AOQCrR+8Nqaf22oxB9mNCiUnJQozvveqO/cqPE3KjxNyo8TcqO/cqO/cocZn9tyfH/5AOaDv22q2PtDan0jLJQIhOs3qjxNyo8TcqPE3Kjv3KjxNyoz9yFIb9iVEj/8AIBVs/eG1NP7bUXj7MaFEpGShRHHWb1BeoL1BeoTgALzV8K+KQrf5oU2WlC+PcblRvi7jO+09y+C01x1lsyv8O07gX+HqdwL4JTOBfAqYSdFhUD4k2FgvhiJD3Ff4LpVzge0gXcr1QadR3fTHglvMJhbHrVhDM1bWZqxXZ14bsqtrymrFGRq2PWrCGZTIW49U1gbEIYSAZydcnxd46IuL2eAdeL7kyFuPVSa1otzbcZi7TPWnxd46LvdpO1bv/DqlLWmQtx6olpabEmXCQv0z1p8XeOia0tZKRcCTfemQtx6pz7UQB7gCJAuvT4u8dEyFuPVNYGxCGEgGcnXJ8XeOic4vZ4B14vuTIW49VJrWi3NlxmLtM9aiRd46LvdpOdu/8OqUtaZC3HqiWuabADLhIX6Z60+JKJCewzI/MJISdBiljvuwy/8AhfH+I/39Ew/5OiOlDGJG6NQaWs8C6ZN96ZC3HqnvDogtkAiU3X3KJF3jomQtx6psMNiEMJAM5OuUSLvHROcXs8A68X3JkLceqk1rRbmy4zF2metRIu8dF3u0nat3/h1SlrTIW49US0tNiTLhIX6Z60+LvHRNaWslIuBJvvTIW49U59qIA9wBEgXXp8XeOiZC3HqmsDYhDCQDOTrk+LvHRFxezwDrxfcmQtx6qTWtFubbjMXaZ60+LvHRd7tJ2rd/4dUpa0yFuPVEtLTYky4SF+meurFbnVs5irCOYq2/SrFOQq2fKKsNuVeK3OrZzFWEcxVt+lWKchUO5FiCOz7RhaXiBI/8f/E/jP4QgbcV04kTRDZpeUwNgwGBo1nWT/qVs+UVYbcq8VudWzmKsI5irb9KsU5CrZ8oqw25V4rc6tnMVYRzFW36VYpyCg8xUOT2NLmmZMiLwo3K1PtQ3TmJATkJ6FB5ihYeXWSfG4ielRuVq79iVnRKf2koPMU6w0sDiPG83aVG5Wplp7pzMyJyMtCg8xUWTGOLWiQuAuCjcrVB5iocnsaXNMyZEXhRuVqfahunMSAnIT0KDzFCw8usk+NxE9KjcrV37ErOiU/tJQeYp1hpYHEeN5u0qNytQm+06jx3eRabxXo/l0Vz2gyLyQ1m8qh22ATJhuDyP/wrz/GbgobokWI8Nhw2iZJNwATmmnUljX0l4AMtUNp1BRuVqZae6czMicjLQoPMVFkxji1okLgLgo3K1QeYqHJ7GlzTMmRF4Ublan2obpzEgJyE9Cg8xQsPLrJPjcRPSo3K1d+xKzolP7SUHmKdYaWBxHjebtKjcrUy0905mZE5GWhQeYqLJjHFrRIXAXBRuVqg8xUOT2NLmmZMiLwo3K1PtQ3TmJATkJ6FB5ihYeXWSfG4ielRuVq79iVnRKf2koPMU6w0sDiPG83aasN2VW15TVijI1bHrVhDM1bWZqxXZ14bsqtrymrFGRq2PWrCGZq8Y0J9g6ngktO9NLYkKIWvadBaZEI3ETH8wy7WKGk6hpUV1EolEAZEMI2XPevi1mlNjufE/wAxFJNjRYtKXYU+FbEhIF1xn/PKuH8ZkB4q5g/CFB/9XEZ/6WC4XwWH8xH1FYQzNW1masV2deG7Kra8pqxRkatj1qwhmatrM1Yrs68N2VW15TVijI1bHrVhDMqkReIqM9zXPaCC4kEEqDD4QobWPEpOaACJnWFSIvEU4xGiGTJ5tCcxrUGHwhfLtWrVjuzlLxkqRF4imiI4RCLTxaMpC69QYfCFEcxglJrTIC7UFSIvEVCY57mNJJaCSSPEqDD4QqRF4ioz3Nc9oILiQQSoMPhChtY8Sk5oAImdYVIi8RTjEaIZMnm0JzGtQYfCF8u1atWO7OUvGSpEXiKaIjhEItPFoykLr1Bh8IURzGCUmtMgLtQTflU4m3/vDqjeL21+H8n8MOKC7+03FQ3RaDTJRRFYJhjiLwVAdEe8yLgO6wfU46AE8PFAo4a87RAH80/yTIBXMHgPUqEQxxtUSjuG6I9UiLxFNERwiEWni0ZSF16gw+EKI5jBKTWmQF2oKkReIqExz3MaSS0EkkeJUGHwhUiLxFRnua57QQXEgglQYfCFDax4lJzQARM6wqRF4inGI0QyZPNoTmNagw+EL5dq1asd2cpeMlSIvEU0RHCIRaeLRlIXXqDD4QojmMEpNaZAXagqRF4ioTHPcxpJLQSSR4lQYfCFSIvEVGe5rntBBcSCCVBh8IUNrHiUnNABEzrCpEXiKcYjRDJk82hOY1qDD4Qvl2rVqx3Zyl4yVIi8RTREcIhFp4tGUhdfVitzq2cxVhHMVbfpVinIVbPlFWG3KvFbnVs5irCOYq2/SrFOQq2fKFcIgmx/0PHg5MMOPAfJwOf2K0+I1Gvw/hiMb9yFELv7QoP/AC4poBDpGXgnMiwMKKJgfZUejUQO8XQm3pxc5xmSbySf5ZQ/kmQVzB4NUAiECH0aiP8Az6nxEJDvSG6rFOQq2fKKsNuVeK3OrZzFWEcxVt+lWKchVs+UVYbcq8VudWzmKsI5irb9KsU5CrDdlVteU1YoyNWx61YQzNW1masV2deG7Kra8pqxRkatj1qwhmatrM1Q50qjl4iMHjFhA5tUQtnqUfJRhuCijcFGG4KkZKlPJ1A9FRKZFnqhvK+DRmjXELYY5lTaHRxqaTFcqVGpNl4EaYDAAfAgBNDWjQP5l6u/lXu0NCa573ENYxomSToAUNppBcDBoniIemb9bqtj1qwhmatrM1Yrs68N2VW15TVijI1bHrVhDM1bWZqxXZ14bsqtrymrFGRq2PWrCGZUaHxBRmOe6G4ABwJJI8AqPF4SobmME5ucJAXayo0PiCcIjhEBIZ3jKRvuVHi8JXy7Vmzb7s5T1qND4gmmI0QwJsFoTmdSo8XhKiNY8Tm1xkRMqND4goL3Nc9xBDSQQSqPF4So0PiCjMc90NwADgSSR4BUeLwlQ3MYJzc4SAu1lRofEE4RHCICQzvGUjfcqPF4Svl2rNm33ZynrUaHxBNMRohgTYLQnM6lR4vCVEax4nNrjIiZUaHxBQXuaYji0hpIIJVFeKK4zpMMNuhO+r+0qi0V8M3QKREhMNk/Q8kL4RQf2IfRfCKD+yxfCKD+wxfDKG37QGD0UKEBqDAES1GdTZw4rC1w/wBChfDdcfqbod/IIV6kEf5d5+rooLo0Vx7xNzWD6nuNwCpECk/ESL4xIsw/9sJwiOEQEhneMpG+5UeLwlfLtWbNvuzlPWo0PiCaYjRDAmwWhOZ1KjxeEqI1jxObXGREyo0PiCgvc1z3EENJBBKo8XhKjQ+IKMxz3Q3AAOBJJHgFR4vCVDcxgnNzhIC7WVGh8QThEcIgJDO8ZSN9yo8XhK+Xas2bfdnKetRofEE0xGiGBNgtCczqVHi8JURrHic2uMiJlRofEFBe5rnuIIaSCCVR4vCVGh8QUZjnuhuAAcCSSPAKjxeEqG5jBObnCQF2sqND4gnCI4RASGd4ykb7lR4vCV8u1Zs2+7OU9ajQ+IJpiNEMCbBaE5nVVitzq2cxVhHMVbfpVinIVbPlFWG3KvFbnVs5irCOYq2/SrFOQq2fKKsNuSaHNcCHNImCDoKhl9BcZxIYvMDqxPL6LcIcfxdCGo62p7XseJte0zBGsfwkhOn90wKEf81ABs7bNLUCFNAoFNqP802nfSEZN+kIOoVB+pw+bE/saqM2Ezulx8XvMxe46TVhHMVbfpVinIVbPlFWG3KvFbnVs5irCOYq2/SrFOQq2fKKsNuVeK3OrZzFWEcxVt+lWKcgoPM1QpMY4OcZi4C8qNylPtPdKQkRORnpUHmam2GlhaD43m/Qo3KV37E7WiU/vJQeZqNh5daA8biJaFG5SmWobpSMwJyEtKg8zVEk9jQ1wkTIi4qNylQeZqhSYxwc4zFwF5UblKfae6UhIicjPSoPM1NsNLC0HxvN+hRuUrv2J2tEp/eSg8zUbDy60B43ES0KNylMtQ3SkZgTkJaVB5mqJJ7GhrhImRFxUblKgTBEiCWkFUbuAF0aiAi7/bU4tGtfMoz9H9v0lRu+BN8F10Rn8iH/AKx4Q87f/wAF03fSEbDf9FQy6EDJ0d5sQm/qKgilx2EOdEfKwwD6WKNylPtPdKQkRORnpUHmam2GlhaD43m/Qo3KV37E7WiU/vJQeZqNh5daA8biJaFG5SmWobpSMwJyEtKg8zVEk9jQ1wkTIi4qNylQeZqhSYxwc4zFwF5UblKfae6UhIicjPSoPM1NsNLC0HxvN+hRuUrv2J2tEp/eSg8zUbDy60B43ES0KNylMtQ3SkZgTkJaVB5mqJJ7GhrhImRFxUblKg8zVCkxjg5xmLgLyo3KU+090pCRE5GelQeZqbYaWFoPjeb9CjcpXfsTtaJT+8lB5mo2Hl1oDxuIloqw3ZVbXlNWKMjVsetWEMzVtZmrFdnXhuyq2vKasUZGrY9asIZmrazNWK7OvDdkpUam4zRc/wD3AmRIDw75VIhk2Xf2uCgmMzHh3P8A1DSqXDjDSAZOH3abx/GyT/GJAGn/AFYgQQZEG4j+Y8N+6aXHWbgn2W6hcFQ3CFjxe5DTzTY30yswh1UNrGNEmtaAABqACw3ZVbXlNWKMjVsetWEMzVtZmrFdnXhuyq2vKasUZGrY9asIZmrazNWK7OvDdlVteU1YoyNWx61YQzKZF3DqmvtRAWNJAkC65Phbz0TmlrJzDSSb7kyLuHVAtc02yX3CQu0T1p8Leei73aSs2L/w65y1pkXcOqIa1osd+4zF+ietPhbz0QcXs8S28X3pkXcOqcwNiEvAJM5OvT4W89EyLuHVNfaiAsaSBIF1yfC3nonNLWTmGkk33JkXcOqBa5ptkvuEhdonrT4W89F3u0lZsX/h1zlrTIu4dUQ1rRY79xmL9E9afC3nog4vZ4lt4vvTIu4dU5gbEJeASZydenwt56JkXcOqa+1EBY0kCQLrk+FvPRQoMejSlEhEWwZ3eDgo76O7+mjXw/0u8QqNHosRp7sZswP0vahDpkMfX3YnEE6LRHnEbaZxNVLgxm64bw7JD+D5NJ0RQLnf3BQSAfwxBex32P8AG4D7lRJ/23qEf1FPsj/S5UGk0p5w2F28qkQ6E24ljZRoqoEWlR8akSfuHgE6GGP7zASbgbwE+FvPRMi7h1TX2ogLGkgSBdcnwt56JzS1k5hpJN9yZF3DqgWuabZL7hIXaJ60+FvPRd7tJWbF/wCHXOWtMi7h1RDWtFjv3GYv0T1p8LeeiDi9niW3i+9Mi7h1TmBsQl4BJnJ16fC3nomRdw6pr7UQFjSQJAuuT4W89E5paycw0km+5Mi7h1QLXNNsl9wkLtE9afC3nou92krNi/8ADrnLWmRdw6ohrWix37jMX6J60+FvPRBxezxLbxfemRdw6pzA2IS8Akzk69Phbz0TIu4dU19qICxpIEgXXJ8Leeic0tZOYaSTfcmRdw6oFrmm2S+4SF2ietPhbz0Xe7SVmxf+HXOWtMi7h1RDWtFjv3GYv0T11Yrc6tnMVYRzFW36VYpyFWz5RVhtyrxW51bOYqwjmKtv0qxTkKtnyirDblXitzq2cxVCZEhGEbTHgOabx4gpkSgRTgmbOAqNApsMzlI9nE3OVCpNGcPzlpbzBfF45H0vIijnmoVEjfoLDylfB2/oir4XSm/Z7HKiU/gZ1VCpr2O8WuhQyPOoNOhOwntaWf8ABtEhQnbwoO8qGwJzR9go53yVBpNIJw4bnr4b/l2u0x3hi+KtGtkBnq5fDv8AMxWvufSHGJy+ChMhsHg1gDQP+AtnyirDblXitzq2cxVhHMVbfpVinIVbPlFWG3KvFbnVs5irCOYq2/SrFOQq2fKKsNuVeK3OrZzFWEcxVt+lWKcgqRye6jWuz79mzKdm9Ufn9lDsW/zTnKV6pHJ7p3aWu5ZlZ8b56dSo/P7L5XZfqna3alSOT3Te0td+1Oz43S06lR+f2USxb/LKcpXKkcnuoNrs+5atSnZuVH5/ZUjk91Gtdn37NmU7N6o/P7KHYt/mnOUr1SOT3Tu0tdyzKz43z06lR+f2Xyuy/VO1u1Kkcnum9pa79qdnxulp1Kj8/soli3+WU5SuVI5PdQbXZ9y1alOzcqPz+ypHJ7qNa7Pv2bMp2b1R+f2UOxb/ADTnKV6pHJ7p3aWu5ZlZ8b56dSo/P7L5XZfqna3alSbtRZdmvgdEpD3C32gYITt7FQ6VR/8AbpBlzgr45SYQOiJCbEysr4/BP90AjIr4tQjZJH4Hr4pQuF6+M0Ifoevj0G4E3QCvjUd39kJrcyVSae8nSYjRk1UcxP8AcLnL4TQjfZHyWgg65maooH6vZfK7L9U7W7UqRye6b2lrv2p2fG6WnUqPz+yiWLf5ZTlK5Ujk91Btdn3LVqU7Nyo/P7Kkcnuo1rs+/ZsynZvVH5/ZQ7Fv805yleqRye6d2lruWZWfG+enUqPz+y+V2X6p2t2pUjk903tLXftTs+N0tOpUfn9lEsW/yynKVypHJ7qDa7PuWrUp2blR+f2VI5PdRrXZ9+zZlOzeqPz+yh2Lf5pzlK9Ujk907tLXcsys+N89OpUfn9l8rsv1TtbtSpHJ7pvaWu/anZ8bpadSo/P7KJYt/llOUrlSOT3UG12fctWpTs3Kj8/sqRye6jWuz79mzKdm9Ufn9lDsW/zTnKV6pHJ7p3aWu5ZlZ8b56dSo/P7L5XZfqna3alSOT3Te0td+1Oz43S06qsN2VW15TVijI1bHrVhDM1bWZqxXZ14bsqtrymrFGRq2PWrCGZq2szViuzrw3ZVbXlNWKMjVsetWEMzVtZmrFdnXhuyq2vKasUZGrY9asIZmrazNWK7OvDdlVteU1YoyNWx61YQzNW1masV2deG7Kra8pqxRkatj1qwhmatrM1Yrs68N2VW15TVijI1bHrVhDM1YbsqtrymrFGRq2PWrCGZq2szViuzrw3ZVbXlNWKMjVsetWEMzVtZmrFdnXhuyq2vKasUZGrY9asIZmrazNWK7OvDdlVteU1YoyNWx61YQzNW1masV2deG7Kra8pqxRkatj1qwhmatrM1Yrs68N2VW15TVijI1bHrVhDM1bWZqxXZ14bsqtrymrFGRq2PWrCGZX//EAEgRAAEDAgAGDAwFAgYDAQAAAAEAAgMEEQUSITFBURATFBUgMjM0cXN0siJAQlBTVGGBkaKzwUNScqGxMMIjJIOEktFEYGKQ/9oACAECAQE/AP8A9OLN1BWbqCs3UFIALeb8GujayZzo2v8ACjAv/wDRsjUQBpO5WZGyHMPINkJIDIGbmZygZew0txlJo830XJS9bD3k/k39XUd5N5y3tDfpqTR5vouSl62HvJ/Jv6uo7ybzkdob9NSaPN9FyUvWw95P5N/V1HeTect7Q36ak0eabHUrHUVY6irHUVY6irHUVg2J8rJmtzh8R+BunUU5Y4WblZMM/wCc3CFLMJg+wttwd7gzFUmjzTCx77NY0knQFuSq9BJ8FuSq9BJ8EIJy8sETi4DK22ULclX6vJ8FuSr9Xk+CjjqbvEbZLg2cGrasIfkn/dbVhD8s/wC6k0cMC5AT26fMODCRUMI0Nf8AwU2rnIb4ecQaPz506rqAxxx/IlObS11gjI9lZWvabOEFwfgt0z7bi42Tbi3NoxLptXUFrDj52QnNpebFQyPjmrS02JqGj3FxCdV1AY44+ZkxzfkNgm1MxmDcbJtwbm0Fl1Jo4cYylVtE+m2sOyh7B7jpCIsfMGDuXZ+l/dKZxWdFMncm7qp++pOcV/Z/sF+P/uD9NN4kfV0/eTOUrO0s75T+I/q6jvJvOB2hv01Jo4dBHtlRC3W8X6Aq+n3RTPb5Qyt6QpBmPmDB3Ls/S/ulM4rOimTuSd1U/fUnOK/s/wBgvx/9wfppvEj6un7yZylZ2lnfKfxH9XUd5N5w3tDfpqTRw8DNvVsOprjsYTg2qplaBkPhD3+YMG8uz9L+6Uzis6KZO5N3VT99Sc4r+z/YL8f/AHB+mm8SPq6fvJnKVnaWd8p/Ef1dR3k3nDe0N+mpNHDwGP8AMP6r7jYw3Fkhk6Wn+Qj44Gkra3exbW5YPLGVDMdwaLOBPSEBQgAbqGQR6R+Gi2hLSN1DK14zjyzdB1O+tqg6YBj4sUO+CvQ4+NutvHL8+tuKg2hAA3WMjWDOPIN1Tup3TVePKGgzBzTrs4lFtCQRuoZWvGceWboGiEgfupvHDs+puKntJtZbW5bW72IgjgYD5aTq9jCzMaiefylp/eyfxj45TsMjmsGdzrLeeo9JH+63nqPSRo0EoqWQY7cZzbg6FvNUekjW81R6SNNoJXVL4A5uMwXJ0Leeo9JGt56j0kagoJZnzMa5oMbrG63mqPSRreao9JGqaglqWF7HtADrZVvPUekjUmCp2Me8yMs0En3KTPwMBn/MOGuL7jYrxejqP0E/BFovdWGpFrSnNI8ZoOcwdY1OJ2p2U8jL30SduOU8u/6aj5zS9l/tKYTix5Tmpv5TidrdlPJT99S85r+o+wVzt2c8ufpppOIzKeTp+8o+UrO0x98p5O1vynk6jvJpO6BlPOG/TVFyMXaD3E0na25TyUHfRJ8PKeLUqTjcDA78Wri9ocNiqY59NMxou5zCB71TYLgiAMgx3/sEGtAsGgDoU9DTTjKwNdoc3IVVUz4JDG/pB1jxmg5zB1rU7kXdTL30eWPXv+mo+c0nZf7So+LH0U38p3Ju6qfvqXnNf2f7Bfjf65+mm8RnV0/eUfKVnaY++U/k39XUd5N5y3tDfpqi5GHtB7ibybeqg76Pl9FSpONwKSXa5Y3/AJXg7DjwMJTbbUSkZh4I93jNBziDrWp3Iu6mXvo8sevf9NR85pey/wBpUfFj6Kb+U7k3dVP31Lzmv7P9gvxv9c/TTeIzq6fvKPlKztMffKfyb+rqO8m85b2hv01RcjF2g9xN5NvVQd9Hy+ipUnG4EZyrBs+3UrPzN8F3uTjc7NdUiCBxB8J2RqkOYeM0HOIOtanci7qZe+jyx69/01Hzmk7L/aVHxY+im/lO5N3VT99S85r+z/YL8b/XP003iM6un7yj5Ss7TH3yn8m/q6jvJvOW9ob9NUXJRdoPcTeTb1UHfR8voqVJn2QCUxliNJWD6Q0sBLuUfYu9ns2Z6iKBmNI62oaSquqfPIZHZBmaNQR8WC2v2ra/aqZwhljebkNeCt8KG1tyutYjRmJuVvlRXvuZ9730ZyLI1kG64pRE4RtZi4vuIQwlQC1qV3k6vJzLfGgtbcrsxGjyjcoVsG65pXROLHsxcX4LfKivfcz73voz2shhGh9VdmGrycyp62COWodJE5wkeHAarElb40BBG5XZiNHlZ1vnRXvuZ973vkz2sqOsggjxZInOOOXAjRkst8KGwG5nZgNGZuUKTCFIWPDYHBxa8A5M7k5lznW1+1CMa1HE57gyNhLjoCoMGCC0ktjJoGhqcblVeEp4al7GYpaLZwn4VrHCwLW9AUkjnEukeXHWU5xPi7eMFSYO3TFtm24vhEWtdDAgP/k/It4h6z8i3iHrPyLeIes/It4h6z8i3iHrPyLeIes/It4h6z8i3iHrPyLeIes/It4h6z8i3iHrPyLeIes/It4h6z8i3iHrPyLeIes/It4h6z8i3iHrPyKPAlOOPK93szKGCGBuLHGGhE2GxUyl8sjx5TyVju8ZbxgsFc0H6imeKONyqqTa6eV+ppt0lSZwPGALkIixTeMFgrmY/UUzSnOa1pcSAALk8K4AuVS1UdSxzmaHEEfweDNVxxTwxOOV5+HCe8MaSSANexheTFp2s/O79gnG5Ow0XPizBc3TmgoAhwvrWCctJ0PKfPDCC6SRrR7VX4SNSNrjBbH+7lg7CTCxsMzrOGRrjmI4Es8MLbySNaq7CjpwY4gWx6TpcqSqkppQ9uUZnN1hU9VDUsxo3ZdLdI2auvhpWm5Dn6GD7qaWSaR0jzdxVFhcACOo9z/+1G9kjQ5jw4awb7JIaCSQANJWEsINm/woj4Gl2tUWEwxojnvYZn/9rCtQySZuI4FrWZCNZ2A0lNAAThY+KBrdJCxm61jN1rGbrUQqi0iIyYt8oaUaWqJuYXkrcdV6B63HVegf8FEMJw5IxK0atCFVhn8rv+AT5cMPz7b7gB/CNLWONzDITrK3HVegetx1XoH/AATaWsaQWwyA6wmT4ZYLAPPS0FSS4XkFjtgHsAH8LclX6F63HVegetx1XoHplNWsN2RyNOsJk+GW+kPS0FGqwyfJcOhgUseEJeVbK7pW5Kn0L0aWpAuYXIkaVdnsWM3WsZutEsOlEDQfF8FnJKOgpuceIk22a6Xa6d2t3ghPOXxzBbv8Vw1s8SJudnCct5QzQwZek+O4Pfi1EXtJHx2Bm4MkrImF7zYBQVEU7S6N17Z/6LjsveGMc45gLqeQvc5xzuNz47C8tcCNBBQIIBGYpvBws840UeixcsGPLaoN0OBH3/oOPAwlNZjYhndlPQnG58dYfCVFJj0zNYyH3IHLwcLNIkifoLSPgsGsLqth/KCT8LcMm3AJDQSTYAXKqZjJI9505vHhkKwXLlfHrGMNhp2HOawXc4Ae1T4UiZcRDHOvQgxlZSs2wWxhfJoKpqSOnBDbknOTwibcHCM9miIHKcruhPNz4/DI9hDmuIcNIQrqsfi/sFvhV+kH/EJ1dVuzzO92ROc5xu5xJ9pVM2N88bXjwS6ya1rWhoFgBYDhF2rgzStijc92hTSue5znHwnHzAw2KPABLSCM4N0x4exrhmcAeASAib8KtqdufYHwG5vb7UTc+YWm44ODJw6DEOdh/YrGCxlc8Ovq73hjP6j9k918g8xMdYo8Chm2qdtz4Lsh/o1tba8cRy6XJ7tA8yMdoRHAoajboQCfCbkPCc5rWlziABpKqq8yXZFcN0nSU59sg8zMffpVlbYgmdDKHt941hRyMkY17TcHZJAFyQApsIwsuI/DP7KaolmN5He7QE5+rzQ1+goFWCsNapKl1O7Ww5wnYUb5MR95T8JVDuKGt911JLI/K95PSjIBmRcT5qBIQkK2waltg1LbPYi9yJJ/99//xABNEQABAgQABQwOCAUEAwAAAAABAgMABAUREiExQbMGExYgIjI0UVRhcXQQFBUzQFBSc4GRk7Gy4TVCRFNydaHBIzBDhJIkYqLRYGOQ/9oACAEDAQE/AP8A6cYS+MxdzjVF3ONUMknCufF9eQ845KobfW1uH1kpJx4ABhMlOqWhPdF3dOMJyn+sm/HmhTE6GC72+7iYLtrnMvAtlhjIrxfV+Ey3V5r4Ia78z5+Q+CF8AX1FenhjIrxfV+Ey3V5r4Ia78z5+Q+CF8AX1FenhjIrxfV+Ey3V5r4Ia78z5+Q+CF8AX1FenhjIrxTcDOIwk8YjCTxiMJPGIwk8YjCTxiK9MNS70qtwmxamE+lSQBCKvJBxtRK7B2VUcWZpNlQqpSplVNAqwjLKbyfWLuHDGQ+KZp1pnDcdcShAtdSjYCO6lL5cx/nHdSl8uY/ygzkmllLxmGw2o2Su+ImO6dM5ax/lHdOm8tY/yiYfpwS0qYcYwVC7ZXaxHNeO2qD97J/8AGO2qD97J/wDGGPrbdRsCYaXfEfEOqJIVIPJOQraB9KxDlLkUqdAaOJU4Buj/AEhdMIpUgXkJLRsXpVO+ORxvCVDTDT1Jo7LiboVN4JHNdcdz5TtfD1vddqpXlO+LuB7oXTJEOOgNGwdmgN0cjaLpidYaflqQhxNwJF1Q6UtgiG6XIqdbBaNi7KJO6OR1F1QunyglFOBs4QlFOXud8HcD3QxkO3eOICKXVG57XigWU24RbjTmMA3APiCv8Cd8418Yh7fvfjqPww3whrrMloolfo+i9d/dcDgf9knTw5317z89o4f7xSfy9/RCGu/M+fkNHDnAF9QXp4YyK29YeLMlNLBxpaIHScQikTvac804TZB3K/wmGTiI8QaoOBO+ca+MQ9v3vx1H4Yb4Q11mS0USv0fReu/uuPsY6kjTw5357z89o4f7xSfy9/RCGu/M+fkNHDnAF9QXp4YyHb6p3MGnOjy3EJ/f9uxQZszEhLrJupI1tXSnxBX+Au+ca+MQ9v3vx1H4Yb4Q11mS0USv0fReu/uuPsY6kjTw5317z89o4f7xSfy9/RCGu/M+fkNHDn0evqC9PDGRW31Vq/0bY45j9j2NSj5vMsE5gse4wDcA+GKcSk2Ma8jnjXkc8V1Lrsg8GWyteE2QkZTZQMKVWlFZ7mL3RfOQ/wBcWPqhLlaC0r7mLxOMryHKynBEa3PM0imlEqtTzUxhlu3OqLVjWtb7mrtrIbvY5AvDvCl1lSlq7mL3S3lZD/WGCYqDc8iVpZZlVOLTKrbWm29w0BMJXWkrQruYvcrYVkP9EWEKRWSwWu5q7FktXschXh3htYTe8a8jnjXkc8JUFC42mqzgrPn/ANj2NTrmBVWh5aVJ/S8Nm6B4ZPPJl2nHlAkNtlRAy2EbLZDk7/6RstkOTv8A6Q3W5ZdPcng04EIXglOK+b/uNlcj9w/+kbK5H7h/9Idrcs1IMzpacKHF4ISLXz/9RstkeTv/AKRstkeTv/pE3W5aVYlXVtuEPowkgWuBYHH642VyP3D/AOkbK5H7h/8ASKlXJanvIadacUVICgU2yXIjZbIcnf8A0hjVRJPPNNJYeBWtKQTbObQzvfTtNVabySDxPj3HsUhVqnJn/wBoHrxQFqAAEXOcwFrTCFhQ8Jrf0fOdXX7oQlPbTe5HC5bQwkJ7URiHAmdPDoHc+p/mR+NMOpThvbkb+fzc0NpTr7e5HCJPRQwAZCide/dcYKe08g4CjTw4lOuvbkd/ntHDwBl6T+XvaIQ2lOvNbkd/kc3GiFgdoLxDgK9PFYAM1NdQRpocSnthzcjhM7ooAFmMQ39O90M709O01St4dNmP9pQr9exT3ENT0q4s2Sh1KieYGJ6vTT5KWCWm+bfHpMKWtRupaieMkxJ1WdlFDBdKkZ0KxiJCebm2UvNXGOyknMeLwmt/R851dfuhHCm+uS2ghHA0dRZ08O/R9U/Mz8aYe37346h7ob4Q31iS0US/AKJ1791x9j/sUaeHO/Pefn9HDvB6T+XvaIQ135nz8h8EL4AvqK9PFX4VNfl6NNDnCXOszuigZGPx073QzvT07Sosa/LvteW0pI6ew2Md9pQ5YsSTCSN0rdq9PhNb+j5zq6/dCOFN9cldBCOBo6izp4d+j6p+Zn40w7v3vx1D3Q3whrrElool+AUTr37rj7H/AGKNPDnfnvPz+jh3g9J/L3tEIb78z5+Q+CF8AX1Fenir8Kmvy9GmhzhDnWZ3RQMjH46d7oZ3p6do6LpvxRW5MytQdAG4cOGj0wgWT2aTJGcm0JI/ho3S+gZvTDIxE+E1v6PnOrr90I4U31yV0EI4GjqLOnh3gFU/Mz8aYd37346h7ob4Q31iS0US/AKJ1791x9j/ALFGnhzvz3n5/Rw7wek/l72iENd+Z8/IfBC+AL6ivTxV+FTX5ejTQ5wlzrM7ooGRj8dO90M709PZJAyw66CDjskYyYrNRE/NgI7y1cIPHxnsyknMTbobZRfjOYdMU6QblGQy3jJxrVxmALC3gxNgTGvDyY14eTE+2qalX2kkJK2lJBOS5ECg1sKChUm7hSVA7rKkYIOTMI2O1gJCe6DVsAJtut6DhAZIRSZ3uXMSy5lCn3H9c1zHa9wf2g0Gsm96i3jw75fr77NngUGtAgiot3BSc+VAsM2YQ5SZ00yTl2plCHmXcPXMds+T1xsdrGDg90GrYGDbdb0HCtk44NArRJJqLdyVk77KsWVmzxOUmdel5BtmYQ2thktrVjx3SEm0Cg1kEEVFu4KCMuVAsnNmjY9VygoM+1g4GDbHvScK0Vakz05MBxiZQ2kshtYN8dlFUGgVoqJNSbuVKVnyrFlZs8MUGqoeZU5PNqQhxoqTjxhrIIQ5gi1o14eTBeOYQ++202px5wJQMpJsIrFdVNgsS90s5znX8oQLCKbRJSZkWnXdcC1X3pzXtDep6moNylxfMpUMsIbSG2m0oSMyRYQhASPB171XRFRrZkpjWe18PcBV8K2WFaqyn7CPafKNlp5CPafKNlp5CPafKNlp5CPafKNlp5CPafKNlh5CPafKNlh5CPafKNlp5CPafKNlp5CPafKNlh5CPafKNlp5CPafKNlh5CPafKNlh5CPafKNlp5CPafKNlp5CPafKNlp5CPafKNlp5CPafKNlp5CPafKHtVU4oWaYab5zdRiZm5maXhvvKWc18g6BCRc9iQlw3LstH6jaQemA0jigADwhe8V0Rqh+klebTDmUeCIFhEgzr87Lt5i4L9AxmGRuSeM+EKNkkwCCARC94rojVB9JK82mHM0IQpa0oSklSiAAMpJ2wBJAAuScQioU96RdQhz6zaVA+8eg7WWpz8xKzUwgblkD0nP6htmm1OLSlKSSTiA7GptnDnFu5m2/wBVQgWSOwtWCPBnVWFoQsp6IKgpCrHNGqPFURztJhuUmZpSUsMrWeYYh0mKPQ0SRDzxC37YuJEVuhuhxczKoKkKN1oGVJzkbSWlJmaXgsMqWeYYh0mKTQUSikvvkLeG9A3qP+zFQkGZ+XLTmI5ULzpMTshNSLmA+ggZljeq6D2abSJqfWCElDX1nCPdxmJaXZlmUMtJshIiqamytSnpKwJxlrJ/jDrLrKyh1tSFDMoW7KUqWoJSkqUcgAuTFDoy5UiYmBZy25R5N85iqUIurU/KgBRxqbyA84jU/JuMSytcQUrW5jBFjZOLsKWlOUwpRUbmG1BSfBFLX9VJgoWcxjAX5JjAX5JiYNPStJmAzh2xFYBNoFQp6U2Ey0BxCO6VP5W1647pU/lbXriYVQZk3eVLrPHkPrEGn6mCd+n2qoal9TTRukME/wC5RV74TUKahISmZZSOIYhHdKn8ra9cd0qfytr1wqfpq0lK5hlSTlBxiHJPUy4bktA/7VlMMy2ptkgp1gnjUoq98Co08AATTQA547pU/lbXrjulT+VteuHJ2lupwXH2FjiVjhyU1MuG51kfhWU+6EyGpgHfIPS4qJd6jS4/gLYRziO6Ejypv1wJ+RJAEy2SeeAFHIDFneJUYC/JMYC/JMBLgNwDCVE5UkeD19G6l1cyhChufAQLmLdiksa9Ot3GJG7PoyQ0LJ6fDK+j/ToV5LvvHgSRYdmhS+Cwp0jG4qw6BAFh4ZWW8OTf5gFersKFidqyw6+4ltpGEoxMyj8qsJeRYkXBBuD/ACUJz9lptTriG05VEARKspbQhCd6hIA8Nmmw4gpORSSk+mCCkkHKDYwsZDtdTrQwH3c9wke+K40FyKlWxoUCPSbfyEJvj2lDlsJ1b6hiRiT0mG04KR4a6LoiqM61POjMo4Q9MEXG11OuAtPt5wsK9YituBFPcTnWUgeu+3Sm+0SlS1JSkXJNgIkJVLDLbQ+qLqPGfDiLgiK8xuWngN6ShXYWMd+w2hbiglCFKPEBeJSgzDhCpg62nyRjVBW5TZ90MqvgEjHnHEYnag/OKSVgJSnIkbZKb7WiSmEszCxiTiR0w2nBT4fMstuAocQFIVlBg0mnH7OB0KIjuNTvuT/mYRSqcjJKoPTcwhCGxZCUpHEBaJ511uUeW0QFpTcEi8LWpa1LWolRNyTtko49rLS65h5DSMpOXiGcxKsIbQhtA3CBbxA6m6ejaqSFpUk5CLGHWy06ttWVKiD6NoEkwEgbalSHazV1D+KvLzDihKcEW8QuJwVbWuSpRNhwZHBf0jEYwDAb54CUjb0inWwZl5Pm0n3mGkWxnxE4jCTzja1SW7YlFWG6Ruk/yaZSirBfmE7nKhBz85htu+M+JHUZx6drVJPteYJSNwvGnmOcbZCFuLCEJKlHIBFPpCWrOv2UvMnMmG2741eJnG7ZMkWI7M1LImWVNq9B4jDzLjLim3BZST2UhSiEpBJ4hErRZl2ynv4SfWqJWTYlk4LKMZynKTCGrY1eKFtZ0wU48Yix443XEIn5BM2gZEuDeq/YwigOfXmU+hMNUOTRvytfSbD9IZYZZFmmkp6BCWlHLihKUpyDxUQDlEFlOY2jWT5QjWVcYgM8aoDSBzwABkH/AJ7/AP/Z;" parent="epFdQ0L5DlEfyH0QWlSM-37" vertex="1">
                    <mxGeometry x="4.1299999999999955" y="7.4047701149425285" width="26.903296875" height="14.64125" as="geometry"/>
                </mxCell>
                <mxCell id="epFdQ0L5DlEfyH0QWlSM-38" value="Debezium&lt;br&gt;&lt;font style=&quot;font-size: 20px&quot;&gt;(Real time&lt;br&gt;DB updates)&lt;/font&gt;" style="rounded=0;whiteSpace=wrap;html=1;fontSize=33;align=center;" parent="epFdQ0L5DlEfyH0QWlSM-40" vertex="1">
                    <mxGeometry x="390" y="253.51" width="212.5" height="110" as="geometry"/>
                </mxCell>
                <mxCell id="HX3qsCADBIpbaKKOOA1H-3" value="" style="strokeColor=#36393d;shadow=1;strokeWidth=1;rounded=1;absoluteArcSize=1;arcSize=2;fillColor=#f9f7ed;" parent="1" vertex="1">
                    <mxGeometry x="491.5" y="250" width="198.5" height="60" as="geometry"/>
                </mxCell>
                <mxCell id="HX3qsCADBIpbaKKOOA1H-4" value="&lt;font color=&quot;#000000&quot;&gt;pg_customers&lt;br&gt;topic&lt;/font&gt;&lt;br&gt;Cloud Pub/Sub" style="dashed=0;connectable=0;html=1;fillColor=#5184F3;strokeColor=none;shape=mxgraph.gcp2.hexIcon;prIcon=cloud_pubsub;part=1;labelPosition=right;verticalLabelPosition=middle;align=left;verticalAlign=middle;spacingLeft=5;fontColor=#999999;fontSize=12;" parent="HX3qsCADBIpbaKKOOA1H-3" vertex="1">
                    <mxGeometry y="0.5" width="44" height="39" relative="1" as="geometry">
                        <mxPoint x="5" y="-19.5" as="offset"/>
                    </mxGeometry>
                </mxCell>
                <mxCell id="epFdQ0L5DlEfyH0QWlSM-5" value="" style="strokeColor=#36393d;shadow=1;strokeWidth=1;rounded=1;absoluteArcSize=1;arcSize=2;fillColor=#f9f7ed;" parent="1" vertex="1">
                    <mxGeometry x="491.5" y="330" width="198.5" height="60" as="geometry"/>
                </mxCell>
                <mxCell id="epFdQ0L5DlEfyH0QWlSM-6" value="&lt;font color=&quot;#000000&quot;&gt;pg_geography_columns&lt;br&gt;topic&lt;/font&gt;&lt;br&gt;Cloud Pub/Sub" style="dashed=0;connectable=0;html=1;fillColor=#5184F3;strokeColor=none;shape=mxgraph.gcp2.hexIcon;prIcon=cloud_pubsub;part=1;labelPosition=right;verticalLabelPosition=middle;align=left;verticalAlign=middle;spacingLeft=5;fontColor=#999999;fontSize=12;" parent="epFdQ0L5DlEfyH0QWlSM-5" vertex="1">
                    <mxGeometry y="0.5" width="44" height="39" relative="1" as="geometry">
                        <mxPoint x="5" y="-19.5" as="offset"/>
                    </mxGeometry>
                </mxCell>
                <mxCell id="epFdQ0L5DlEfyH0QWlSM-7" value="" style="strokeColor=#36393d;shadow=1;strokeWidth=1;rounded=1;absoluteArcSize=1;arcSize=2;fillColor=#f9f7ed;" parent="1" vertex="1">
                    <mxGeometry x="491.5" y="410" width="198.5" height="60" as="geometry"/>
                </mxCell>
                <mxCell id="epFdQ0L5DlEfyH0QWlSM-8" value="&lt;font color=&quot;#000000&quot;&gt;pg_geom&lt;br&gt;topic&lt;/font&gt;&lt;br&gt;Cloud Pub/Sub" style="dashed=0;connectable=0;html=1;fillColor=#5184F3;strokeColor=none;shape=mxgraph.gcp2.hexIcon;prIcon=cloud_pubsub;part=1;labelPosition=right;verticalLabelPosition=middle;align=left;verticalAlign=middle;spacingLeft=5;fontColor=#999999;fontSize=12;" parent="epFdQ0L5DlEfyH0QWlSM-7" vertex="1">
                    <mxGeometry y="0.5" width="44" height="39" relative="1" as="geometry">
                        <mxPoint x="5" y="-19.5" as="offset"/>
                    </mxGeometry>
                </mxCell>
                <mxCell id="epFdQ0L5DlEfyH0QWlSM-9" value="" style="strokeColor=#36393d;shadow=1;strokeWidth=1;rounded=1;absoluteArcSize=1;arcSize=2;fillColor=#f9f7ed;" parent="1" vertex="1">
                    <mxGeometry x="491.5" y="730" width="198.5" height="60" as="geometry"/>
                </mxCell>
                <mxCell id="epFdQ0L5DlEfyH0QWlSM-10" value="&lt;font color=&quot;#000000&quot;&gt;pg_products_on_hand&lt;br&gt;topic&lt;/font&gt;&lt;br&gt;Cloud Pub/Sub" style="dashed=0;connectable=0;html=1;fillColor=#5184F3;strokeColor=none;shape=mxgraph.gcp2.hexIcon;prIcon=cloud_pubsub;part=1;labelPosition=right;verticalLabelPosition=middle;align=left;verticalAlign=middle;spacingLeft=5;fontColor=#999999;fontSize=12;" parent="epFdQ0L5DlEfyH0QWlSM-9" vertex="1">
                    <mxGeometry y="0.5" width="44" height="39" relative="1" as="geometry">
                        <mxPoint x="5" y="-19.5" as="offset"/>
                    </mxGeometry>
                </mxCell>
                <mxCell id="epFdQ0L5DlEfyH0QWlSM-11" value="" style="strokeColor=#36393d;shadow=1;strokeWidth=1;rounded=1;absoluteArcSize=1;arcSize=2;fillColor=#f9f7ed;" parent="1" vertex="1">
                    <mxGeometry x="491.5" y="650" width="198.5" height="60" as="geometry"/>
                </mxCell>
                <mxCell id="epFdQ0L5DlEfyH0QWlSM-12" value="&lt;font color=&quot;#000000&quot;&gt;pg_products&lt;br&gt;topic&lt;/font&gt;&lt;br&gt;Cloud Pub/Sub" style="dashed=0;connectable=0;html=1;fillColor=#5184F3;strokeColor=none;shape=mxgraph.gcp2.hexIcon;prIcon=cloud_pubsub;part=1;labelPosition=right;verticalLabelPosition=middle;align=left;verticalAlign=middle;spacingLeft=5;fontColor=#999999;fontSize=12;" parent="epFdQ0L5DlEfyH0QWlSM-11" vertex="1">
                    <mxGeometry y="0.5" width="44" height="39" relative="1" as="geometry">
                        <mxPoint x="5" y="-19.5" as="offset"/>
                    </mxGeometry>
                </mxCell>
                <mxCell id="epFdQ0L5DlEfyH0QWlSM-13" value="" style="strokeColor=#36393d;shadow=1;strokeWidth=1;rounded=1;absoluteArcSize=1;arcSize=2;fillColor=#f9f7ed;" parent="1" vertex="1">
                    <mxGeometry x="491.5" y="570" width="198.5" height="60" as="geometry"/>
                </mxCell>
                <mxCell id="epFdQ0L5DlEfyH0QWlSM-14" value="&lt;font color=&quot;#000000&quot;&gt;pg_orders&lt;br&gt;topic&lt;/font&gt;&lt;br&gt;Cloud Pub/Sub" style="dashed=0;connectable=0;html=1;fillColor=#5184F3;strokeColor=none;shape=mxgraph.gcp2.hexIcon;prIcon=cloud_pubsub;part=1;labelPosition=right;verticalLabelPosition=middle;align=left;verticalAlign=middle;spacingLeft=5;fontColor=#999999;fontSize=12;" parent="epFdQ0L5DlEfyH0QWlSM-13" vertex="1">
                    <mxGeometry y="0.5" width="44" height="39" relative="1" as="geometry">
                        <mxPoint x="5" y="-19.5" as="offset"/>
                    </mxGeometry>
                </mxCell>
                <mxCell id="epFdQ0L5DlEfyH0QWlSM-19" value="" style="strokeColor=#36393d;shadow=1;strokeWidth=1;rounded=1;absoluteArcSize=1;arcSize=2;fillColor=#f9f7ed;" parent="1" vertex="1">
                    <mxGeometry x="491.5" y="490" width="198.5" height="60" as="geometry"/>
                </mxCell>
                <mxCell id="epFdQ0L5DlEfyH0QWlSM-20" value="&lt;font color=&quot;#000000&quot;&gt;pg_geometry_columns&lt;br&gt;topic&lt;/font&gt;&lt;br&gt;Cloud Pub/Sub" style="dashed=0;connectable=0;html=1;fillColor=#5184F3;strokeColor=none;shape=mxgraph.gcp2.hexIcon;prIcon=cloud_pubsub;part=1;labelPosition=right;verticalLabelPosition=middle;align=left;verticalAlign=middle;spacingLeft=5;fontColor=#999999;fontSize=12;" parent="epFdQ0L5DlEfyH0QWlSM-19" vertex="1">
                    <mxGeometry y="0.5" width="44" height="39" relative="1" as="geometry">
                        <mxPoint x="5" y="-19.5" as="offset"/>
                    </mxGeometry>
                </mxCell>
                <mxCell id="epFdQ0L5DlEfyH0QWlSM-23" value="" style="strokeColor=#36393d;shadow=1;strokeWidth=1;rounded=1;absoluteArcSize=1;arcSize=2;fillColor=#f9f7ed;" parent="1" vertex="1">
                    <mxGeometry x="491.5" y="810" width="198.5" height="60" as="geometry"/>
                </mxCell>
                <mxCell id="epFdQ0L5DlEfyH0QWlSM-24" value="&lt;font color=&quot;#000000&quot;&gt;pg_raster_columns&lt;br&gt;topic&lt;/font&gt;&lt;br&gt;Cloud Pub/Sub" style="dashed=0;connectable=0;html=1;fillColor=#5184F3;strokeColor=none;shape=mxgraph.gcp2.hexIcon;prIcon=cloud_pubsub;part=1;labelPosition=right;verticalLabelPosition=middle;align=left;verticalAlign=middle;spacingLeft=5;fontColor=#999999;fontSize=12;" parent="epFdQ0L5DlEfyH0QWlSM-23" vertex="1">
                    <mxGeometry y="0.5" width="44" height="39" relative="1" as="geometry">
                        <mxPoint x="5" y="-19.5" as="offset"/>
                    </mxGeometry>
                </mxCell>
                <mxCell id="epFdQ0L5DlEfyH0QWlSM-25" value="" style="strokeColor=#36393d;shadow=1;strokeWidth=1;rounded=1;absoluteArcSize=1;arcSize=2;fillColor=#f9f7ed;" parent="1" vertex="1">
                    <mxGeometry x="491.5" y="890" width="198.5" height="60" as="geometry"/>
                </mxCell>
                <mxCell id="epFdQ0L5DlEfyH0QWlSM-26" value="&lt;span style=&quot;color: rgb(0 , 0 , 0)&quot;&gt;pg_raster_overviews&lt;/span&gt;&lt;font color=&quot;#000000&quot;&gt;&lt;br&gt;&lt;/font&gt;topic&lt;br&gt;Cloud Pub/Sub" style="dashed=0;connectable=0;html=1;fillColor=#5184F3;strokeColor=none;shape=mxgraph.gcp2.hexIcon;prIcon=cloud_pubsub;part=1;labelPosition=right;verticalLabelPosition=middle;align=left;verticalAlign=middle;spacingLeft=5;fontColor=#999999;fontSize=12;" parent="epFdQ0L5DlEfyH0QWlSM-25" vertex="1">
                    <mxGeometry y="0.5" width="44" height="39" relative="1" as="geometry">
                        <mxPoint x="5" y="-19.5" as="offset"/>
                    </mxGeometry>
                </mxCell>
                <mxCell id="epFdQ0L5DlEfyH0QWlSM-27" value="" style="strokeColor=#36393d;shadow=1;strokeWidth=1;rounded=1;absoluteArcSize=1;arcSize=2;fillColor=#f9f7ed;" parent="1" vertex="1">
                    <mxGeometry x="491.5" y="970" width="198.5" height="60" as="geometry"/>
                </mxCell>
                <mxCell id="epFdQ0L5DlEfyH0QWlSM-28" value="&lt;font color=&quot;#000000&quot;&gt;pg_spatial_ref_sys&lt;br&gt;topic&lt;/font&gt;&lt;br&gt;Cloud Pub/Sub" style="dashed=0;connectable=0;html=1;fillColor=#5184F3;strokeColor=none;shape=mxgraph.gcp2.hexIcon;prIcon=cloud_pubsub;part=1;labelPosition=right;verticalLabelPosition=middle;align=left;verticalAlign=middle;spacingLeft=5;fontColor=#999999;fontSize=12;" parent="epFdQ0L5DlEfyH0QWlSM-27" vertex="1">
                    <mxGeometry y="0.5" width="44" height="39" relative="1" as="geometry">
                        <mxPoint x="5" y="-19.5" as="offset"/>
                    </mxGeometry>
                </mxCell>
                <mxCell id="epFdQ0L5DlEfyH0QWlSM-42" style="edgeStyle=orthogonalEdgeStyle;rounded=0;orthogonalLoop=1;jettySize=auto;html=1;entryX=0;entryY=0.5;entryDx=0;entryDy=0;fontSize=33;exitX=1;exitY=0.25;exitDx=0;exitDy=0;" parent="1" source="epFdQ0L5DlEfyH0QWlSM-38" target="HX3qsCADBIpbaKKOOA1H-3" edge="1">
                    <mxGeometry relative="1" as="geometry">
                        <Array as="points">
                            <mxPoint x="300" y="441"/>
                            <mxPoint x="300" y="280"/>
                        </Array>
                    </mxGeometry>
                </mxCell>
                <mxCell id="epFdQ0L5DlEfyH0QWlSM-43" style="edgeStyle=orthogonalEdgeStyle;rounded=0;orthogonalLoop=1;jettySize=auto;html=1;entryX=0;entryY=0.5;entryDx=0;entryDy=0;fontSize=33;exitX=1;exitY=0.25;exitDx=0;exitDy=0;" parent="1" source="epFdQ0L5DlEfyH0QWlSM-38" target="epFdQ0L5DlEfyH0QWlSM-5" edge="1">
                    <mxGeometry relative="1" as="geometry">
                        <Array as="points">
                            <mxPoint x="330" y="441"/>
                            <mxPoint x="330" y="360"/>
                        </Array>
                    </mxGeometry>
                </mxCell>
                <mxCell id="epFdQ0L5DlEfyH0QWlSM-44" style="edgeStyle=orthogonalEdgeStyle;rounded=0;orthogonalLoop=1;jettySize=auto;html=1;entryX=0;entryY=0.5;entryDx=0;entryDy=0;fontSize=33;exitX=1;exitY=0.25;exitDx=0;exitDy=0;" parent="1" source="epFdQ0L5DlEfyH0QWlSM-38" target="epFdQ0L5DlEfyH0QWlSM-7" edge="1">
                    <mxGeometry relative="1" as="geometry">
                        <Array as="points">
                            <mxPoint x="360" y="440"/>
                        </Array>
                    </mxGeometry>
                </mxCell>
                <mxCell id="epFdQ0L5DlEfyH0QWlSM-45" style="edgeStyle=orthogonalEdgeStyle;rounded=0;orthogonalLoop=1;jettySize=auto;html=1;entryX=0;entryY=0.5;entryDx=0;entryDy=0;fontSize=33;exitX=1;exitY=0.5;exitDx=0;exitDy=0;" parent="1" source="epFdQ0L5DlEfyH0QWlSM-38" target="epFdQ0L5DlEfyH0QWlSM-19" edge="1">
                    <mxGeometry relative="1" as="geometry">
                        <Array as="points">
                            <mxPoint x="380" y="469"/>
                            <mxPoint x="380" y="520"/>
                        </Array>
                    </mxGeometry>
                </mxCell>
                <mxCell id="epFdQ0L5DlEfyH0QWlSM-46" style="edgeStyle=orthogonalEdgeStyle;rounded=0;orthogonalLoop=1;jettySize=auto;html=1;entryX=0;entryY=0.5;entryDx=0;entryDy=0;fontSize=33;exitX=1;exitY=0.5;exitDx=0;exitDy=0;" parent="1" source="epFdQ0L5DlEfyH0QWlSM-38" target="epFdQ0L5DlEfyH0QWlSM-13" edge="1">
                    <mxGeometry relative="1" as="geometry">
                        <Array as="points">
                            <mxPoint x="360" y="469"/>
                            <mxPoint x="360" y="600"/>
                        </Array>
                    </mxGeometry>
                </mxCell>
                <mxCell id="epFdQ0L5DlEfyH0QWlSM-47" style="edgeStyle=orthogonalEdgeStyle;rounded=0;orthogonalLoop=1;jettySize=auto;html=1;entryX=0;entryY=0.5;entryDx=0;entryDy=0;fontSize=33;exitX=1;exitY=0.5;exitDx=0;exitDy=0;" parent="1" source="epFdQ0L5DlEfyH0QWlSM-38" target="epFdQ0L5DlEfyH0QWlSM-11" edge="1">
                    <mxGeometry relative="1" as="geometry">
                        <mxPoint x="130" y="470" as="sourcePoint"/>
                        <Array as="points">
                            <mxPoint x="340" y="469"/>
                            <mxPoint x="340" y="680"/>
                        </Array>
                    </mxGeometry>
                </mxCell>
                <mxCell id="epFdQ0L5DlEfyH0QWlSM-48" style="edgeStyle=orthogonalEdgeStyle;rounded=0;orthogonalLoop=1;jettySize=auto;html=1;entryX=0;entryY=0.5;entryDx=0;entryDy=0;fontSize=33;exitX=1;exitY=0.5;exitDx=0;exitDy=0;" parent="1" source="epFdQ0L5DlEfyH0QWlSM-38" target="epFdQ0L5DlEfyH0QWlSM-9" edge="1">
                    <mxGeometry relative="1" as="geometry">
                        <Array as="points">
                            <mxPoint x="320" y="469"/>
                            <mxPoint x="320" y="760"/>
                        </Array>
                    </mxGeometry>
                </mxCell>
                <mxCell id="epFdQ0L5DlEfyH0QWlSM-49" style="edgeStyle=orthogonalEdgeStyle;rounded=0;orthogonalLoop=1;jettySize=auto;html=1;entryX=0;entryY=0.5;entryDx=0;entryDy=0;fontSize=33;exitX=1;exitY=0.75;exitDx=0;exitDy=0;" parent="1" source="epFdQ0L5DlEfyH0QWlSM-38" target="epFdQ0L5DlEfyH0QWlSM-23" edge="1">
                    <mxGeometry relative="1" as="geometry">
                        <Array as="points">
                            <mxPoint x="300" y="496"/>
                            <mxPoint x="300" y="840"/>
                        </Array>
                    </mxGeometry>
                </mxCell>
                <mxCell id="epFdQ0L5DlEfyH0QWlSM-51" style="edgeStyle=orthogonalEdgeStyle;rounded=0;orthogonalLoop=1;jettySize=auto;html=1;entryX=0;entryY=0.5;entryDx=0;entryDy=0;fontSize=33;exitX=1;exitY=0.75;exitDx=0;exitDy=0;" parent="1" source="epFdQ0L5DlEfyH0QWlSM-38" target="epFdQ0L5DlEfyH0QWlSM-25" edge="1">
                    <mxGeometry relative="1" as="geometry">
                        <Array as="points">
                            <mxPoint x="260" y="496"/>
                            <mxPoint x="260" y="920"/>
                        </Array>
                    </mxGeometry>
                </mxCell>
                <mxCell id="epFdQ0L5DlEfyH0QWlSM-52" style="edgeStyle=orthogonalEdgeStyle;rounded=0;orthogonalLoop=1;jettySize=auto;html=1;entryX=0;entryY=0.5;entryDx=0;entryDy=0;fontSize=33;exitX=1;exitY=0.75;exitDx=0;exitDy=0;" parent="1" source="epFdQ0L5DlEfyH0QWlSM-38" target="epFdQ0L5DlEfyH0QWlSM-27" edge="1">
                    <mxGeometry relative="1" as="geometry">
                        <Array as="points">
                            <mxPoint x="230" y="496"/>
                            <mxPoint x="230" y="1000"/>
                        </Array>
                    </mxGeometry>
                </mxCell>
            </root>
        </mxGraphModel>
    </diagram>
</mxfile>